<svg xmlns:ev="http://www.w3.org/2001/xml-events" height="804" xmlns:xlink="http://www.w3.org/1999/xlink" width="1132" xmlns="http://www.w3.org/2000/svg" viewBox="0 0 1132 804"><defs><linearGradient y1="0%" x2="0%" id="lg1" y2="100%" x1="0%"><stop offset="0.00" stop-color="#ebebeb"/><stop offset="1.00" stop-color="#ebebeb"/></linearGradient><linearGradient gradientUnits="userSpaceOnUse" y1="-10" x2="38" id="lg2" y2="90" x1="65"><stop offset="0.00" stop-color="#2189d4"/><stop offset="1.00" stop-color="#003e6a"/></linearGradient><linearGradient y1="0%" x2="0%" id="lg3" y2="100%" x1="0%"><stop offset="0.00" stop-color="#d4d4d4"/><stop offset="0.08" stop-color="#e6e6e6"/><stop offset="0.33" stop-color="#d6d6d6"/><stop offset="0.82" stop-color="#dddddd"/><stop offset="1.00" stop-color="#c9c9c9"/></linearGradient><linearGradient gradientUnits="userSpaceOnUse" y1="-13" x2="48" id="lg4" y2="34" x1="24"><stop offset="0.26" stop-color="#414141"/><stop offset="0.37" stop-color="#4f4f4f"/><stop offset="0.78" stop-color="#212121"/></linearGradient><linearGradient gradientUnits="userSpaceOnUse" y1="-18" x2="79" id="lg5" y2="67" x1="34"><stop offset="0.26" stop-color="#414141"/><stop offset="0.37" stop-color="#4f4f4f"/><stop offset="0.78" stop-color="#212121"/></linearGradient><linearGradient gradientUnits="userSpaceOnUse" y1="22" x2="40" id="lg6" y2="34" x1="-6"><stop offset="0.38" stop-color="#f4f7fb" stop-opacity="0.00"/><stop offset="1.00" stop-color="#a2bbdc"/></linearGradient><linearGradient gradientUnits="userSpaceOnUse" y1="51" x2="32" id="lg7" y2="6" x1="-7"><stop offset="0.40" stop-color="#bed0e6" stop-opacity="0.00"/><stop offset="1.00" stop-color="#90aed5"/></linearGradient><linearGradient y1="100%" x2="0%" id="lg8" y2="0%" x1="0%"><stop offset="0.00" stop-color="#b2c7e2" stop-opacity="0.00"/><stop offset="1.00" stop-color="#7097c9"/></linearGradient><linearGradient gradientUnits="userSpaceOnUse" y1="-11" x2="54" id="lg9" y2="53" x1="31"><stop offset="0.60" stop-color="#bed0e6" stop-opacity="0.00"/><stop offset="1.00" stop-color="#90aed5"/></linearGradient><linearGradient gradientUnits="userSpaceOnUse" y1="43" x2="-4" id="lg10" y2="7" x1="60"><stop offset="0.40" stop-color="#bed0e6" stop-opacity="0.00"/><stop offset="1.00" stop-color="#90aed5"/></linearGradient><linearGradient y1="0%" x2="0%" id="lg11" y2="100%" x1="0%"><stop offset="0.00" stop-color="#4a4a4a"/><stop offset="1.00" stop-color="#2a2a2a"/></linearGradient><linearGradient y1="0%" x2="0%" id="lg12" y2="0%" x1="100%"><stop offset="0.00" stop-color="#272727"/><stop offset="0.79" stop-color="#373737"/><stop offset="1.00" stop-color="#1d1d1d"/></linearGradient><linearGradient y1="0%" x2="0%" id="lg13" y2="0%" x1="100%"><stop offset="0.00" stop-color="#272727"/><stop offset="0.83" stop-color="#383838"/><stop offset="1.00" stop-color="#1d1d1d"/></linearGradient><linearGradient y1="0%" x2="0%" id="lg14" y2="0%" x1="100%"><stop offset="0.00" stop-color="#272727"/><stop offset="0.13" stop-color="#373737"/><stop offset="1.00" stop-color="#1d1d1d"/></linearGradient><linearGradient gradientUnits="userSpaceOnUse" y1="44" x2="-4" id="lg15" y2="41" x1="28"><stop offset="0.00" stop-color="#ffffff" stop-opacity="0.25"/><stop offset="0.44" stop-color="#686868" stop-opacity="0.00"/></linearGradient><radialGradient r="8.7" fy="6" cx="6" cy="6" gradientUnits="userSpaceOnUse" id="rg1" fx="6"><stop offset="0.00" stop-color="#404040"/><stop offset="0.50" stop-color="#d8d8d8"/><stop offset="1.00" stop-color="#404040"/></radialGradient><linearGradient y1="0%" x2="0%" id="lg16" y2="100%" x1="0%"><stop offset="0.00" stop-color="#000000"/><stop offset="1.00" stop-color="#000000"/></linearGradient><linearGradient y1="0%" x2="0%" id="lg17" y2="100%" x1="0%"><stop offset="0.09" stop-color="#ffffff" stop-opacity="0.39"/><stop offset="0.36" stop-color="#ffffff" stop-opacity="0.00"/></linearGradient><radialGradient r="14.3" fy="-0" cx="0" cy="-0" gradientUnits="userSpaceOnUse" id="rg2" fx="0"><stop offset="0.00" stop-color="#a5a5a5"/><stop offset="0.83" stop-color="#383b3b"/><stop offset="1.00" stop-color="#383b3b"/></radialGradient><linearGradient y1="0%" x2="0%" id="lg18" y2="0%" x1="100%"><stop offset="0.00" stop-color="#d8d8d8"/><stop offset="1.00" stop-color="#bfbfbf"/></linearGradient><radialGradient r="4.0" fy="0" cx="0" cy="0" gradientUnits="userSpaceOnUse" id="rg3" fx="0"><stop offset="0.00" stop-color="#daeafd"/><stop offset="0.71" stop-color="#a8b1b2"/><stop offset="1.00" stop-color="#a8b1b2"/></radialGradient><linearGradient y1="0%" x2="0%" id="lg19" y2="100%" x1="0%"><stop offset="0.00" stop-color="#a5a5a5"/><stop offset="1.00" stop-color="#0c0c0c"/></linearGradient><radialGradient r="87.3" fy="0" cx="87" cy="0" gradientUnits="userSpaceOnUse" id="rg4" fx="87"><stop offset="0.00" stop-color="#383b3b"/><stop offset="0.99" stop-color="#e1ecee"/><stop offset="1.00" stop-color="#e1ecee"/></radialGradient><linearGradient y1="0%" x2="0%" id="lg20" y2="100%" x1="0%"><stop offset="0.00" stop-color="#e1ecee"/><stop offset="1.00" stop-color="#262626"/></linearGradient><linearGradient y1="0%" x2="100%" id="lg21" y2="0%" x1="0%"><stop offset="0.00" stop-color="#383b3b"/><stop offset="1.00" stop-color="#161717"/></linearGradient><linearGradient y1="0%" x2="100%" id="lg22" y2="0%" x1="0%"><stop offset="0.00" stop-color="#cad4d6"/><stop offset="1.00" stop-color="#707677"/></linearGradient><linearGradient y1="0%" x2="100%" id="lg23" y2="0%" x1="0%"><stop offset="0.00" stop-color="#2e2e2e"/><stop offset="0.30" stop-color="#4c4c4c"/><stop offset="1.00" stop-color="#1e1e1e"/></linearGradient><linearGradient gradientUnits="userSpaceOnUse" y1="14" x2="32" id="lg24" y2="-9" x1="24"><stop offset="0.00" stop-color="#ffffff" stop-opacity="0.33"/><stop offset="0.40" stop-color="#000000" stop-opacity="0.02"/></linearGradient><linearGradient y1="0%" x2="100%" id="lg25" y2="0%" x1="0%"><stop offset="0.00" stop-color="#2e2e2e"/><stop offset="0.29" stop-color="#3f3f3f"/><stop offset="1.00" stop-color="#1e1e1e"/></linearGradient><linearGradient y1="0%" x2="0%" id="lg26" y2="100%" x1="0%"><stop offset="0.00" stop-color="#3498db"/><stop offset="1.00" stop-color="#1a567f"/></linearGradient><linearGradient gradientUnits="userSpaceOnUse" y1="14" x2="32" id="lg27" y2="-9" x1="24"><stop offset="0.00" stop-color="#ffffff" stop-opacity="0.23"/><stop offset="0.40" stop-color="#000000" stop-opacity="0.02"/></linearGradient><linearGradient y1="0%" x2="0%" id="lg28" y2="100%" x1="0%"><stop offset="0.00" stop-color="#ffffff"/><stop offset="0.40" stop-color="#e2f2f9"/><stop offset="0.72" stop-color="#a4d9f0"/><stop offset="1.00" stop-color="#a7daf0"/></linearGradient><linearGradient y1="0%" x2="0%" id="lg29" y2="100%" x1="0%"><stop offset="0.00" stop-color="#fbfdfe"/><stop offset="0.53" stop-color="#dceff8"/><stop offset="1.00" stop-color="#a1d8ef"/></linearGradient></defs><g transform="translate(5.5,5.5)" id="page1"><rect x="0" height="794" fill="#fafcfc" y="0" width="1123"/><g id="group1"><g transform="translate(38.20,73.34)" id="group2"><path stroke="#ffffff" transform="matrix(0.94,0.35,-0.35,0.94,8.7,-5.4)" fill="#ffffff" fill-rule="nonzero" d="M.0,20.9C.0,9.4,8.3,.0,18.6,.0C28.9,.0,37.2,9.4,37.2,20.9C37.2,32.5,28.9,41.9,18.6,41.9C8.3,41.9,.0,32.5,.0,20.9z" fill-opacity="0.15" id="shape3" stroke-width="1"/><path transform="translate(1.77,2.71)" fill="#ffffff" fill-rule="nonzero" d="M5.7,30.0C5.7,30.0,-4.9,21.7,2.8,8.8C10.7,-4.2,22.8,1.1,22.8,1.1L24.1,1.9C24.1,1.9,3.8,5.9,5.7,30.0z" fill-opacity="0.44" id="shape4"/></g><g transform="translate(608.88,38.55)" id="group5"><path stroke="#ffffff" transform="matrix(0.94,0.35,-0.35,0.94,14.0,-8.7)" fill="#ffffff" fill-rule="nonzero" d="M.0,33.9C.0,15.2,13.5,.0,30.1,.0C46.7,.0,60.2,15.2,60.2,33.9C60.2,52.6,46.7,67.7,30.1,67.7C13.5,67.7,.0,52.6,.0,33.9z" fill-opacity="0.15" id="shape6" stroke-width="1"/><path transform="translate(2.86,4.38)" fill="#ffffff" fill-rule="nonzero" d="M9.2,48.5C9.2,48.5,-8.0,35.1,4.6,14.3C17.3,-6.9,36.9,1.7,36.9,1.7L39.0,3.1C39.0,3.1,6.1,9.5,9.2,48.5z" fill-opacity="0.44" id="shape7"/></g><g transform="translate(462.07,721.52)" id="group8"><path stroke="#ffffff" transform="matrix(0.94,0.35,-0.35,0.94,14.0,-8.7)" fill="#ffffff" fill-rule="nonzero" d="M.0,33.9C.0,15.2,13.5,.0,30.1,.0C46.7,.0,60.2,15.2,60.2,33.9C60.2,52.6,46.7,67.7,30.1,67.7C13.5,67.7,.0,52.6,.0,33.9z" fill-opacity="0.15" id="shape9" stroke-width="1"/><path transform="translate(2.86,4.38)" fill="#ffffff" fill-rule="nonzero" d="M9.2,48.5C9.2,48.5,-8.0,35.1,4.6,14.3C17.3,-6.9,36.9,1.7,36.9,1.7L39.0,3.1C39.0,3.1,6.1,9.5,9.2,48.5z" fill-opacity="0.44" id="shape10"/></g><g transform="translate(1030.73,592.10)" id="group11"><path stroke="#ffffff" transform="matrix(0.94,0.35,-0.35,0.94,14.0,-8.7)" fill="#ffffff" fill-rule="nonzero" d="M.0,33.9C.0,15.2,13.5,.0,30.1,.0C46.7,.0,60.2,15.2,60.2,33.9C60.2,52.6,46.7,67.7,30.1,67.7C13.5,67.7,.0,52.6,.0,33.9z" fill-opacity="0.15" id="shape12" stroke-width="1"/><path transform="translate(2.86,4.38)" fill="#ffffff" fill-rule="nonzero" d="M9.2,48.5C9.2,48.5,-8.0,35.1,4.6,14.3C17.3,-6.9,36.9,1.7,36.9,1.7L39.0,3.1C39.0,3.1,6.1,9.5,9.2,48.5z" fill-opacity="0.64" id="shape13"/></g><g transform="translate(98.90,642.56)" id="group14"><path stroke="#ffffff" transform="matrix(0.94,0.35,-0.35,0.94,20.9,-13.0)" fill="#ffffff" fill-rule="nonzero" d="M.0,50.4C.0,22.6,20.1,.0,44.8,.0C69.5,.0,89.6,22.6,89.6,50.4C89.6,78.3,69.5,100.9,44.8,100.9C20.1,100.9,.0,78.3,.0,50.4z" fill-opacity="0.47" id="shape15" stroke-width="1"/><path transform="translate(4.26,6.52)" fill="#ffffff" fill-rule="nonzero" d="M13.7,72.3C13.7,72.3,-11.9,52.3,6.8,21.2C25.7,-10.2,54.9,2.6,54.9,2.6L58.0,4.6C58.0,4.6,9.0,14.1,13.7,72.3z" fill-opacity="0.64" id="shape16"/></g><g transform="translate(763.71,658.95)" id="group17"><path stroke="#ffffff" transform="matrix(0.94,0.35,-0.35,0.94,14.0,-8.7)" fill="#ffffff" fill-rule="nonzero" d="M.0,33.9C.0,15.2,13.5,.0,30.1,.0C46.7,.0,60.2,15.2,60.2,33.9C60.2,52.6,46.7,67.7,30.1,67.7C13.5,67.7,.0,52.6,.0,33.9z" fill-opacity="0.15" id="shape18" stroke-width="1"/><path transform="translate(2.86,4.38)" fill="#ffffff" fill-rule="nonzero" d="M9.2,48.5C9.2,48.5,-8.0,35.1,4.6,14.3C17.3,-6.9,36.9,1.7,36.9,1.7L39.0,3.1C39.0,3.1,6.1,9.5,9.2,48.5z" fill-opacity="0.44" id="shape19"/></g><g transform="translate(1061.31,155.79)" id="group20"><path stroke="#ffffff" transform="matrix(0.94,0.35,-0.35,0.94,14.0,-8.7)" fill="#ffffff" fill-rule="nonzero" d="M.0,33.9C.0,15.2,13.5,.0,30.1,.0C46.7,.0,60.2,15.2,60.2,33.9C60.2,52.6,46.7,67.7,30.1,67.7C13.5,67.7,.0,52.6,.0,33.9z" fill-opacity="0.15" id="shape21" stroke-width="1"/><path transform="translate(2.86,4.38)" fill="#ffffff" fill-rule="nonzero" d="M9.2,48.5C9.2,48.5,-8.0,35.1,4.6,14.3C17.3,-6.9,36.9,1.7,36.9,1.7L39.0,3.1C39.0,3.1,6.1,9.5,9.2,48.5z" fill-opacity="0.58" id="shape22"/></g><g transform="translate(98.88,6.49)" id="group23"><path stroke="#ffffff" transform="matrix(0.94,0.35,-0.35,0.94,14.0,-8.7)" fill="#ffffff" fill-rule="nonzero" d="M.0,33.9C.0,15.2,13.5,.0,30.1,.0C46.7,.0,60.2,15.2,60.2,33.9C60.2,52.6,46.7,67.7,30.1,67.7C13.5,67.7,.0,52.6,.0,33.9z" fill-opacity="0.15" id="shape24" stroke-width="1"/><path transform="translate(2.86,4.38)" fill="#ffffff" fill-rule="nonzero" d="M9.2,48.5C9.2,48.5,-8.0,35.1,4.6,14.3C17.3,-6.9,36.9,1.7,36.9,1.7L39.0,3.1C39.0,3.1,6.1,9.5,9.2,48.5z" fill-opacity="0.61" id="shape25"/></g><g transform="translate(128.97,233.42)" id="group26"><path stroke="#ffffff" transform="matrix(0.94,0.35,-0.35,0.94,14.0,-8.7)" fill="#ffffff" fill-rule="nonzero" d="M.0,33.9C.0,15.2,13.5,.0,30.1,.0C46.7,.0,60.2,15.2,60.2,33.9C60.2,52.6,46.7,67.7,30.1,67.7C13.5,67.7,.0,52.6,.0,33.9z" fill-opacity="0.15" id="shape27" stroke-width="1"/><path transform="translate(2.86,4.38)" fill="#ffffff" fill-rule="nonzero" d="M9.2,48.5C9.2,48.5,-8.0,35.1,4.6,14.3C17.3,-6.9,36.9,1.7,36.9,1.7L39.0,3.1C39.0,3.1,6.1,9.5,9.2,48.5z" fill-opacity="0.44" id="shape28"/></g><g transform="translate(7.62,397.60)" id="group29"><path stroke="#ffffff" transform="matrix(0.94,0.35,-0.35,0.94,14.0,-8.7)" fill="#ffffff" fill-rule="nonzero" d="M.0,33.9C.0,15.2,13.5,.0,30.1,.0C46.7,.0,60.2,15.2,60.2,33.9C60.2,52.6,46.7,67.7,30.1,67.7C13.5,67.7,.0,52.6,.0,33.9z" fill-opacity="0.15" id="shape30" stroke-width="1"/><path transform="translate(2.86,4.38)" fill="#ffffff" fill-rule="nonzero" d="M9.2,48.5C9.2,48.5,-8.0,35.1,4.6,14.3C17.3,-6.9,36.9,1.7,36.9,1.7L39.0,3.1C39.0,3.1,6.1,9.5,9.2,48.5z" fill-opacity="0.63" id="shape31"/></g><g transform="translate(901.38,706.99)" id="group32"><path stroke="#ffffff" transform="matrix(0.94,0.35,-0.35,0.94,16.8,-10.5)" fill="#ffffff" fill-rule="nonzero" d="M.0,40.5C.0,18.1,16.1,.0,36.0,.0C55.9,.0,72.0,18.1,72.0,40.5C72.0,62.9,55.9,81.0,36.0,81.0C16.1,81.0,.0,62.9,.0,40.5z" fill-opacity="0.47" id="shape33" stroke-width="1"/><path transform="translate(3.42,5.24)" fill="#ffffff" fill-rule="nonzero" d="M11.0,58.1C11.0,58.1,-9.5,42.0,5.5,17.1C20.7,-8.2,44.1,2.1,44.1,2.1L46.6,3.7C46.6,3.7,7.3,11.3,11.0,58.1z" fill-opacity="0.64" id="shape34"/></g><g transform="translate(822.00,39.59)" id="group35"><path stroke="#ffffff" transform="matrix(0.94,0.35,-0.35,0.94,13.2,-8.2)" fill="#ffffff" fill-rule="nonzero" d="M.0,31.8C.0,14.3,12.7,.0,28.3,.0C43.9,.0,56.5,14.3,56.5,31.8C56.5,49.4,43.9,63.7,28.3,63.7C12.7,63.7,.0,49.4,.0,31.8z" fill-opacity="0.18" id="shape36" stroke-width="1"/><path transform="translate(2.69,4.12)" fill="#ffffff" fill-rule="nonzero" d="M8.7,45.6C8.7,45.6,-7.5,33.0,4.3,13.4C16.2,-6.4,34.6,1.6,34.6,1.6L36.6,2.9C36.6,2.9,5.7,8.9,8.7,45.6z" fill-opacity="0.64" id="shape37"/></g><g transform="translate(875.95,246.38)" id="group38"><path stroke="#ffffff" transform="matrix(0.94,0.35,-0.35,0.94,22.6,-14.1)" fill="#ffffff" fill-rule="nonzero" d="M.0,54.6C.0,24.4,21.7,.0,48.5,.0C75.3,.0,97.0,24.4,97.0,54.6C97.0,84.8,75.3,109.2,48.5,109.2C21.7,109.2,.0,84.8,.0,54.6z" fill-opacity="0.04" id="shape39" stroke-width="1" stroke-opacity="0.73"/><path transform="translate(4.61,7.06)" fill="#ffffff" fill-rule="nonzero" d="M14.9,78.3C14.9,78.3,-12.9,56.6,7.4,23.0C27.9,-11.1,59.4,2.8,59.4,2.8L62.8,5.0C62.8,5.0,9.8,15.3,14.9,78.3z" fill-opacity="0.45" id="shape40"/></g><g transform="translate(299.92,20.58)" id="group41"><path stroke="#ffffff" transform="matrix(0.94,0.35,-0.35,0.94,21.5,-13.4)" fill="#ffffff" fill-rule="nonzero" d="M.0,51.8C.0,23.2,20.6,.0,46.0,.0C71.4,.0,92.0,23.2,92.0,51.8C92.0,80.4,71.4,103.6,46.0,103.6C20.6,103.6,.0,80.4,.0,51.8z" fill-opacity="0.04" id="shape42" stroke-width="1" stroke-opacity="0.73"/><path transform="translate(4.37,6.70)" fill="#ffffff" fill-rule="nonzero" d="M14.1,74.2C14.1,74.2,-12.2,53.7,7.0,21.8C26.4,-10.5,56.4,2.6,56.4,2.6L59.6,4.7C59.6,4.7,9.3,14.5,14.1,74.2z" fill-opacity="0.45" id="shape43"/></g></g><g transform="translate(372.97,62.53)" id="shape44"><text style="fill:#1f6391;font-family:Arial;font-size:22.00pt" xml:space="preserve"><tspan x="118.3" y="40.6">Peer-to-peer</tspan></text></g><g transform="translate(490.29,127.00)" id="group45"><path transform="translate(0.01,94.11)" fill="#a7a7a7" fill-rule="nonzero" d="M145.4,2.8L145.4,6.6C145.4,6.6,106.4,31.1,102.9,32.7C100.2,34.0,97.5,34.1,94.7,33.7C91.7,33.2,1.6,3.3,.5,2.4C-0.4,1.4,.1,.0,.1,.0L130.0,9.5L145.4,2.8z" id="shape46"/><path transform="translate(51.99,0.00)" fill="#a7a7a7" fill-rule="nonzero" d="M20.0,.0C17.8,-0.4,16.0,2.0,15.7,4.3C15.5,6.2,.2,65.5,.2,65.5C.2,65.5,-1.0,68.5,2.1,69.4C5.1,70.4,93.1,94.9,93.1,94.9C93.1,94.9,95.2,96.5,96.0,92.8C96.8,89.1,113.9,23.2,113.9,23.2C113.9,23.2,115.2,19.6,109.9,18.5C104.3,17.4,21.0,.0,20.0,.0z" id="shape47"/><path transform="translate(50.68,0.05)" fill="url(#lg1)" fill-rule="nonzero" d="M20.4,.0C18.3,-0.4,16.4,2.0,16.2,4.3C16.0,6.2,.2,65.7,.2,65.7C.2,65.7,-1.0,68.7,2.0,69.6C5.1,70.5,93.5,94.9,93.5,94.9C93.5,94.9,95.6,96.5,96.4,92.8C97.2,89.1,114.3,23.2,114.3,23.2C114.3,23.2,115.6,19.6,110.3,18.5C104.8,17.4,21.4,.0,20.4,.0z" id="shape48"/><path transform="translate(56.32,7.49)" fill="url(#lg2)" fill-rule="nonzero" d="M15.5,.0L.0,56.3L87.3,80.2L103.0,19.8L15.5,.0z" id="shape49"/><path transform="translate(0.00,70.26)" fill="url(#lg3)" fill-rule="nonzero" d="M2.7,22.4C2.7,22.4,-2.9,24.2,1.9,26.1C6.6,27.9,92.9,56.3,93.4,56.5C93.9,56.8,98.8,58.0,103.1,55.7C108.7,52.7,145.2,27.7,145.2,27.7C145.2,27.7,146.5,25.6,142.6,24.5C139.0,23.5,51.8,.0,52.6,.0C52.6,.0,49.2,-0.4,44.7,1.9L2.7,22.4z" id="shape50"/><path transform="translate(60.18,72.16)" fill="url(#lg4)" fill-rule="nonzero" d="M1.7,.0C1.7,.0,.3,1.6,.2,1.8C.0,1.9,-0.5,2.3,1.3,3.0C3.2,3.7,68.1,21.5,68.1,21.5C68.1,21.5,69.2,21.7,70.1,20.9C71.0,20.0,72.0,19.4,72.0,19.4L1.7,.0z" id="shape51"/><path transform="matrix(0.99,-0.12,0.12,0.99,19.3,77.4)" fill="url(#lg5)" fill-rule="nonzero" d="M30.6,.0L.0,10.4L84.9,48.5L113.5,34.2L30.6,.0z" id="shape52"/><path transform="matrix(1.00,0.01,-0.01,1.00,48.0,75.6)" fill="#868686" fill-rule="nonzero" d="M.0,2.1L3.6,.0L7.9,1.3L4.2,3.4L.0,2.1z" id="shape53"/><path transform="matrix(1.00,0.01,-0.01,1.00,53.1,77.0)" fill="#868686" fill-rule="nonzero" d="M.0,2.1L3.6,.0L7.9,1.3L4.2,3.4L.0,2.1z" id="shape54"/><path transform="matrix(1.00,0.01,-0.01,1.00,58.5,78.5)" fill="#868686" fill-rule="nonzero" d="M.0,2.1L3.6,.0L7.9,1.3L4.2,3.4L.0,2.1z" id="shape55"/><path transform="matrix(1.00,0.01,-0.01,1.00,63.6,80.0)" fill="#868686" fill-rule="nonzero" d="M.0,2.1L3.6,.0L7.9,1.3L4.2,3.4L.0,2.1z" id="shape56"/><path transform="matrix(1.00,0.01,-0.01,1.00,69.0,81.6)" fill="#868686" fill-rule="nonzero" d="M.0,2.1L3.6,.0L7.9,1.3L4.2,3.4L.0,2.1z" id="shape57"/><path transform="matrix(1.00,0.01,-0.01,1.00,74.6,83.2)" fill="#868686" fill-rule="nonzero" d="M.0,2.2L3.6,.0L7.9,1.4L4.2,3.5L.0,2.2z" id="shape58"/><path transform="matrix(1.00,0.01,-0.01,1.00,80.2,84.7)" fill="#868686" fill-rule="nonzero" d="M.0,2.3L3.4,.0L7.9,1.4L4.2,3.5L.0,2.3z" id="shape59"/><path transform="matrix(1.00,0.01,-0.01,1.00,85.9,86.3)" fill="#868686" fill-rule="nonzero" d="M.0,2.1L3.4,.0L7.9,1.2L4.2,3.4L.0,2.1z" id="shape60"/><path transform="matrix(1.00,0.01,-0.01,1.00,91.2,87.7)" fill="#868686" fill-rule="nonzero" d="M.0,2.3L3.6,.0L7.9,1.1L4.2,3.2L.0,2.3z" id="shape61"/><path transform="matrix(1.00,0.01,-0.01,1.00,96.6,89.0)" fill="#868686" fill-rule="nonzero" d="M.0,2.3L3.5,.0L8.2,1.2L4.7,3.8L.0,2.3z" id="shape62"/><path transform="matrix(1.00,0.01,-0.01,1.00,102.3,90.5)" fill="#868686" fill-rule="nonzero" d="M.0,2.5L3.5,.0L8.5,1.5L4.9,3.9L.0,2.5z" id="shape63"/><path transform="matrix(1.00,0.01,-0.01,1.00,108.3,92.2)" fill="#868686" fill-rule="nonzero" d="M.0,2.5L3.5,.0L8.5,1.3L5.0,4.0L.0,2.5z" id="shape64"/><path transform="matrix(1.00,0.01,-0.01,1.00,114.6,94.0)" fill="#868686" fill-rule="nonzero" d="M.0,2.5L3.5,.0L8.8,1.6L5.0,4.0L.0,2.5z" id="shape65"/><path transform="matrix(1.00,0.01,-0.01,1.00,120.7,96.0)" fill="#868686" fill-rule="nonzero" d="M.0,2.4L4.0,.0L9.0,1.2L4.7,3.9L.0,2.4z" id="shape66"/><path transform="matrix(1.00,0.01,-0.01,1.00,38.9,80.9)" fill="#868686" fill-rule="nonzero" d="M.0,1.9L3.6,.0L8.0,1.3L4.3,3.4L.0,1.9z" id="shape67"/><path transform="matrix(1.00,0.01,-0.01,1.00,44.1,82.2)" fill="#868686" fill-rule="nonzero" d="M.0,2.1L3.6,.0L8.0,1.3L4.3,3.4L.0,2.1z" id="shape68"/><path transform="matrix(1.00,0.01,-0.01,1.00,49.6,83.8)" fill="#868686" fill-rule="nonzero" d="M.0,2.1L3.6,.0L8.0,1.3L4.3,3.4L.0,2.1z" id="shape69"/><path transform="matrix(1.00,0.01,-0.01,1.00,54.8,85.3)" fill="#868686" fill-rule="nonzero" d="M.0,2.1L3.6,.0L8.0,1.3L4.3,3.4L.0,2.1z" id="shape70"/><path transform="matrix(1.00,0.01,-0.01,1.00,60.3,86.8)" fill="#868686" fill-rule="nonzero" d="M.0,2.1L3.6,.0L8.0,1.3L4.3,3.4L.0,2.1z" id="shape71"/><path transform="matrix(1.00,0.01,-0.01,1.00,66.0,88.4)" fill="#868686" fill-rule="nonzero" d="M.0,2.2L3.6,.0L8.0,1.4L4.3,3.5L.0,2.2z" id="shape72"/><path transform="matrix(1.00,0.01,-0.01,1.00,71.7,89.9)" fill="#868686" fill-rule="nonzero" d="M.0,2.3L3.4,.0L8.1,1.4L4.3,3.5L.0,2.3z" id="shape73"/><path transform="matrix(1.00,0.01,-0.01,1.00,77.4,91.6)" fill="#868686" fill-rule="nonzero" d="M.0,2.1L3.4,.0L8.1,1.2L4.3,3.4L.0,2.1z" id="shape74"/><path transform="matrix(1.00,0.01,-0.01,1.00,82.8,93.0)" fill="#868686" fill-rule="nonzero" d="M.0,2.3L3.4,.0L8.1,1.2L4.3,3.5L.0,2.3z" id="shape75"/><path transform="matrix(1.00,0.01,-0.01,1.00,88.4,94.6)" fill="#868686" fill-rule="nonzero" d="M.0,2.3L3.6,.0L8.3,1.5L5.0,3.9L.0,2.3z" id="shape76"/><path transform="matrix(1.00,0.01,-0.01,1.00,94.1,96.6)" fill="#868686" fill-rule="nonzero" d="M.0,2.5L3.5,.0L8.6,1.5L4.9,3.9L.0,2.5z" id="shape77"/><path transform="matrix(1.00,0.01,-0.01,1.00,100.2,98.4)" fill="#868686" fill-rule="nonzero" d="M.0,2.5L3.5,.0L8.6,1.3L5.1,4.0L.0,2.5z" id="shape78"/><path transform="matrix(1.00,0.01,-0.01,1.00,105.9,100.1)" fill="#868686" fill-rule="nonzero" d="M.0,2.5L3.5,.0L8.5,1.3L5.0,3.7L.0,2.5z" id="shape79"/><path transform="matrix(1.00,0.01,-0.01,1.00,111.6,101.4)" fill="#868686" fill-rule="nonzero" d="M.0,2.8L3.9,.0L9.2,1.5L4.8,4.2L.0,2.8z" id="shape80"/><path transform="matrix(1.00,0.01,-0.01,1.00,43.3,78.2)" fill="#868686" fill-rule="nonzero" d="M.0,2.1L3.6,.0L8.0,1.3L4.3,3.4L.0,2.1z" id="shape81"/><path transform="matrix(1.00,0.01,-0.01,1.00,48.6,79.5)" fill="#868686" fill-rule="nonzero" d="M.0,2.1L3.6,.0L8.0,1.3L4.3,3.4L.0,2.1z" id="shape82"/><path transform="matrix(1.00,0.01,-0.01,1.00,54.1,81.1)" fill="#868686" fill-rule="nonzero" d="M.0,2.1L3.6,.0L8.0,1.3L4.3,3.4L.0,2.1z" id="shape83"/><path transform="matrix(1.00,0.01,-0.01,1.00,59.3,82.6)" fill="#868686" fill-rule="nonzero" d="M.0,2.1L3.6,.0L8.0,1.3L4.3,3.4L.0,2.1z" id="shape84"/><path transform="matrix(1.00,0.01,-0.01,1.00,64.7,84.1)" fill="#868686" fill-rule="nonzero" d="M.0,2.1L3.6,.0L8.0,1.3L4.3,3.4L.0,2.1z" id="shape85"/><path transform="matrix(1.00,0.01,-0.01,1.00,70.5,85.7)" fill="#868686" fill-rule="nonzero" d="M.0,2.2L3.6,.0L8.0,1.4L4.3,3.5L.0,2.2z" id="shape86"/><path transform="matrix(1.00,0.01,-0.01,1.00,76.2,87.2)" fill="#868686" fill-rule="nonzero" d="M.0,2.3L3.4,.0L8.1,1.4L4.3,3.5L.0,2.3z" id="shape87"/><path transform="matrix(1.00,0.01,-0.01,1.00,81.9,88.9)" fill="#868686" fill-rule="nonzero" d="M.0,2.1L3.4,.0L8.1,1.2L4.3,3.4L.0,2.1z" id="shape88"/><path transform="matrix(1.00,0.01,-0.01,1.00,87.3,90.3)" fill="#868686" fill-rule="nonzero" d="M.0,2.3L3.4,.0L8.1,1.2L4.3,3.5L.0,2.3z" id="shape89"/><path transform="matrix(1.00,0.01,-0.01,1.00,92.9,91.9)" fill="#868686" fill-rule="nonzero" d="M.0,2.3L3.6,.0L8.4,1.2L4.3,3.6L.0,2.3z" id="shape90"/><path transform="matrix(1.00,0.01,-0.01,1.00,98.7,93.4)" fill="#868686" fill-rule="nonzero" d="M.0,2.5L3.6,.0L8.7,1.5L4.9,3.9L.0,2.5z" id="shape91"/><path transform="matrix(1.00,0.01,-0.01,1.00,104.5,95.2)" fill="#868686" fill-rule="nonzero" d="M.0,2.5L3.5,.0L8.5,1.3L5.0,4.0L.0,2.5z" id="shape92"/><path transform="matrix(1.00,0.01,-0.01,1.00,110.4,97.0)" fill="#868686" fill-rule="nonzero" d="M.0,2.5L3.5,.0L8.7,1.5L5.0,4.0L.0,2.5z" id="shape93"/><path transform="matrix(1.00,0.01,-0.01,1.00,116.2,98.7)" fill="#868686" fill-rule="nonzero" d="M.0,2.5L3.9,.0L8.8,1.4L5.0,4.0L.0,2.5z" id="shape94"/><path transform="matrix(1.00,0.02,-0.02,1.00,34.2,83.0)" fill="#868686" fill-rule="nonzero" d="M.0,2.1L3.6,.0L8.3,1.6L4.6,3.6L.0,2.1z" id="shape95"/><path transform="matrix(1.00,0.02,-0.02,1.00,39.7,84.7)" fill="#868686" fill-rule="nonzero" d="M.0,2.1L3.6,.0L8.0,1.3L4.3,3.4L.0,2.1z" id="shape96"/><path transform="matrix(1.00,0.02,-0.02,1.00,45.2,86.3)" fill="#868686" fill-rule="nonzero" d="M.0,2.1L3.6,.0L8.0,1.3L4.3,3.4L.0,2.1z" id="shape97"/><path transform="matrix(1.00,0.02,-0.02,1.00,50.3,87.8)" fill="#868686" fill-rule="nonzero" d="M.0,2.1L3.6,.0L8.0,1.3L4.3,3.4L.0,2.1z" id="shape98"/><path transform="matrix(1.00,0.02,-0.02,1.00,55.8,89.4)" fill="#868686" fill-rule="nonzero" d="M.0,2.1L3.6,.0L8.0,1.3L4.3,3.4L.0,2.1z" id="shape99"/><path transform="matrix(1.00,0.02,-0.02,1.00,61.4,91.1)" fill="#868686" fill-rule="nonzero" d="M.0,2.2L3.6,.0L8.0,1.4L4.3,3.5L.0,2.2z" id="shape100"/><path transform="matrix(1.00,0.02,-0.02,1.00,67.1,92.6)" fill="#868686" fill-rule="nonzero" d="M.0,2.3L3.4,.0L8.0,1.4L4.3,3.5L.0,2.3z" id="shape101"/><path transform="matrix(1.00,0.02,-0.02,1.00,72.9,94.3)" fill="#868686" fill-rule="nonzero" d="M.0,2.1L3.4,.0L8.0,1.2L4.3,3.3L.0,2.1z" id="shape102"/><path transform="matrix(1.00,0.02,-0.02,1.00,78.2,95.9)" fill="#868686" fill-rule="nonzero" d="M.0,2.3L3.4,.0L8.0,1.2L4.3,3.5L.0,2.3z" id="shape103"/><path transform="matrix(1.00,0.02,-0.02,1.00,83.8,97.5)" fill="#868686" fill-rule="nonzero" d="M.0,2.3L3.6,.0L8.3,1.2L4.3,3.6L.0,2.3z" id="shape104"/><path transform="matrix(1.00,0.02,-0.02,1.00,89.5,99.1)" fill="#868686" fill-rule="nonzero" d="M.0,2.5L3.5,.0L8.6,1.5L4.9,3.9L.0,2.5z" id="shape105"/><path transform="matrix(1.00,0.02,-0.02,1.00,95.5,100.9)" fill="#868686" fill-rule="nonzero" d="M.0,2.5L3.5,.0L8.8,1.6L5.3,4.0L.0,2.5z" id="shape106"/><path transform="matrix(1.00,0.02,-0.02,1.00,101.6,102.7)" fill="#868686" fill-rule="nonzero" d="M.0,2.5L3.5,.0L9.1,1.5L5.0,4.0L.0,2.5z" id="shape107"/><path transform="matrix(1.00,0.02,-0.02,1.00,107.1,104.7)" fill="#868686" fill-rule="nonzero" d="M.0,2.5L4.2,.0L9.2,1.3L5.1,4.2L.0,2.5z" id="shape108"/><path transform="matrix(1.00,0.02,-0.02,1.00,29.5,85.4)" fill="#868686" fill-rule="nonzero" d="M.0,2.1L3.6,.0L8.8,1.7L5.5,3.6L.0,2.1z" id="shape109"/><path transform="matrix(1.00,0.02,-0.02,1.00,35.3,87.4)" fill="#868686" fill-rule="nonzero" d="M.0,2.1L3.6,.0L8.0,1.3L4.3,3.4L.0,2.1z" id="shape110"/><path transform="matrix(1.00,0.02,-0.02,1.00,40.7,88.9)" fill="#868686" fill-rule="nonzero" d="M.0,2.1L3.6,.0L8.0,1.3L4.3,3.4L.0,2.1z" id="shape111"/><path transform="matrix(1.00,0.02,-0.02,1.00,45.9,90.5)" fill="#868686" fill-rule="nonzero" d="M.0,2.1L3.6,.0L8.0,1.3L4.3,3.4L.0,2.1z" id="shape112"/><path transform="matrix(1.00,0.02,-0.02,1.00,51.3,91.9)" fill="#868686" fill-rule="nonzero" d="M.0,2.2L3.8,.0L30.6,7.4L26.8,9.8L.0,2.2z" id="shape113"/><path transform="matrix(1.00,0.02,-0.02,1.00,79.3,100.2)" fill="#868686" fill-rule="nonzero" d="M.0,2.3L3.6,.0L8.3,1.2L4.3,3.6L.0,2.3z" id="shape114"/><path transform="matrix(1.00,0.02,-0.02,1.00,85.0,101.8)" fill="#868686" fill-rule="nonzero" d="M.0,2.5L3.5,.0L8.6,1.5L4.9,3.9L.0,2.5z" id="shape115"/><path transform="matrix(1.00,0.02,-0.02,1.00,91.1,103.6)" fill="#868686" fill-rule="nonzero" d="M.0,2.5L3.5,.0L8.6,1.3L5.0,4.0L.0,2.5z" id="shape116"/><path transform="matrix(1.00,0.02,-0.02,1.00,97.2,105.5)" fill="#868686" fill-rule="nonzero" d="M.0,2.5L3.5,.0L8.8,1.4L5.0,4.0L.0,2.5z" id="shape117"/><path transform="matrix(1.00,0.02,-0.02,1.00,102.6,107.4)" fill="#868686" fill-rule="nonzero" d="M.0,2.5L3.8,.0L9.2,1.6L5.3,4.3L.0,2.5z" id="shape118"/><path transform="translate(35.14,97.61)" fill="#eaeaea" fill-rule="nonzero" d="M.0,6.7C-0.6,5.9,11.7,.0,12.2,.0C12.8,.0,34.0,6.5,35.5,6.9C36.9,7.3,26.3,14.4,24.8,14.9C23.4,15.4,.7,7.5,.0,6.7z" id="shape119"/><path transform="translate(35.09,97.73)" fill="#666666" fill-rule="nonzero" d="M.0,6.6C-0.6,5.8,11.8,.0,12.3,.0C12.8,.0,18.5,1.7,19.9,2.0C21.3,2.4,9.8,10.4,8.4,9.9C7.0,9.4,.7,7.3,.0,6.6z" fill-opacity="0.16" id="shape120"/><path transform="translate(36.63,98.26)" fill="#b5b5b5" fill-rule="nonzero" d="M.0,5.9C-0.6,5.1,10.4,.0,10.9,.0C11.4,.0,31.2,6.1,32.6,6.5C33.9,6.8,24.6,13.1,23.2,13.6C21.9,14.1,.6,6.6,.0,5.9z" id="shape121"/><path transform="translate(51.12,0.89)" fill="#ffffff" fill-rule="nonzero" d="M19.6,.0C17.5,-0.3,15.7,2.0,15.4,4.4C15.2,6.2,.2,64.8,.2,64.8C.2,64.8,-1.0,67.9,2.0,68.8C3.1,69.1,14.4,72.3,28.8,76.3C32.1,77.2,69.6,10.3,69.6,10.3C69.6,10.3,20.2,.0,19.6,.0z" fill-opacity="0.11" id="shape122"/><path transform="translate(113.27,13.64)" fill="#717070" fill-rule="nonzero" d="M-0.0,.6C-0.0,.3,.3,-0.0,.7,-0.0C1.1,-0.0,1.5,.3,1.5,.6C1.5,.9,1.1,1.2,.7,1.2C.3,1.2,-0.0,.9,-0.0,.6z" id="shape123"/><g transform="matrix(1.00,0.07,-0.07,1.00,93.9,75.6)" id="group124"><path transform="translate(-0.11,0.68)" fill="#000000" fill-rule="nonzero" d="M1.8,.2C1.2,-0.4,.1,.5,.1,1.2C.1,2.0,.5,3.0,1.1,2.9C1.8,2.8,1.5,2.8,2.1,3.1C2.7,3.4,3.3,2.5,3.3,2.3C3.3,2.2,2.7,2.0,2.8,1.4C3.0,.8,3.5,.9,3.6,.8C3.7,.6,3.1,-0.1,2.3,.5C2.0,.7,1.8,.2,1.8,.2z" id="shape125"/><path stroke="#000000" transform="translate(2.22,-0.02)" fill="#000000" fill-rule="nonzero" d="M.0,.4C.8,-0.2,1.2,-0.1,.6,.4C.0,.9,.0,.4,.0,.4z" id="shape126" stroke-width="1"/></g><path transform="translate(60.04,8.48)" fill="url(#lg6)" fill-rule="nonzero" d="M34.4,4.2C34.4,4.2,35.9,25.4,25.8,39.2C15.7,53.0,.0,56.4,.0,56.4C.0,56.4,15.0,39.2,15.0,27.5C15.0,15.9,13.9,.0,13.9,.0L34.4,4.2z" id="shape127"/><path transform="translate(81.30,11.80)" fill="url(#lg7)" fill-rule="nonzero" d="M14.1,1.1C14.1,1.1,20.2,12.8,22.7,22.2C25.7,34.0,25.1,57.1,25.1,57.1L.0,57.1C.0,57.1,11.4,35.4,11.4,27.1C11.4,18.8,7.5,.0,7.9,.0L14.1,1.1z" id="shape128"/><path transform="translate(67.04,20.82)" fill="url(#lg8)" fill-rule="nonzero" d="M.0,45.0C.0,45.0,9.2,39.4,21.3,26.7C36.5,10.6,61.2,.0,61.2,.0C61.2,.0,91.0,6.2,91.5,7.0C92.0,9.5,89.2,16.3,87.3,24.0C85.3,32.2,84.4,35.1,85.0,35.3C85.5,35.5,77.2,42.1,48.4,42.1C32.2,42.1,11.3,49.3,11.3,49.3L.0,49.9L.0,45.0z" id="shape129"/><path transform="translate(69.42,25.89)" fill="url(#lg9)" fill-rule="nonzero" d="M.0,41.4C.0,41.4,2.4,35.9,36.5,19.4C70.6,3.0,83.6,.0,83.6,.0L84.2,19.8C84.2,19.8,46.3,29.5,34.9,33.5C23.4,37.5,9.5,41.4,9.5,41.4L.0,41.4z" id="shape130"/><path transform="translate(87.32,22.53)" fill="url(#lg10)" fill-rule="nonzero" d="M49.8,1.0C49.8,1.0,22.8,20.7,13.0,33.2C3.2,45.7,.0,49.9,.0,49.9L30.2,49.9C30.2,49.9,36.3,27.0,44.7,15.2C53.0,3.4,55.7,.0,55.7,.0L49.8,1.0z" id="shape131"/></g><g transform="translate(495.29,463.00)" id="group132"><g transform="translate(-0.02,4.71)" id="group133"><path stroke="#000000" fill="url(#lg11)" fill-rule="nonzero" d="M.4,.0L38.0,.0C38.2,.0,38.4,.2,38.4,.4L38.4,84.5C38.4,84.7,38.2,84.9,38.0,84.9L.4,84.9C.2,84.9,.0,84.7,.0,84.5L.0,.4C.0,.2,.2,.0,.4,.0z" id="shape134" stroke-width="1"/><path stroke="#7e7e7e" transform="translate(2.60,2.55)" fill="url(#lg12)" fill-rule="nonzero" d="M.4,.0L16.5,.0C16.7,.0,16.9,.2,16.9,.4L16.9,50.5C16.9,50.7,16.7,50.9,16.5,50.9L.4,50.9C.2,50.9,.0,50.7,.0,50.5L.0,.4C.0,.2,.2,.0,.4,.0z" id="shape135" stroke-width="1"/><path stroke="#7e7e7e" transform="translate(2.60,53.47)" fill="url(#lg13)" fill-rule="nonzero" d="M.4,.0L16.5,.0C16.7,.0,16.9,.2,16.9,.5L16.9,28.4C16.9,28.6,16.7,28.9,16.5,28.9L.4,28.9C.2,28.9,.0,28.6,.0,28.4L.0,.5C.0,.2,.2,.0,.4,.0z" id="shape136" stroke-width="1"/><path stroke="#7e7e7e" transform="translate(19.38,2.55)" fill="url(#lg14)" fill-rule="nonzero" d="M.4,.0L15.7,.0C16.0,.0,16.1,.2,16.1,.4L16.1,79.3C16.1,79.6,16.0,79.8,15.7,79.8L.4,79.8C.2,79.8,.0,79.6,.0,79.3L.0,.4C.0,.2,.2,.0,.4,.0z" id="shape137" stroke-width="1"/><path transform="translate(0.23,0.07)" fill="url(#lg15)" fill-rule="nonzero" d="M.0,.0L24.6,.0L17.4,84.7L.1,84.7L.0,.0z" id="shape138"/><g transform="translate(25.26,51.96)" id="group139"><path stroke="#000000" fill="url(#rg1)" fill-rule="nonzero" d="M.0,3.1C.0,1.4,1.4,.0,3.1,.0C4.8,.0,6.1,1.4,6.1,3.1C6.1,4.8,4.8,6.1,3.1,6.1C1.4,6.1,.0,4.8,.0,3.1z" id="shape140" stroke-width="1"/><path transform="translate(0.68,0.68)" fill="url(#lg16)" fill-rule="nonzero" d="M.0,2.4C.0,1.1,1.1,.0,2.4,.0C3.7,.0,4.8,1.1,4.8,2.4C4.8,3.7,3.7,4.8,2.4,4.8C1.1,4.8,.0,3.7,.0,2.4z" id="shape141"/><path transform="translate(0.68,0.68)" fill="url(#lg17)" fill-rule="nonzero" d="M.0,2.4C.0,1.1,1.1,.0,2.4,.0C3.7,.0,4.8,1.1,4.8,2.4C4.8,3.7,3.7,4.8,2.4,4.8C1.1,4.8,.0,3.7,.0,2.4z" id="shape142"/><g transform="translate(1.97,1.49)" id="group143"><path transform="translate(0.92,0.00)" fill="#ff4500" fill-rule="nonzero" d="M.2,-0.0L.2,-0.0C.3,-0.0,.4,.1,.4,.2L.4,1.4C.4,1.5,.3,1.5,.2,1.5L.2,1.5C.1,1.5,-0.0,1.5,-0.0,1.4L-0.0,.2C-0.0,.1,.1,-0.0,.2,-0.0z" id="shape144"/><path transform="translate(0.00,0.63)" fill="#ff4500" fill-rule="nonzero" d="M.7,.3C.9,.3,.7,-0.1,.6,.0C.5,.1,.0,.3,.0,.9C-0.0,1.6,.5,2.1,1.1,2.1C1.7,2.1,2.2,1.7,2.2,1.0C2.2,.2,1.4,-0.0,1.4,.0C1.3,.1,1.3,.2,1.5,.3C1.7,.4,1.8,.8,1.8,1.0C1.8,1.2,1.8,1.7,1.1,1.7C.4,1.7,.3,1.2,.3,1.0C.3,.8,.4,.4,.7,.3z" id="shape145"/></g></g></g><g transform="translate(143.42,85.81)" id="group146"><path transform="translate(0.48,-0.02)" fill="url(#rg2)" fill-rule="nonzero" d="M.0,3.1C.6,1.7,2.5,.7,3.6,.4C4.7,.1,6.8,-0.2,8.4,.3C9.7,.6,11.1,1.5,11.8,3.3C12.1,4.2,12.3,5.7,12.0,6.4C11.8,6.9,10.3,7.7,8.0,7.6C5.1,7.4,3.3,6.4,3.3,6.4C3.3,6.4,2.6,3.4,1.8,2.8C1.3,2.4,.5,2.3,.0,3.1z" id="shape147"/><path transform="translate(0.07,2.37)" fill="url(#lg18)" fill-rule="nonzero" d="M.0,1.9C.0,1.9,2.9,3.7,3.7,4.0C3.5,3.1,3.1,.3,1.6,.1C.3,-0.3,.0,1.9,.0,1.9z" id="shape148"/><path transform="translate(4.58,1.63)" fill="url(#rg3)" fill-rule="nonzero" d="M1.5,.0C.7,.0,.0,.6,.0,1.3C.0,2.0,.7,2.6,1.5,2.6C2.4,2.6,3.0,2.0,3.0,1.3C3.0,.6,2.4,.0,1.5,.0z" id="shape149"/></g><g transform="translate(49.38,85.09)" id="group150"><path transform="translate(-0.01,0.71)" fill="url(#lg19)" fill-rule="nonzero" d="M1.6,.0C1.6,.0,.6,2.5,.2,4.1C.0,5.7,-0.3,8.0,.6,8.2C.6,8.2,87.0,8.2,87.0,8.2C87.6,7.8,88.3,7.6,87.0,4.4C85.6,1.3,83.0,.0,83.0,.0L1.6,.0z" id="shape151"/><path transform="translate(0.19,0.74)" fill="url(#rg4)" fill-rule="nonzero" d="M1.6,.1C1.6,.1,.6,2.3,.2,3.8C.0,5.3,-0.3,7.3,.6,7.5C.6,7.5,86.3,7.5,86.3,7.5C86.9,7.2,87.6,7.0,86.3,4.1C85.0,1.2,83.1,.0,83.1,.0L1.6,.1z" id="shape152"/><g transform="translate(70.03,0.64)" id="group153"><path transform="translate(0.01,0.01)" fill="url(#lg20)" fill-rule="nonzero" d="M.1,1.8L4.0,1.9L3.0,.0L.4,.0L-0.0,1.0L.1,1.8z" id="shape154"/><path transform="translate(3.21,0.06)" fill="url(#lg20)" fill-rule="nonzero" d="M.0,1.8L4.3,1.8L3.5,.0L.8,.0L.0,1.8z" id="shape155"/><path transform="translate(6.81,0.06)" fill="url(#lg20)" fill-rule="nonzero" d="M-0.0,1.8L4.0,1.8L3.0,.0L.6,.0L-0.0,1.8z" id="shape156"/><path transform="translate(10.14,0.03)" fill="url(#lg20)" fill-rule="nonzero" d="M.0,1.8L3.7,1.8L3.0,.0L.6,.0L.0,1.8z" id="shape157"/></g><g transform="translate(57.29,0.07)" id="group158"><path transform="translate(-0.01,-0.02)" fill="url(#lg20)" fill-rule="nonzero" d="M.1,1.8L3.9,1.9L2.9,.0L.4,.0L.0,.9L.1,1.8z" id="shape159"/><path transform="translate(3.11,0.03)" fill="url(#lg20)" fill-rule="nonzero" d="M.0,1.8L4.3,1.8L3.5,.0L.8,.0L.0,1.8z" id="shape160"/><path transform="translate(6.71,0.03)" fill="url(#lg20)" fill-rule="nonzero" d="M-0.0,1.8L4.0,1.8L3.0,.0L.6,.0L-0.0,1.8z" id="shape161"/></g><g transform="translate(57.26,0.35)" id="group162"><path transform="translate(-0.02,0.01)" fill="url(#lg21)" fill-rule="nonzero" d="M.0,1.3L3.7,1.3L3.3,.0L.5,.0L.0,1.3z" id="shape163"/><path transform="translate(3.68,0.02)" fill="url(#lg21)" fill-rule="nonzero" d="M.0,1.3L3.5,1.3L3.1,.0L.4,.0L.0,1.3z" id="shape164"/><path transform="translate(7.13,0.01)" fill="url(#lg21)" fill-rule="nonzero" d="M.0,1.3L3.2,1.3L2.8,.0L.4,.0L.0,1.3z" id="shape165"/></g><g transform="translate(2.33,0.05)" id="group166"><g transform="translate(38.49,0.00)" id="group167"><path transform="translate(6.93,-0.01)" fill="url(#lg20)" fill-rule="nonzero" d="M.0,1.8L4.4,1.8L3.4,.0L.9,.0L.0,1.8z" id="shape168"/><path transform="translate(10.54,-0.01)" fill="url(#lg20)" fill-rule="nonzero" d="M.0,1.8L4.4,1.8L3.4,.0L.9,.0L.0,1.8z" id="shape169"/><path transform="translate(0.01,0.01)" fill="url(#lg20)" fill-rule="nonzero" d="M.0,1.8L4.4,1.8L3.4,.0L.9,.0L.0,1.8z" id="shape170"/><path transform="translate(3.62,0.01)" fill="url(#lg20)" fill-rule="nonzero" d="M.0,1.8L4.4,1.8L3.4,.0L.9,.0L.0,1.8z" id="shape171"/></g><g transform="translate(22.73,0.00)" id="group172"><path transform="translate(6.93,-0.01)" fill="url(#lg20)" fill-rule="nonzero" d="M.0,1.8L4.4,1.8L3.4,.0L.9,.0L.0,1.8z" id="shape173"/><path transform="translate(10.54,-0.01)" fill="url(#lg20)" fill-rule="nonzero" d="M.0,1.8L4.4,1.8L3.4,.0L.9,.0L.0,1.8z" id="shape174"/><path transform="translate(0.01,0.01)" fill="url(#lg20)" fill-rule="nonzero" d="M.0,1.8L4.4,1.8L3.4,.0L.9,.0L.0,1.8z" id="shape175"/><path transform="translate(3.62,0.01)" fill="url(#lg20)" fill-rule="nonzero" d="M.0,1.8L4.4,1.8L3.4,.0L.9,.0L.0,1.8z" id="shape176"/></g><g transform="translate(6.60,0.00)" id="group177"><path transform="translate(6.93,-0.01)" fill="url(#lg20)" fill-rule="nonzero" d="M.0,1.8L4.4,1.8L3.4,.0L.9,.0L.0,1.8z" id="shape178"/><path transform="translate(10.54,-0.01)" fill="url(#lg20)" fill-rule="nonzero" d="M.0,1.8L4.4,1.8L3.4,.0L.9,.0L.0,1.8z" id="shape179"/><path transform="translate(0.01,0.01)" fill="url(#lg20)" fill-rule="nonzero" d="M.0,1.8L4.4,1.8L3.4,.0L.9,.0L.0,1.8z" id="shape180"/><path transform="translate(3.62,0.01)" fill="url(#lg20)" fill-rule="nonzero" d="M.0,1.8L4.4,1.8L3.4,.0L.9,.0L.0,1.8z" id="shape181"/></g><path transform="translate(-0.01,-0.01)" fill="url(#lg20)" fill-rule="nonzero" d="M-0.0,1.8L3.5,1.8L3.4,.9L3.0,.0L.6,.0L-0.0,1.8z" id="shape182"/></g><g transform="translate(2.44,0.41)" id="group183"><path transform="translate(0.02,0.00)" fill="url(#lg21)" fill-rule="nonzero" d="M.0,1.5L3.2,1.5L2.8,.0L.4,.0L.0,1.5z" id="shape184"/><g transform="translate(7.18,0.00)" id="group185"><path transform="translate(0.00,0.02)" fill="url(#lg21)" fill-rule="nonzero" d="M.0,1.5L3.4,1.5L2.9,.0L.4,.0L.0,1.5z" id="shape186"/><path transform="translate(3.45,0.02)" fill="url(#lg21)" fill-rule="nonzero" d="M.0,1.5L3.1,1.5L2.7,.0L.4,.0L.0,1.5z" id="shape187"/><path transform="translate(6.94,0.02)" fill="url(#lg21)" fill-rule="nonzero" d="M.0,1.5L3.4,1.5L2.9,.0L.4,.0L.0,1.5z" id="shape188"/><path transform="translate(10.34,0.02)" fill="url(#lg21)" fill-rule="nonzero" d="M.0,1.5L3.4,1.5L3.0,.0L.4,.0L.0,1.5z" id="shape189"/></g><g transform="translate(23.27,-0.01)" id="group190"><path transform="translate(0.00,0.02)" fill="url(#lg21)" fill-rule="nonzero" d="M.0,1.5L3.4,1.5L2.9,.0L.4,.0L.0,1.5z" id="shape191"/><path transform="translate(3.45,0.02)" fill="url(#lg21)" fill-rule="nonzero" d="M.0,1.5L3.1,1.5L2.7,.0L.4,.0L.0,1.5z" id="shape192"/><path transform="translate(6.94,0.02)" fill="url(#lg21)" fill-rule="nonzero" d="M.0,1.5L3.4,1.5L2.9,.0L.4,.0L.0,1.5z" id="shape193"/><path transform="translate(10.34,0.02)" fill="url(#lg21)" fill-rule="nonzero" d="M.0,1.5L3.4,1.5L3.0,.0L.4,.0L.0,1.5z" id="shape194"/></g><g transform="translate(39.08,0.00)" id="group195"><path transform="translate(0.00,0.02)" fill="url(#lg21)" fill-rule="nonzero" d="M.0,1.5L3.4,1.5L2.9,.0L.4,.0L.0,1.5z" id="shape196"/><path transform="translate(3.45,0.02)" fill="url(#lg21)" fill-rule="nonzero" d="M.0,1.5L3.1,1.5L2.7,.0L.4,.0L.0,1.5z" id="shape197"/><path transform="translate(6.94,0.02)" fill="url(#lg21)" fill-rule="nonzero" d="M.0,1.5L3.4,1.5L2.9,.0L.4,.0L.0,1.5z" id="shape198"/><path transform="translate(10.34,0.02)" fill="url(#lg21)" fill-rule="nonzero" d="M.0,1.5L3.4,1.5L3.0,.0L.4,.0L.0,1.5z" id="shape199"/></g></g><g transform="translate(1.97,0.93)" id="group200"><path transform="translate(-0.04,-0.01)" fill="url(#lg20)" fill-rule="nonzero" d="M.0,1.8L3.8,1.8L3.0,.0L.8,.0L.0,1.8z" id="shape201"/><path transform="translate(2.84,-0.01)" fill="url(#lg20)" fill-rule="nonzero" d="M.0,1.8L4.6,1.8L3.6,.0L1.0,.0L.0,1.8z" id="shape202"/><path transform="translate(6.67,-0.02)" fill="url(#lg20)" fill-rule="nonzero" d="M.0,1.8L4.6,1.8L3.6,.0L1.0,.0L.0,1.8z" id="shape203"/><path transform="translate(10.26,-0.02)" fill="url(#lg20)" fill-rule="nonzero" d="M.0,1.8L4.5,1.8L3.6,.0L.9,.0L.0,1.8z" id="shape204"/><path transform="translate(13.80,-0.02)" fill="url(#lg20)" fill-rule="nonzero" d="M.0,1.8L4.6,1.8L3.6,.0L1.0,.0L.0,1.8z" id="shape205"/><path transform="translate(17.51,-0.02)" fill="url(#lg20)" fill-rule="nonzero" d="M.0,1.8L4.6,1.8L3.6,.0L1.0,.0L.0,1.8z" id="shape206"/><path transform="translate(21.26,-0.02)" fill="url(#lg20)" fill-rule="nonzero" d="M.0,1.8L4.6,1.8L3.6,.0L1.0,.0L.0,1.8z" id="shape207"/><path transform="translate(24.86,-0.02)" fill="url(#lg20)" fill-rule="nonzero" d="M.0,1.8L4.5,1.8L3.6,.0L.9,.0L.0,1.8z" id="shape208"/><path transform="translate(28.54,-0.02)" fill="url(#lg20)" fill-rule="nonzero" d="M.0,1.8L4.6,1.8L3.6,.0L.9,.0L.0,1.8z" id="shape209"/><path transform="translate(32.20,0.01)" fill="url(#lg20)" fill-rule="nonzero" d="M.0,1.8L4.4,1.8L3.4,.0L.9,.0L.0,1.8z" id="shape210"/><path transform="translate(35.73,0.01)" fill="url(#lg20)" fill-rule="nonzero" d="M.0,1.8L4.4,1.8L3.4,.0L.9,.0L.0,1.8z" id="shape211"/><path transform="translate(39.31,0.01)" fill="url(#lg20)" fill-rule="nonzero" d="M.0,1.8L4.4,1.8L3.4,.0L.9,.0L.0,1.8z" id="shape212"/><path transform="translate(42.73,0.01)" fill="url(#lg20)" fill-rule="nonzero" d="M.0,1.8L4.3,1.8L3.4,.0L.9,.0L.0,1.8z" id="shape213"/><path transform="translate(46.23,0.01)" fill="url(#lg20)" fill-rule="nonzero" d="M.0,1.8L4.4,1.8L3.4,.0L.9,.0L.0,1.8z" id="shape214"/></g><g transform="translate(2.13,1.24)" id="group215"><path transform="translate(43.32,0.04)" fill="url(#lg21)" fill-rule="nonzero" d="M.0,1.5L3.6,1.5L3.0,.0L.4,.0L.0,1.5z" id="shape216"/><path transform="translate(46.87,0.07)" fill="url(#lg21)" fill-rule="nonzero" d="M.0,1.5L3.6,1.5L3.0,.0L.4,.0L.0,1.5z" id="shape217"/><path transform="translate(-0.01,0.06)" fill="url(#lg21)" fill-rule="nonzero" d="M-0.0,1.5L2.9,1.4L2.6,.0L.3,.0L-0.0,1.5z" id="shape218"/><g transform="translate(3.26,0.02)" id="group219"><path transform="translate(0.01,0.04)" fill="url(#lg21)" fill-rule="nonzero" d="M.0,1.5L3.5,1.5L3.1,.0L.4,.0L.0,1.5z" id="shape220"/><path transform="translate(3.75,0.05)" fill="url(#lg21)" fill-rule="nonzero" d="M.0,1.5L3.5,1.5L3.0,.0L.4,.0L.0,1.5z" id="shape221"/><path transform="translate(7.45,0.05)" fill="url(#lg21)" fill-rule="nonzero" d="M.0,1.5L3.5,1.5L3.1,.0L.4,.0L.0,1.5z" id="shape222"/><path transform="translate(11.03,0.06)" fill="url(#lg21)" fill-rule="nonzero" d="M.0,1.5L3.5,1.5L3.0,.0L.4,.0L.0,1.5z" id="shape223"/><path transform="translate(14.57,0.05)" fill="url(#lg21)" fill-rule="nonzero" d="M.0,1.5L3.5,1.5L3.1,.0L.4,.0L.0,1.5z" id="shape224"/><path transform="translate(18.30,0.06)" fill="url(#lg21)" fill-rule="nonzero" d="M.0,1.5L3.5,1.5L3.0,.0L.4,.0L.0,1.5z" id="shape225"/><path transform="translate(21.89,0.03)" fill="url(#lg21)" fill-rule="nonzero" d="M.0,1.5L3.5,1.5L2.9,.0L.4,.0L.0,1.5z" id="shape226"/><path transform="translate(25.43,0.07)" fill="url(#lg21)" fill-rule="nonzero" d="M.0,1.5L3.5,1.5L3.0,.0L.4,.0L.0,1.5z" id="shape227"/><path transform="translate(29.13,-0.03)" fill="url(#lg21)" fill-rule="nonzero" d="M.0,1.5L3.5,1.5L2.9,.0L.4,.0L.0,1.5z" id="shape228"/><path transform="translate(32.67,0.02)" fill="url(#lg21)" fill-rule="nonzero" d="M.0,1.5L3.5,1.5L3.0,.0L.4,.0L.0,1.5z" id="shape229"/><path transform="translate(36.16,-0.01)" fill="url(#lg21)" fill-rule="nonzero" d="M.0,1.5L3.5,1.5L3.0,.0L.4,.0L.0,1.5z" id="shape230"/></g></g><g transform="translate(1.80,1.58)" id="group231"><path transform="translate(0.02,0.04)" fill="url(#lg20)" fill-rule="nonzero" d="M-0.0,1.7L5.9,1.8L4.8,-0.0L.5,.0L-0.0,1.7z" id="shape232"/><path transform="translate(48.68,0.02)" fill="url(#lg20)" fill-rule="nonzero" d="M.0,1.8L5.9,1.8L5.7,.9L5.4,-0.0L.7,.0L.0,1.8z" id="shape233"/><path transform="translate(4.69,0.01)" fill="url(#lg20)" fill-rule="nonzero" d="M.0,1.8L4.7,1.8L3.6,.0L1.0,.0L.0,1.8z" id="shape234"/><path transform="translate(8.42,0.01)" fill="url(#lg20)" fill-rule="nonzero" d="M.0,1.8L4.7,1.8L3.6,.0L1.0,.0L.0,1.8z" id="shape235"/><path transform="translate(12.28,0.06)" fill="url(#lg20)" fill-rule="nonzero" d="M.0,1.8L4.7,1.8L3.6,.0L1.0,.0L.0,1.8z" id="shape236"/><path transform="translate(15.90,0.06)" fill="url(#lg20)" fill-rule="nonzero" d="M.0,1.8L4.6,1.8L3.6,.0L.9,.0L.0,1.8z" id="shape237"/><path transform="translate(19.47,0.06)" fill="url(#lg20)" fill-rule="nonzero" d="M.0,1.8L4.7,1.8L3.6,.0L1.0,.0L.0,1.8z" id="shape238"/><path transform="translate(23.21,0.06)" fill="url(#lg20)" fill-rule="nonzero" d="M.0,1.8L4.7,1.8L3.6,.0L1.0,.0L.0,1.8z" id="shape239"/><path transform="translate(26.99,0.04)" fill="url(#lg20)" fill-rule="nonzero" d="M.0,1.8L4.7,1.8L3.6,.0L1.0,.0L.0,1.8z" id="shape240"/><path transform="translate(30.60,0.04)" fill="url(#lg20)" fill-rule="nonzero" d="M.0,1.8L4.6,1.8L3.6,.0L.9,.0L.0,1.8z" id="shape241"/><path transform="translate(34.31,0.05)" fill="url(#lg20)" fill-rule="nonzero" d="M.0,1.8L4.6,1.8L3.6,.0L.9,.0L.0,1.8z" id="shape242"/><path transform="translate(37.93,0.05)" fill="url(#lg20)" fill-rule="nonzero" d="M.0,1.8L4.4,1.8L3.4,.0L.9,.0L.0,1.8z" id="shape243"/><path transform="translate(41.54,0.05)" fill="url(#lg20)" fill-rule="nonzero" d="M.0,1.8L4.4,1.8L3.4,.0L.9,.0L.0,1.8z" id="shape244"/><path transform="translate(45.13,0.02)" fill="url(#lg20)" fill-rule="nonzero" d="M.0,1.8L4.4,1.8L3.4,.0L.9,.0L.0,1.8z" id="shape245"/></g><g transform="translate(1.87,1.86)" id="group246"><path transform="translate(0.01,0.08)" fill="url(#lg21)" fill-rule="nonzero" d="M-0.0,1.5L4.9,1.4L4.3,.0L.5,.0L-0.0,1.5z" id="shape247"/><path transform="translate(49.51,0.05)" fill="url(#lg21)" fill-rule="nonzero" d="M.0,1.5L4.7,1.5L4.4,-0.0L.3,.1L.0,1.5z" id="shape248"/><g transform="translate(4.94,0.03)" id="group249"><path transform="translate(0.01,0.04)" fill="url(#lg21)" fill-rule="nonzero" d="M.0,1.5L3.6,1.5L3.2,.0L.4,.0L.0,1.5z" id="shape250"/><path transform="translate(3.81,0.05)" fill="url(#lg21)" fill-rule="nonzero" d="M.0,1.5L3.6,1.5L3.0,.0L.4,.0L.0,1.5z" id="shape251"/><path transform="translate(7.57,0.05)" fill="url(#lg21)" fill-rule="nonzero" d="M.0,1.5L3.6,1.5L3.2,.0L.4,.0L.0,1.5z" id="shape252"/><path transform="translate(11.21,0.06)" fill="url(#lg21)" fill-rule="nonzero" d="M.0,1.5L3.6,1.5L3.0,.0L.4,.0L.0,1.5z" id="shape253"/><path transform="translate(14.80,0.05)" fill="url(#lg21)" fill-rule="nonzero" d="M.0,1.5L3.6,1.5L3.2,.0L.4,.0L.0,1.5z" id="shape254"/><path transform="translate(18.59,0.06)" fill="url(#lg21)" fill-rule="nonzero" d="M.0,1.5L3.6,1.5L3.0,.0L.4,.0L.0,1.5z" id="shape255"/><path transform="translate(22.24,0.03)" fill="url(#lg21)" fill-rule="nonzero" d="M.0,1.5L3.6,1.5L2.9,.0L.4,.0L.0,1.5z" id="shape256"/><path transform="translate(25.84,0.07)" fill="url(#lg21)" fill-rule="nonzero" d="M.0,1.5L3.6,1.5L3.0,.0L.4,.0L.0,1.5z" id="shape257"/><path transform="translate(29.59,-0.03)" fill="url(#lg21)" fill-rule="nonzero" d="M.0,1.5L3.6,1.5L2.9,.0L.4,.0L.0,1.5z" id="shape258"/><path transform="translate(33.19,0.02)" fill="url(#lg21)" fill-rule="nonzero" d="M.0,1.5L3.6,1.5L3.0,.0L.4,.0L.0,1.5z" id="shape259"/><path transform="translate(36.74,-0.01)" fill="url(#lg21)" fill-rule="nonzero" d="M.0,1.5L3.6,1.5L3.0,.0L.4,.0L.0,1.5z" id="shape260"/></g><path transform="translate(45.31,0.07)" fill="url(#lg21)" fill-rule="nonzero" d="M.0,1.5L3.6,1.5L2.9,.0L.4,.0L.0,1.5z" id="shape261"/></g><g transform="translate(1.80,2.20)" id="group262"><path transform="translate(-0.02,0.07)" fill="url(#lg20)" fill-rule="nonzero" d="M-0.0,1.7L6.7,1.8L5.5,-0.0L.5,.0L-0.0,1.7z" id="shape263"/><path transform="translate(45.81,0.04)" fill="url(#lg20)" fill-rule="nonzero" d="M.0,1.8L8.8,1.8L8.5,.9L8.1,-0.0L1.1,.0L.0,1.8z" id="shape264"/><g transform="translate(5.48,0.00)" id="group265"><path transform="translate(0.01,0.04)" fill="url(#lg20)" fill-rule="nonzero" d="M.0,1.8L4.7,1.8L3.6,.0L1.0,.0L.0,1.8z" id="shape266"/><path transform="translate(3.74,0.04)" fill="url(#lg20)" fill-rule="nonzero" d="M.0,1.8L4.7,1.8L3.6,.0L1.0,.0L.0,1.8z" id="shape267"/><path transform="translate(7.60,0.03)" fill="url(#lg20)" fill-rule="nonzero" d="M.0,1.8L4.7,1.8L3.6,.0L1.0,.0L.0,1.8z" id="shape268"/><path transform="translate(11.22,0.03)" fill="url(#lg20)" fill-rule="nonzero" d="M.0,1.8L4.6,1.8L3.6,.0L.9,.0L.0,1.8z" id="shape269"/><path transform="translate(14.79,0.03)" fill="url(#lg20)" fill-rule="nonzero" d="M.0,1.8L4.7,1.8L3.6,.0L1.0,.0L.0,1.8z" id="shape270"/><path transform="translate(18.52,0.03)" fill="url(#lg20)" fill-rule="nonzero" d="M.0,1.8L4.7,1.8L3.6,.0L1.0,.0L.0,1.8z" id="shape271"/><path transform="translate(22.31,0.08)" fill="url(#lg20)" fill-rule="nonzero" d="M.0,1.8L4.7,1.8L3.6,.0L1.0,.0L.0,1.8z" id="shape272"/><path transform="translate(25.92,0.08)" fill="url(#lg20)" fill-rule="nonzero" d="M.0,1.8L4.6,1.8L3.6,.0L.9,.0L.0,1.8z" id="shape273"/><path transform="translate(29.63,0.08)" fill="url(#lg20)" fill-rule="nonzero" d="M.0,1.8L4.6,1.8L3.6,.0L.9,.0L.0,1.8z" id="shape274"/><path transform="translate(33.25,0.08)" fill="url(#lg20)" fill-rule="nonzero" d="M.0,1.8L4.4,1.8L3.4,.0L.9,.0L.0,1.8z" id="shape275"/><path transform="translate(36.86,0.08)" fill="url(#lg20)" fill-rule="nonzero" d="M.0,1.8L4.4,1.8L3.4,.0L.9,.0L.0,1.8z" id="shape276"/></g></g><path transform="translate(0.89,6.42)" fill="url(#lg22)" fill-rule="nonzero" d="M.0,.0L85.4,.0L85.4,1.3L.0,1.3L.0,.0z" id="shape277"/><g transform="translate(1.87,2.55)" id="group278"><path transform="translate(0.01,0.05)" fill="url(#lg21)" fill-rule="nonzero" d="M-0.0,1.5L5.4,1.4L4.7,.0L.5,.0L-0.0,1.5z" id="shape279"/><path transform="translate(46.46,0.02)" fill="url(#lg21)" fill-rule="nonzero" d="M.0,1.5L7.9,1.5L7.4,-0.0L.6,.1L.0,1.5z" id="shape280"/><g transform="translate(6.03,0.00)" id="group281"><path transform="translate(0.01,0.04)" fill="url(#lg21)" fill-rule="nonzero" d="M.0,1.5L3.6,1.5L3.2,.0L.4,.0L.0,1.5z" id="shape282"/><path transform="translate(3.81,0.05)" fill="url(#lg21)" fill-rule="nonzero" d="M.0,1.5L3.6,1.5L3.0,.0L.4,.0L.0,1.5z" id="shape283"/><path transform="translate(7.57,0.05)" fill="url(#lg21)" fill-rule="nonzero" d="M.0,1.5L3.6,1.5L3.2,.0L.4,.0L.0,1.5z" id="shape284"/><path transform="translate(11.21,0.06)" fill="url(#lg21)" fill-rule="nonzero" d="M.0,1.5L3.6,1.5L3.0,.0L.4,.0L.0,1.5z" id="shape285"/><path transform="translate(14.80,0.05)" fill="url(#lg21)" fill-rule="nonzero" d="M.0,1.5L3.6,1.5L3.2,.0L.4,.0L.0,1.5z" id="shape286"/><path transform="translate(18.59,0.06)" fill="url(#lg21)" fill-rule="nonzero" d="M.0,1.5L3.6,1.5L3.0,.0L.4,.0L.0,1.5z" id="shape287"/><path transform="translate(22.24,0.03)" fill="url(#lg21)" fill-rule="nonzero" d="M.0,1.5L3.6,1.5L2.9,.0L.4,.0L.0,1.5z" id="shape288"/><path transform="translate(25.84,0.07)" fill="url(#lg21)" fill-rule="nonzero" d="M.0,1.5L3.6,1.5L3.0,.0L.4,.0L.0,1.5z" id="shape289"/><path transform="translate(29.59,-0.03)" fill="url(#lg21)" fill-rule="nonzero" d="M.0,1.5L3.6,1.5L2.9,.0L.4,.0L.0,1.5z" id="shape290"/><path transform="translate(33.19,0.02)" fill="url(#lg21)" fill-rule="nonzero" d="M.0,1.5L3.6,1.5L3.0,.0L.4,.0L.0,1.5z" id="shape291"/><path transform="translate(36.74,-0.01)" fill="url(#lg21)" fill-rule="nonzero" d="M.0,1.5L3.6,1.5L3.0,.0L.4,.0L.0,1.5z" id="shape292"/></g></g><g transform="translate(1.52,3.03)" id="group293"><path transform="translate(-0.01,0.06)" fill="url(#lg20)" fill-rule="nonzero" d="M.0,1.7L9.1,1.8L7.9,-0.0L.6,.0L.0,1.7z" id="shape294"/><path transform="translate(7.87,0.03)" fill="url(#lg20)" fill-rule="nonzero" d="M.0,1.8L4.7,1.8L3.6,.0L1.0,.0L.0,1.8z" id="shape295"/><path transform="translate(11.61,0.03)" fill="url(#lg20)" fill-rule="nonzero" d="M.0,1.8L4.7,1.8L3.6,.0L1.0,.0L.0,1.8z" id="shape296"/><path transform="translate(15.47,0.02)" fill="url(#lg20)" fill-rule="nonzero" d="M.0,1.8L4.7,1.8L3.6,.0L1.0,.0L.0,1.8z" id="shape297"/><path transform="translate(19.08,0.02)" fill="url(#lg20)" fill-rule="nonzero" d="M.0,1.8L4.6,1.8L3.6,.0L.9,.0L.0,1.8z" id="shape298"/><path transform="translate(22.66,0.02)" fill="url(#lg20)" fill-rule="nonzero" d="M.0,1.8L4.7,1.8L3.6,.0L1.0,.0L.0,1.8z" id="shape299"/><path transform="translate(26.39,0.02)" fill="url(#lg20)" fill-rule="nonzero" d="M.0,1.8L4.7,1.8L3.6,.0L1.0,.0L.0,1.8z" id="shape300"/><path transform="translate(30.17,0.07)" fill="url(#lg20)" fill-rule="nonzero" d="M.0,1.8L4.7,1.8L3.6,.0L1.0,.0L.0,1.8z" id="shape301"/><path transform="translate(33.79,0.07)" fill="url(#lg20)" fill-rule="nonzero" d="M.0,1.8L4.6,1.8L3.6,.0L.9,.0L.0,1.8z" id="shape302"/><path transform="translate(37.50,0.07)" fill="url(#lg20)" fill-rule="nonzero" d="M.0,1.8L4.6,1.8L3.6,.0L.9,.0L.0,1.8z" id="shape303"/><path transform="translate(41.11,0.07)" fill="url(#lg20)" fill-rule="nonzero" d="M.0,1.8L4.4,1.8L3.4,.0L.9,.0L.0,1.8z" id="shape304"/><path transform="translate(44.54,0.03)" fill="url(#lg20)" fill-rule="nonzero" d="M.0,1.8L10.5,1.8L10.2,.9L9.8,-0.0L1.1,.0L.0,1.8z" id="shape305"/></g><g transform="translate(1.45,3.31)" id="group306"><path transform="translate(8.50,0.03)" fill="url(#lg21)" fill-rule="nonzero" d="M.0,1.5L3.6,1.5L3.2,.0L.4,.0L.0,1.5z" id="shape307"/><path transform="translate(0.07,0.03)" fill="url(#lg21)" fill-rule="nonzero" d="M-0.0,1.5L8.4,1.5L7.8,-0.0L.7,.0L-0.0,1.5z" id="shape308"/><path transform="translate(12.30,0.04)" fill="url(#lg21)" fill-rule="nonzero" d="M.0,1.5L3.6,1.5L3.0,.0L.4,.0L.0,1.5z" id="shape309"/><path transform="translate(16.05,0.04)" fill="url(#lg21)" fill-rule="nonzero" d="M.0,1.5L3.6,1.5L3.2,.0L.4,.0L.0,1.5z" id="shape310"/><path transform="translate(19.69,0.05)" fill="url(#lg21)" fill-rule="nonzero" d="M.0,1.5L3.6,1.5L3.0,.0L.4,.0L.0,1.5z" id="shape311"/><path transform="translate(23.29,0.04)" fill="url(#lg21)" fill-rule="nonzero" d="M.0,1.5L3.6,1.5L3.2,.0L.4,.0L.0,1.5z" id="shape312"/><path transform="translate(27.08,0.05)" fill="url(#lg21)" fill-rule="nonzero" d="M.0,1.5L3.6,1.5L3.0,.0L.4,.0L.0,1.5z" id="shape313"/><path transform="translate(30.73,0.02)" fill="url(#lg21)" fill-rule="nonzero" d="M.0,1.5L3.6,1.5L2.9,.0L.4,.0L.0,1.5z" id="shape314"/><path transform="translate(34.33,0.06)" fill="url(#lg21)" fill-rule="nonzero" d="M.0,1.5L3.6,1.5L3.0,.0L.4,.0L.0,1.5z" id="shape315"/><path transform="translate(38.08,-0.04)" fill="url(#lg21)" fill-rule="nonzero" d="M.0,1.5L3.6,1.5L2.9,.0L.4,.0L.0,1.5z" id="shape316"/><path transform="translate(41.68,0.00)" fill="url(#lg21)" fill-rule="nonzero" d="M.0,1.5L3.6,1.5L3.0,.0L.4,.0L.0,1.5z" id="shape317"/><path transform="translate(45.01,-0.02)" fill="url(#lg21)" fill-rule="nonzero" d="M.0,1.5L9.9,1.5L9.3,-0.0L.7,.1L.0,1.5z" id="shape318"/></g><g transform="translate(1.24,4.00)" id="group319"><path transform="translate(5.34,0.00)" fill="url(#lg20)" fill-rule="nonzero" d="M-0.0,1.8L5.2,1.8L4.4,.0L.9,.0L-0.0,1.8z" id="shape320"/><path transform="translate(0.00,0.03)" fill="url(#lg20)" fill-rule="nonzero" d="M.0,1.8L6.1,1.8L5.1,-0.0L.5,.0L.0,1.8z" id="shape321"/><path transform="translate(9.91,0.00)" fill="url(#lg20)" fill-rule="nonzero" d="M.0,1.8L5.5,1.8L4.5,.0L1.0,.0L.0,1.8z" id="shape322"/><path transform="translate(14.40,0.00)" fill="url(#lg20)" fill-rule="nonzero" d="M.0,1.8L22.4,1.8L20.9,.0L1.3,.0L.0,1.8z" id="shape323"/><path transform="translate(35.79,0.02)" fill="url(#lg20)" fill-rule="nonzero" d="M-0.0,1.8L5.2,1.8L4.4,.0L.9,.0L-0.0,1.8z" id="shape324"/><path transform="translate(40.24,0.00)" fill="url(#lg20)" fill-rule="nonzero" d="M.0,1.8L5.5,1.8L4.5,.0L1.0,.0L.0,1.8z" id="shape325"/><path transform="translate(44.90,-0.00)" fill="url(#lg20)" fill-rule="nonzero" d="M-0.0,1.8L5.2,1.8L4.4,.0L.9,.0L-0.0,1.8z" id="shape326"/><path transform="translate(49.14,0.00)" fill="url(#lg20)" fill-rule="nonzero" d="M.0,1.8L6.3,1.8L5.6,.0L1.1,.0L.0,1.8z" id="shape327"/></g><path transform="translate(61.76,3.03)" fill="url(#lg20)" fill-rule="nonzero" d="M.1,1.8L4.0,1.9L3.0,.0L.4,.0L.0,.9L.1,1.8z" id="shape328"/><path transform="translate(61.87,3.41)" fill="url(#lg21)" fill-rule="nonzero" d="M.0,1.3L3.5,1.3L3.1,.0L.4,.0L.0,1.3z" id="shape329"/><g transform="translate(58.29,3.98)" id="group330"><path transform="translate(-0.01,-0.01)" fill="url(#lg20)" fill-rule="nonzero" d="M.1,1.8L4.0,1.9L3.0,.0L.4,.0L.0,.9L.1,1.8z" id="shape331"/><path transform="translate(3.20,0.04)" fill="url(#lg20)" fill-rule="nonzero" d="M.0,1.8L4.5,1.8L3.6,.0L.8,.0L.0,1.8z" id="shape332"/><path transform="translate(6.89,0.05)" fill="url(#lg20)" fill-rule="nonzero" d="M-0.0,1.8L4.1,1.8L3.7,.6L3.1,.0L.6,.0L-0.0,1.8z" id="shape333"/></g><g transform="translate(57.37,0.65)" id="group334"><path transform="translate(-0.01,-0.02)" fill="url(#lg20)" fill-rule="nonzero" d="M.1,1.8L4.1,1.9L3.0,.0L.4,.0L.0,.9L.1,1.8z" id="shape335"/><path transform="translate(3.22,0.03)" fill="url(#lg20)" fill-rule="nonzero" d="M.0,1.8L4.5,1.8L3.7,.0L.8,.0L.0,1.8z" id="shape336"/><path transform="translate(6.95,0.03)" fill="url(#lg20)" fill-rule="nonzero" d="M-0.0,1.8L4.1,1.8L3.2,.0L.7,.0L-0.0,1.8z" id="shape337"/></g><g transform="translate(57.37,1.06)" id="group338"><path transform="translate(-0.02,0.01)" fill="url(#lg21)" fill-rule="nonzero" d="M.0,1.3L3.7,1.3L3.3,.0L.4,.0L.0,1.3z" id="shape339"/><path transform="translate(3.65,0.02)" fill="url(#lg21)" fill-rule="nonzero" d="M.0,1.3L3.4,1.3L3.1,.0L.4,.0L.0,1.3z" id="shape340"/><path transform="translate(7.08,0.01)" fill="url(#lg21)" fill-rule="nonzero" d="M.0,1.3L3.7,1.3L3.3,.0L.4,.0L.0,1.3z" id="shape341"/></g><g transform="translate(57.38,1.31)" id="group342"><path transform="translate(-0.01,-0.01)" fill="url(#lg20)" fill-rule="nonzero" d="M.1,1.8L4.0,1.9L3.0,.0L.4,.0L.0,.9L.1,1.8z" id="shape343"/><path transform="translate(3.20,0.04)" fill="url(#lg20)" fill-rule="nonzero" d="M.0,1.8L4.5,1.8L3.6,.0L.8,.0L.0,1.8z" id="shape344"/><path transform="translate(6.89,0.05)" fill="url(#lg20)" fill-rule="nonzero" d="M-0.0,1.8L4.1,1.8L3.7,.6L3.1,.0L.6,.0L-0.0,1.8z" id="shape345"/></g><g transform="translate(57.47,1.86)" id="group346"><path transform="translate(-0.02,0.01)" fill="url(#lg21)" fill-rule="nonzero" d="M.0,1.3L3.7,1.3L3.3,.0L.5,.0L.0,1.3z" id="shape347"/><path transform="translate(3.68,0.02)" fill="url(#lg21)" fill-rule="nonzero" d="M.0,1.3L3.5,1.3L3.1,.0L.4,.0L.0,1.3z" id="shape348"/><path transform="translate(7.13,0.01)" fill="url(#lg21)" fill-rule="nonzero" d="M.0,1.3L3.7,1.3L3.3,.0L.5,.0L.0,1.3z" id="shape349"/></g><g transform="translate(70.19,1.03)" id="group350"><path transform="translate(-0.02,-0.00)" fill="url(#lg21)" fill-rule="nonzero" d="M.0,1.3L3.5,1.3L3.1,.0L.4,.0L.0,1.3z" id="shape351"/><path transform="translate(3.56,0.01)" fill="url(#lg21)" fill-rule="nonzero" d="M.0,1.3L3.3,1.3L2.9,.0L.4,.0L.0,1.3z" id="shape352"/><path transform="translate(7.22,-0.00)" fill="url(#lg21)" fill-rule="nonzero" d="M.0,1.3L3.0,1.2L2.5,.0L.3,.0L.0,1.3z" id="shape353"/><path transform="translate(10.35,0.03)" fill="url(#lg21)" fill-rule="nonzero" d="M.0,1.3L3.2,1.2L2.7,.0L.5,.0L.0,1.3z" id="shape354"/></g><path transform="translate(80.73,1.40)" fill="url(#lg20)" fill-rule="nonzero" d="M.0,2.6L4.3,2.5L3.0,.0L.7,.0L.0,2.6z" id="shape355"/><path transform="translate(81.47,2.70)" fill="url(#lg21)" fill-rule="nonzero" d="M.0,1.3L3.3,1.3L2.9,.0L.4,.0L.0,1.3z" id="shape356"/><g transform="translate(70.23,1.42)" id="group357"><path transform="translate(-0.01,-0.01)" fill="url(#lg20)" fill-rule="nonzero" d="M.2,1.8L4.2,1.9L3.1,.0L.6,.0L.0,.9L.2,1.8z" id="shape358"/><path transform="translate(3.37,0.04)" fill="url(#lg20)" fill-rule="nonzero" d="M.0,1.8L4.4,1.8L3.6,.0L.8,.0L.0,1.8z" id="shape359"/><path transform="translate(7.03,0.05)" fill="url(#lg20)" fill-rule="nonzero" d="M-0.0,1.8L4.0,1.8L3.1,.0L.6,.0L-0.0,1.8z" id="shape360"/></g><g transform="translate(70.51,1.85)" id="group361"><path transform="translate(-0.02,0.01)" fill="url(#lg21)" fill-rule="nonzero" d="M.0,1.3L3.7,1.3L3.3,.0L.5,.0L.0,1.3z" id="shape362"/><path transform="translate(3.68,0.02)" fill="url(#lg21)" fill-rule="nonzero" d="M.0,1.3L3.5,1.3L3.1,.0L.4,.0L.0,1.3z" id="shape363"/><path transform="translate(7.13,0.01)" fill="url(#lg21)" fill-rule="nonzero" d="M.0,1.3L3.2,1.3L2.8,.0L.4,.0L.0,1.3z" id="shape364"/></g><g transform="translate(70.46,2.23)" id="group365"><path transform="translate(0.01,0.01)" fill="url(#lg20)" fill-rule="nonzero" d="M.2,1.8L4.3,1.9L3.2,.0L.5,.0L-0.0,1.0L.2,1.8z" id="shape366"/><path transform="translate(3.44,0.06)" fill="url(#lg20)" fill-rule="nonzero" d="M.0,1.8L4.6,1.8L3.7,.0L.8,.0L.0,1.8z" id="shape367"/><path transform="translate(7.21,0.07)" fill="url(#lg20)" fill-rule="nonzero" d="M-0.0,1.8L4.2,1.8L3.2,.0L.7,.0L-0.0,1.8z" id="shape368"/></g><g transform="translate(70.72,2.67)" id="group369"><path transform="translate(-0.02,0.01)" fill="url(#lg21)" fill-rule="nonzero" d="M.0,1.3L3.7,1.3L3.3,.0L.4,.0L.0,1.3z" id="shape370"/><path transform="translate(3.65,0.02)" fill="url(#lg21)" fill-rule="nonzero" d="M.0,1.3L3.4,1.3L3.1,.0L.4,.0L.0,1.3z" id="shape371"/><path transform="translate(7.08,0.01)" fill="url(#lg21)" fill-rule="nonzero" d="M.0,1.3L3.7,1.3L3.3,.0L.4,.0L.0,1.3z" id="shape372"/></g><g transform="translate(70.80,3.03)" id="group373"><path transform="translate(-0.01,-0.01)" fill="url(#lg20)" fill-rule="nonzero" d="M.1,1.8L4.1,1.9L3.0,.0L.4,.0L.0,.9L.1,1.8z" id="shape374"/><path transform="translate(3.26,0.04)" fill="url(#lg20)" fill-rule="nonzero" d="M.0,1.8L4.5,1.8L3.7,.0L.8,.0L.0,1.8z" id="shape375"/><path transform="translate(7.02,0.05)" fill="url(#lg20)" fill-rule="nonzero" d="M-0.0,1.8L4.1,1.8L3.8,.6L3.2,.0L.7,.0L-0.0,1.8z" id="shape376"/></g><g transform="translate(71.02,3.42)" id="group377"><path transform="translate(-0.02,0.01)" fill="url(#lg21)" fill-rule="nonzero" d="M.0,1.3L3.7,1.3L3.3,.0L.5,.0L.0,1.3z" id="shape378"/><path transform="translate(3.68,0.02)" fill="url(#lg21)" fill-rule="nonzero" d="M.0,1.3L3.5,1.3L3.1,.0L.4,.0L.0,1.3z" id="shape379"/><path transform="translate(7.13,0.01)" fill="url(#lg21)" fill-rule="nonzero" d="M.0,1.3L3.7,1.3L3.3,.0L.5,.0L.0,1.3z" id="shape380"/></g><path transform="translate(81.64,3.07)" fill="url(#lg20)" fill-rule="nonzero" d="M.3,2.9L4.1,2.8L3.8,1.5L2.9,.0L.3,.0L-0.0,1.3L.3,2.9z" id="shape381"/><g transform="translate(70.81,4.06)" id="group382"><path transform="translate(0.02,0.03)" fill="url(#lg20)" fill-rule="nonzero" d="M.3,1.8L8.3,1.9L6.8,.0L1.0,.0L-0.0,.9L.3,1.8z" id="shape383"/><path transform="translate(7.26,0.00)" fill="url(#lg20)" fill-rule="nonzero" d="M.0,1.9L3.9,1.9L3.4,.1L.8,.0L.0,1.9z" id="shape384"/></g><g transform="translate(1.13,4.58)" id="group385"><path transform="translate(5.98,0.00)" fill="url(#lg21)" fill-rule="nonzero" d="M.0,1.3L4.5,1.3L4.1,.0L.6,.0L.0,1.3z" id="shape386"/><path transform="translate(0.00,0.00)" fill="url(#lg21)" fill-rule="nonzero" d="M-0.0,1.3L6.0,1.3L5.5,-0.0L.5,.0L-0.0,1.3z" id="shape387"/><path transform="translate(10.63,0.00)" fill="url(#lg21)" fill-rule="nonzero" d="M.0,1.3L4.5,1.3L4.1,.0L.6,.0L.0,1.3z" id="shape388"/><path transform="translate(15.41,-0.00)" fill="url(#lg21)" fill-rule="nonzero" d="M-0.0,1.3L20.7,1.3L20.2,.0L.5,.0L-0.0,1.3z" id="shape389"/><path transform="translate(36.23,0.00)" fill="url(#lg21)" fill-rule="nonzero" d="M.0,1.3L4.5,1.3L4.1,.0L.6,.0L.0,1.3z" id="shape390"/><path transform="translate(40.83,0.04)" fill="url(#lg21)" fill-rule="nonzero" d="M.0,1.3L4.5,1.3L4.1,.0L.6,.0L.0,1.3z" id="shape391"/><path transform="translate(45.55,0.04)" fill="url(#lg21)" fill-rule="nonzero" d="M.0,1.3L4.5,1.3L4.1,.0L.6,.0L.0,1.3z" id="shape392"/><path transform="translate(50.19,-0.01)" fill="url(#lg21)" fill-rule="nonzero" d="M-0.0,1.3L5.2,1.3L4.8,-0.0L.5,.0L-0.0,1.3z" id="shape393"/><path transform="translate(57.26,0.04)" fill="url(#lg21)" fill-rule="nonzero" d="M.0,1.3L3.7,1.3L3.3,.0L.5,.0L.0,1.3z" id="shape394"/><path transform="translate(60.96,0.00)" fill="url(#lg21)" fill-rule="nonzero" d="M.0,1.3L3.3,1.3L3.0,.0L.4,.0L.0,1.3z" id="shape395"/><path transform="translate(64.41,0.04)" fill="url(#lg21)" fill-rule="nonzero" d="M.0,1.3L3.7,1.3L3.3,.0L.5,.0L.0,1.3z" id="shape396"/><path transform="translate(70.00,0.01)" fill="url(#lg21)" fill-rule="nonzero" d="M.0,1.3L7.4,1.3L6.7,.0L.9,.0L.0,1.3z" id="shape397"/><path transform="translate(77.46,0.04)" fill="url(#lg21)" fill-rule="nonzero" d="M.0,1.3L3.3,1.3L3.0,.0L.4,.0L.0,1.3z" id="shape398"/><path transform="translate(80.87,0.01)" fill="url(#lg21)" fill-rule="nonzero" d="M.0,1.3L3.7,1.3L3.3,.0L.5,.0L.0,1.3z" id="shape399"/></g></g><g transform="translate(43.94,0.00)" id="group400"><path transform="translate(19.18,76.68)" fill="url(#lg23)" fill-rule="nonzero" d="M.0,.2L.0,2.4C.0,2.4,-0.2,3.8,1.8,3.8C5.8,4.1,16.1,4.7,29.5,4.7C43.2,4.7,51.5,4.2,54.4,4.0C55.6,4.0,55.6,2.3,55.6,2.3L55.6,.0C55.6,.0,19.2,4.7,.0,.2z" id="shape401"/><path transform="translate(19.21,74.06)" fill="url(#lg23)" fill-rule="nonzero" d="M22.8,.0C22.8,.0,4.2,.3,.2,2.6C-3.7,4.9,44.8,6.6,55.0,3.1C57.8,2.1,49.6,.0,22.8,.0z" id="shape402"/><path transform="translate(19.21,74.06)" fill="url(#lg24)" fill-rule="nonzero" d="M22.8,.0C22.8,.0,4.2,.3,.2,2.6C-3.7,4.9,44.8,6.6,55.0,3.1C57.8,2.1,49.6,.0,22.8,.0z" id="shape403"/><path stroke="#313131" transform="translate(42.64,64.39)" fill="url(#lg25)" fill-rule="nonzero" d="M.0,.0L9.5,.0L9.5,12.7L.0,12.7L.0,.0z" id="shape404" stroke-width="1"/><path stroke="#464646" transform="translate(0.87,-0.00)" fill="url(#lg11)" fill-rule="nonzero" d="M.4,.0L92.6,.0C92.8,.0,93.0,.2,93.0,.4L93.0,66.8C93.0,67.0,92.8,67.2,92.6,67.2L.4,67.2C.2,67.2,.0,67.0,.0,66.8L.0,.4C.0,.2,.2,.0,.4,.0z" id="shape405" stroke-width="1"/><path stroke="#184b6e" transform="translate(5.79,4.72)" fill="url(#lg26)" fill-rule="nonzero" d="M.0,.0L83.2,.0L83.2,57.6L.0,57.6L.0,.0z" id="shape406" stroke-width="1"/><path transform="matrix(-1.00,0.00,0.00,1.00,74.9,74.1)" fill="url(#lg27)" fill-rule="nonzero" d="M23.0,.0C23.0,.0,2.7,.4,.2,2.6C-3.3,5.6,45.0,6.6,55.2,3.1C58.0,2.1,49.8,.0,23.0,.0z" id="shape407"/></g></g><g transform="translate(501.29,326.00)" id="group408"><path transform="translate(-0.00,-0.01)" fill="url(#lg28)" fill-rule="nonzero" d="M21.7,19.8C21.7,19.8,26.1,3.7,46.1,.5C66.0,-2.7,79.4,10.4,80.8,16.4C80.8,16.4,91.0,15.4,97.2,20.2C97.2,20.2,109.7,12.8,119.8,22.8C119.8,22.8,125.0,28.3,123.8,35.6C123.8,35.6,121.7,49.1,107.1,51.4C107.1,51.4,92.3,69.1,70.3,55.9C70.3,55.9,63.8,70.4,44.9,69.8C44.9,69.8,31.1,70.2,24.8,56.2C24.8,56.2,2.2,59.7,.0,38.2C.0,38.2,-1.1,20.4,21.7,19.8z" id="shape409"/><path transform="translate(3.00,1.68)" fill="#a0d8ef" fill-rule="nonzero" d="M20.6,18.9C20.6,18.9,24.8,3.5,43.8,.5C62.8,-2.6,75.5,9.9,76.9,15.6C76.9,15.6,86.6,14.7,92.5,19.2C92.5,19.2,104.3,12.2,114.0,21.7C114.0,21.7,118.9,26.9,117.8,33.8C117.8,33.8,115.8,46.7,101.9,48.9C101.9,48.9,87.8,65.8,66.9,53.2C66.9,53.2,60.7,67.0,42.7,66.5C42.7,66.5,29.6,66.8,23.6,53.5C23.6,53.5,2.1,56.8,.0,36.3C.0,36.3,-1.1,19.4,20.6,18.9z" id="shape410"/><path transform="translate(61.90,23.35)" fill="url(#lg29)" fill-rule="nonzero" d="M13.9,13.5C13.9,13.5,19.4,-2.9,38.8,.4C38.8,.4,49.4,2.2,53.2,11.1C53.2,11.1,59.0,9.9,64.2,13.5C64.2,13.5,74.0,7.8,80.7,17.0C80.7,17.0,85.6,24.2,77.1,29.9C77.1,29.9,73.9,31.4,71.1,31.6C71.1,31.6,64.3,48.5,44.7,39.4C44.7,39.4,38.2,50.0,25.5,45.6C25.5,45.6,20.6,43.5,17.4,39.3C17.4,39.3,-0.3,38.8,.0,24.4C.0,24.4,.9,13.1,13.9,13.5z" id="shape411"/><path transform="translate(66.00,25.68)" fill="#a0d8ef" fill-rule="nonzero" d="M12.5,12.2C12.5,12.2,17.5,-2.6,34.9,.4C34.9,.4,44.5,2.0,47.9,10.0C47.9,10.0,53.1,8.9,57.7,12.1C57.7,12.1,66.6,7.0,72.6,15.3C72.6,15.3,77.1,21.8,69.4,26.9C69.4,26.9,66.5,28.2,64.0,28.5C64.0,28.5,57.9,43.7,40.3,35.5C40.3,35.5,34.4,45.0,22.9,41.0C22.9,41.0,18.5,39.1,15.6,35.4C15.6,35.4,-0.2,34.9,.0,21.9C.0,21.9,.8,11.8,12.5,12.2z" id="shape412"/></g><path stroke="#236ea1" transform="translate(573.29,326.00)" fill="none" d="M.0,.0L.0,-70.0" id="shape413" stroke-width="1"/><path stroke="#236ea1" transform="translate(573.29,396.00)" fill="none" d="M.0,.0L.0,66.0" id="shape414" stroke-width="1"/><g transform="translate(502.00,260.00)" id="shape415"><text style="fill:#1a6a7e;font-family:Times New Roman;font-size:12.00pt" xml:space="preserve"><tspan x="38.0" y="21.6">peer 1 </tspan><tspan x="3.6" y="40.0">Client/host player</tspan></text></g><g transform="translate(502.00,406.01)" id="shape416"><text style="fill:#1a6a7e;font-family:Times New Roman;font-size:12.00pt" xml:space="preserve"><tspan x="38.0" y="21.6">peer 1 </tspan><tspan x="3.6" y="40.0">Client/host player</tspan></text></g></g></svg>