<svg version="1.1" xmlns="http://www.w3.org/2000/svg" xmlns:xlink="http://www.w3.org/1999/xlink" width="664.44091796875" height="688"><defs/><g><g transform="translate(-86,-22) scale(1,1)"><rect fill="#C0C0C0" stroke="none" x="217" y="47" width="102.078125" height="44" opacity="0.2"/></g><g transform="translate(-86,-22) scale(1,1)"><rect fill="#00ff00" stroke="none" x="210" y="40" width="102.078125" height="44"/></g><g transform="translate(-86,-22) scale(1,1)"><path fill="none" stroke="#000000" d="M 210 40 L 312.078125 40 L 312.078125 84 L 210 84 L 210 40 Z Z" stroke-miterlimit="10"/></g><g transform="translate(-86,-22) scale(1,1)"><rect fill="#00ff00" stroke="none" x="200" y="47" width="20" height="10"/></g><g transform="translate(-86,-22) scale(1,1)"><path fill="none" stroke="#000000" d="M 200 47 L 220 47 L 220 57 L 200 57 L 200 47 Z Z" stroke-miterlimit="10"/></g><g transform="translate(-86,-22) scale(1,1)"><rect fill="#00ff00" stroke="none" x="200" y="67" width="20" height="10"/></g><g transform="translate(-86,-22) scale(1,1)"><path fill="none" stroke="#000000" d="M 200 67 L 220 67 L 220 77 L 200 77 L 200 67 Z Z" stroke-miterlimit="10"/></g><g transform="translate(-86,-22) scale(1,1)"><g><path fill="none" stroke="none"/><text fill="#000000" stroke="none" font-family="Arial" font-size="13px" font-style="normal" font-weight="bold" text-decoration="none" x="224.5" y="58">Game Engine</text></g></g><g transform="translate(-86,-22) scale(1,1)"><rect fill="#C0C0C0" stroke="none" x="225" y="191" width="105.708984375" height="44" opacity="0.2"/></g><g transform="translate(-86,-22) scale(1,1)"><rect fill="#00ff00" stroke="none" x="218" y="184" width="105.708984375" height="44"/></g><g transform="translate(-86,-22) scale(1,1)"><path fill="none" stroke="#000000" d="M 218 184 L 323.708984375 184 L 323.708984375 228 L 218 228 L 218 184 Z Z" stroke-miterlimit="10"/></g><g transform="translate(-86,-22) scale(1,1)"><rect fill="#00ff00" stroke="none" x="208" y="191" width="20" height="10"/></g><g transform="translate(-86,-22) scale(1,1)"><path fill="none" stroke="#000000" d="M 208 191 L 228 191 L 228 201 L 208 201 L 208 191 Z Z" stroke-miterlimit="10"/></g><g transform="translate(-86,-22) scale(1,1)"><rect fill="#00ff00" stroke="none" x="208" y="211" width="20" height="10"/></g><g transform="translate(-86,-22) scale(1,1)"><path fill="none" stroke="#000000" d="M 208 211 L 228 211 L 228 221 L 208 221 L 208 211 Z Z" stroke-miterlimit="10"/></g><g transform="translate(-86,-22) scale(1,1)"><g><path fill="none" stroke="none"/><text fill="#000000" stroke="none" font-family="Arial" font-size="13px" font-style="normal" font-weight="bold" text-decoration="none" x="232.5" y="202">User Interface</text></g></g><g transform="translate(-86,-22) scale(1,1)"><path fill="#C0C0C0" stroke="none" d="M 254.7099609375 130.5 C 254.7099609375 124.1487248 259.8586857375 119 266.2099609375 119 C 272.5612361375 119 277.7099609375 124.1487248 277.7099609375 130.5 C 277.7099609375 136.8512752 272.5612361375 142 266.2099609375 142 C 259.8586857375 142 254.7099609375 136.8512752 254.7099609375 130.5 Z" opacity="0.2"/></g><g transform="translate(-86,-22) scale(1,1)"><path fill="#00ff00" stroke="none" d="M 247.7099609375 123.5 C 247.7099609375 117.1487248 252.8586857375 112 259.2099609375 112 C 265.5612361375 112 270.7099609375 117.1487248 270.7099609375 123.5 C 270.7099609375 129.8512752 265.5612361375 135 259.2099609375 135 C 252.8586857375 135 247.7099609375 129.8512752 247.7099609375 123.5 Z"/></g><g transform="translate(-86,-22) scale(1,1)"><path fill="none" stroke="#000000" d="M 247.7099609375 123.5 C 247.7099609375 117.1487248 252.8586857375 112 259.2099609375 112 C 265.5612361375 112 270.7099609375 117.1487248 270.7099609375 123.5 C 270.7099609375 129.8512752 265.5612361375 135 259.2099609375 135 C 252.8586857375 135 247.7099609375 129.8512752 247.7099609375 123.5 Z" stroke-miterlimit="10"/></g><g transform="translate(-86,-22) scale(1,1)"><g><path fill="none" stroke="none"/><text fill="#000000" stroke="none" font-family="Arial" font-size="13px" font-style="normal" font-weight="bold" text-decoration="none" x="259.2099609375" y="148"></text></g></g><g transform="translate(-86,-22) scale(1,1)"><path fill="none" stroke="#000000" d="M 257 85 L 258.0833333333333 112" stroke-miterlimit="10"/></g><g transform="translate(-86,-22) scale(1,1)"><path fill="none" stroke="#000000" d="M 270.48410503732384 130.3955734190882 A 11.5 11.5 0 0 1 247.51589496267613 131.6044265809118" stroke-miterlimit="10"/></g><g transform="translate(-86,-22) scale(1,1)"><g><path fill="none" stroke="none"/><text fill="#000000" stroke="none" font-family="Arial" font-size="13px" font-style="normal" font-weight="bold" text-decoration="none" x="259.2099609375" y="156"></text></g></g><g transform="translate(-86,-22) scale(1,1)"><path fill="none" stroke="#000000" d="M 263 183 L 259.63157894736844 143" stroke-miterlimit="10"/></g><g transform="translate(-86,-22) scale(1,1)"><rect fill="#C0C0C0" stroke="none" x="113" y="271" width="98.44091796875" height="44" opacity="0.2"/></g><g transform="translate(-86,-22) scale(1,1)"><rect fill="#00ff00" stroke="none" x="106" y="264" width="98.44091796875" height="44"/></g><g transform="translate(-86,-22) scale(1,1)"><path fill="none" stroke="#000000" d="M 106 264 L 204.44091796875 264 L 204.44091796875 308 L 106 308 L 106 264 Z Z" stroke-miterlimit="10"/></g><g transform="translate(-86,-22) scale(1,1)"><rect fill="#00ff00" stroke="none" x="96" y="271" width="20" height="10"/></g><g transform="translate(-86,-22) scale(1,1)"><path fill="none" stroke="#000000" d="M 96 271 L 116 271 L 116 281 L 96 281 L 96 271 Z Z" stroke-miterlimit="10"/></g><g transform="translate(-86,-22) scale(1,1)"><rect fill="#00ff00" stroke="none" x="96" y="291" width="20" height="10"/></g><g transform="translate(-86,-22) scale(1,1)"><path fill="none" stroke="#000000" d="M 96 291 L 116 291 L 116 301 L 96 301 L 96 291 Z Z" stroke-miterlimit="10"/></g><g transform="translate(-86,-22) scale(1,1)"><g><path fill="none" stroke="none"/><text fill="#000000" stroke="none" font-family="Arial" font-size="13px" font-style="normal" font-weight="bold" text-decoration="none" x="125.17822265625" y="282">LocalGame</text></g></g><g transform="translate(-86,-22) scale(1,1)"><rect fill="#C0C0C0" stroke="none" x="633" y="199" width="98.44091796875" height="44" opacity="0.2"/></g><g transform="translate(-86,-22) scale(1,1)"><rect fill="#00ff00" stroke="none" x="626" y="192" width="98.44091796875" height="44"/></g><g transform="translate(-86,-22) scale(1,1)"><path fill="none" stroke="#000000" d="M 626 192 L 724.44091796875 192 L 724.44091796875 236 L 626 236 L 626 192 Z Z" stroke-miterlimit="10"/></g><g transform="translate(-86,-22) scale(1,1)"><rect fill="#00ff00" stroke="none" x="616" y="199" width="20" height="10"/></g><g transform="translate(-86,-22) scale(1,1)"><path fill="none" stroke="#000000" d="M 616 199 L 636 199 L 636 209 L 616 209 L 616 199 Z Z" stroke-miterlimit="10"/></g><g transform="translate(-86,-22) scale(1,1)"><rect fill="#00ff00" stroke="none" x="616" y="219" width="20" height="10"/></g><g transform="translate(-86,-22) scale(1,1)"><path fill="none" stroke="#000000" d="M 616 219 L 636 219 L 636 229 L 616 229 L 616 219 Z Z" stroke-miterlimit="10"/></g><g transform="translate(-86,-22) scale(1,1)"><g><path fill="none" stroke="none"/><text fill="#000000" stroke="none" font-family="Arial" font-size="13px" font-style="normal" font-weight="bold" text-decoration="none" x="640.8427734375" y="210">Client Player</text></g></g><g transform="translate(-86,-22) scale(1,1)"><rect fill="#C0C0C0" stroke="none" x="401" y="39" width="101.34814453125" height="44" opacity="0.2"/></g><g transform="translate(-86,-22) scale(1,1)"><rect fill="#00ff00" stroke="none" x="394" y="32" width="101.34814453125" height="44"/></g><g transform="translate(-86,-22) scale(1,1)"><path fill="none" stroke="#000000" d="M 394 32 L 495.34814453125 32 L 495.34814453125 76 L 394 76 L 394 32 Z Z" stroke-miterlimit="10"/></g><g transform="translate(-86,-22) scale(1,1)"><rect fill="#00ff00" stroke="none" x="384" y="39" width="20" height="10"/></g><g transform="translate(-86,-22) scale(1,1)"><path fill="none" stroke="#000000" d="M 384 39 L 404 39 L 404 49 L 384 49 L 384 39 Z Z" stroke-miterlimit="10"/></g><g transform="translate(-86,-22) scale(1,1)"><rect fill="#00ff00" stroke="none" x="384" y="59" width="20" height="10"/></g><g transform="translate(-86,-22) scale(1,1)"><path fill="none" stroke="#000000" d="M 384 59 L 404 59 L 404 69 L 384 69 L 384 59 Z Z" stroke-miterlimit="10"/></g><g transform="translate(-86,-22) scale(1,1)"><g><path fill="none" stroke="none"/><text fill="#000000" stroke="none" font-family="Arial" font-size="13px" font-style="normal" font-weight="bold" text-decoration="none" x="408.5" y="50">Transport api</text></g></g><g transform="translate(-86,-22) scale(1,1)"><rect fill="#C0C0C0" stroke="none" x="401" y="199" width="99.18994140625" height="44" opacity="0.2"/></g><g transform="translate(-86,-22) scale(1,1)"><rect fill="#00ff00" stroke="none" x="394" y="192" width="99.18994140625" height="44"/></g><g transform="translate(-86,-22) scale(1,1)"><path fill="none" stroke="#000000" d="M 394 192 L 493.18994140625 192 L 493.18994140625 236 L 394 236 L 394 192 Z Z" stroke-miterlimit="10"/></g><g transform="translate(-86,-22) scale(1,1)"><rect fill="#00ff00" stroke="none" x="384" y="199" width="20" height="10"/></g><g transform="translate(-86,-22) scale(1,1)"><path fill="none" stroke="#000000" d="M 384 199 L 404 199 L 404 209 L 384 209 L 384 199 Z Z" stroke-miterlimit="10"/></g><g transform="translate(-86,-22) scale(1,1)"><rect fill="#00ff00" stroke="none" x="384" y="219" width="20" height="10"/></g><g transform="translate(-86,-22) scale(1,1)"><path fill="none" stroke="#000000" d="M 384 219 L 404 219 L 404 229 L 384 229 L 384 219 Z Z" stroke-miterlimit="10"/></g><g transform="translate(-86,-22) scale(1,1)"><g><path fill="none" stroke="none"/><text fill="#000000" stroke="none" font-family="Arial" font-size="13px" font-style="normal" font-weight="bold" text-decoration="none" x="408.5" y="210">Online Game</text></g></g><g transform="translate(-86,-22) scale(1,1)"><rect fill="#C0C0C0" stroke="none" x="649" y="279" width="98.44091796875" height="44" opacity="0.2"/></g><g transform="translate(-86,-22) scale(1,1)"><rect fill="#00ff00" stroke="none" x="642" y="272" width="98.44091796875" height="44"/></g><g transform="translate(-86,-22) scale(1,1)"><path fill="none" stroke="#000000" d="M 642 272 L 740.44091796875 272 L 740.44091796875 316 L 642 316 L 642 272 Z Z" stroke-miterlimit="10"/></g><g transform="translate(-86,-22) scale(1,1)"><rect fill="#00ff00" stroke="none" x="632" y="279" width="20" height="10"/></g><g transform="translate(-86,-22) scale(1,1)"><path fill="none" stroke="#000000" d="M 632 279 L 652 279 L 652 289 L 632 289 L 632 279 Z Z" stroke-miterlimit="10"/></g><g transform="translate(-86,-22) scale(1,1)"><rect fill="#00ff00" stroke="none" x="632" y="299" width="20" height="10"/></g><g transform="translate(-86,-22) scale(1,1)"><path fill="none" stroke="#000000" d="M 632 299 L 652 299 L 652 309 L 632 309 L 632 299 Z Z" stroke-miterlimit="10"/></g><g transform="translate(-86,-22) scale(1,1)"><g><path fill="none" stroke="none"/><text fill="#000000" stroke="none" font-family="Arial" font-size="13px" font-style="normal" font-weight="bold" text-decoration="none" x="660.45458984375" y="290">Host Player</text></g></g><g transform="translate(-86,-22) scale(1,1)"><rect fill="#C0C0C0" stroke="none" x="313" y="343" width="113.630859375" height="44" opacity="0.2"/></g><g transform="translate(-86,-22) scale(1,1)"><rect fill="#00ff00" stroke="none" x="306" y="336" width="113.630859375" height="44"/></g><g transform="translate(-86,-22) scale(1,1)"><path fill="none" stroke="#000000" d="M 306 336 L 419.630859375 336 L 419.630859375 380 L 306 380 L 306 336 Z Z" stroke-miterlimit="10"/></g><g transform="translate(-86,-22) scale(1,1)"><rect fill="#00ff00" stroke="none" x="296" y="343" width="20" height="10"/></g><g transform="translate(-86,-22) scale(1,1)"><path fill="none" stroke="#000000" d="M 296 343 L 316 343 L 316 353 L 296 353 L 296 343 Z Z" stroke-miterlimit="10"/></g><g transform="translate(-86,-22) scale(1,1)"><rect fill="#00ff00" stroke="none" x="296" y="363" width="20" height="10"/></g><g transform="translate(-86,-22) scale(1,1)"><path fill="none" stroke="#000000" d="M 296 363 L 316 363 L 316 373 L 296 373 L 296 363 Z Z" stroke-miterlimit="10"/></g><g transform="translate(-86,-22) scale(1,1)"><g><path fill="none" stroke="none"/><text fill="#000000" stroke="none" font-family="Arial" font-size="13px" font-style="normal" font-weight="bold" text-decoration="none" x="320.5" y="354">Board Manager</text></g></g><g transform="translate(-86,-22) scale(1,1)"><rect fill="#C0C0C0" stroke="none" x="361" y="535" width="98.44091796875" height="44" opacity="0.2"/></g><g transform="translate(-86,-22) scale(1,1)"><rect fill="#00ff00" stroke="none" x="354" y="528" width="98.44091796875" height="44"/></g><g transform="translate(-86,-22) scale(1,1)"><path fill="none" stroke="#000000" d="M 354 528 L 452.44091796875 528 L 452.44091796875 572 L 354 572 L 354 528 Z Z" stroke-miterlimit="10"/></g><g transform="translate(-86,-22) scale(1,1)"><rect fill="#00ff00" stroke="none" x="344" y="535" width="20" height="10"/></g><g transform="translate(-86,-22) scale(1,1)"><path fill="none" stroke="#000000" d="M 344 535 L 364 535 L 364 545 L 344 545 L 344 535 Z Z" stroke-miterlimit="10"/></g><g transform="translate(-86,-22) scale(1,1)"><rect fill="#00ff00" stroke="none" x="344" y="555" width="20" height="10"/></g><g transform="translate(-86,-22) scale(1,1)"><path fill="none" stroke="#000000" d="M 344 555 L 364 555 L 364 565 L 344 565 L 344 555 Z Z" stroke-miterlimit="10"/></g><g transform="translate(-86,-22) scale(1,1)"><g><path fill="none" stroke="none"/><text fill="#000000" stroke="none" font-family="Arial" font-size="13px" font-style="normal" font-weight="bold" text-decoration="none" x="371.004150390625" y="546">MovePieces</text></g></g><g transform="translate(-86,-22) scale(1,1)"><rect fill="#C0C0C0" stroke="none" x="121" y="391" width="99.2216796875" height="44" opacity="0.2"/></g><g transform="translate(-86,-22) scale(1,1)"><rect fill="#00ff00" stroke="none" x="114" y="384" width="99.2216796875" height="44"/></g><g transform="translate(-86,-22) scale(1,1)"><path fill="none" stroke="#000000" d="M 114 384 L 213.2216796875 384 L 213.2216796875 428 L 114 428 L 114 384 Z Z" stroke-miterlimit="10"/></g><g transform="translate(-86,-22) scale(1,1)"><rect fill="#00ff00" stroke="none" x="104" y="391" width="20" height="10"/></g><g transform="translate(-86,-22) scale(1,1)"><path fill="none" stroke="#000000" d="M 104 391 L 124 391 L 124 401 L 104 401 L 104 391 Z Z" stroke-miterlimit="10"/></g><g transform="translate(-86,-22) scale(1,1)"><rect fill="#00ff00" stroke="none" x="104" y="411" width="20" height="10"/></g><g transform="translate(-86,-22) scale(1,1)"><path fill="none" stroke="#000000" d="M 104 411 L 124 411 L 124 421 L 104 421 L 104 411 Z Z" stroke-miterlimit="10"/></g><g transform="translate(-86,-22) scale(1,1)"><g><path fill="none" stroke="none"/><text fill="#000000" stroke="none" font-family="Arial" font-size="13px" font-style="normal" font-weight="bold" text-decoration="none" x="128.5" y="402">ChessPieces</text></g></g><g transform="translate(-86,-22) scale(1,1)"><rect fill="#C0C0C0" stroke="none" x="537" y="399" width="195.26806640625" height="44" opacity="0.2"/></g><g transform="translate(-86,-22) scale(1,1)"><rect fill="#00ff00" stroke="none" x="530" y="392" width="195.26806640625" height="44"/></g><g transform="translate(-86,-22) scale(1,1)"><path fill="none" stroke="#000000" d="M 530 392 L 725.26806640625 392 L 725.26806640625 436 L 530 436 L 530 392 Z Z" stroke-miterlimit="10"/></g><g transform="translate(-86,-22) scale(1,1)"><rect fill="#00ff00" stroke="none" x="520" y="399" width="20" height="10"/></g><g transform="translate(-86,-22) scale(1,1)"><path fill="none" stroke="#000000" d="M 520 399 L 540 399 L 540 409 L 520 409 L 520 399 Z Z" stroke-miterlimit="10"/></g><g transform="translate(-86,-22) scale(1,1)"><rect fill="#00ff00" stroke="none" x="520" y="419" width="20" height="10"/></g><g transform="translate(-86,-22) scale(1,1)"><path fill="none" stroke="#000000" d="M 520 419 L 540 419 L 540 429 L 520 429 L 520 419 Z Z" stroke-miterlimit="10"/></g><g transform="translate(-86,-22) scale(1,1)"><g><path fill="none" stroke="none"/><text fill="#000000" stroke="none" font-family="Arial" font-size="13px" font-style="normal" font-weight="bold" text-decoration="none" x="544.5" y="410">Simulation Move Checkmate</text></g></g><g transform="translate(-86,-22) scale(1,1)"><rect fill="#C0C0C0" stroke="none" x="225" y="647" width="105.708984375" height="44" opacity="0.2"/></g><g transform="translate(-86,-22) scale(1,1)"><rect fill="#00ff00" stroke="none" x="218" y="640" width="105.708984375" height="44"/></g><g transform="translate(-86,-22) scale(1,1)"><path fill="none" stroke="#000000" d="M 218 640 L 323.708984375 640 L 323.708984375 684 L 218 684 L 218 640 Z Z" stroke-miterlimit="10"/></g><g transform="translate(-86,-22) scale(1,1)"><rect fill="#00ff00" stroke="none" x="208" y="647" width="20" height="10"/></g><g transform="translate(-86,-22) scale(1,1)"><path fill="none" stroke="#000000" d="M 208 647 L 228 647 L 228 657 L 208 657 L 208 647 Z Z" stroke-miterlimit="10"/></g><g transform="translate(-86,-22) scale(1,1)"><rect fill="#00ff00" stroke="none" x="208" y="667" width="20" height="10"/></g><g transform="translate(-86,-22) scale(1,1)"><path fill="none" stroke="#000000" d="M 208 667 L 228 667 L 228 677 L 208 677 L 208 667 Z Z" stroke-miterlimit="10"/></g><g transform="translate(-86,-22) scale(1,1)"><g><path fill="none" stroke="none"/><text fill="#000000" stroke="none" font-family="Arial" font-size="13px" font-style="normal" font-weight="bold" text-decoration="none" x="232.5" y="658">PreventCheck</text></g></g><g transform="translate(-86,-22) scale(1,1)"><rect fill="#C0C0C0" stroke="none" x="385" y="655" width="108.59716796875" height="44" opacity="0.2"/></g><g transform="translate(-86,-22) scale(1,1)"><rect fill="#00ff00" stroke="none" x="378" y="648" width="108.59716796875" height="44"/></g><g transform="translate(-86,-22) scale(1,1)"><path fill="none" stroke="#000000" d="M 378 648 L 486.59716796875 648 L 486.59716796875 692 L 378 692 L 378 648 Z Z" stroke-miterlimit="10"/></g><g transform="translate(-86,-22) scale(1,1)"><rect fill="#00ff00" stroke="none" x="368" y="655" width="20" height="10"/></g><g transform="translate(-86,-22) scale(1,1)"><path fill="none" stroke="#000000" d="M 368 655 L 388 655 L 388 665 L 368 665 L 368 655 Z Z" stroke-miterlimit="10"/></g><g transform="translate(-86,-22) scale(1,1)"><rect fill="#00ff00" stroke="none" x="368" y="675" width="20" height="10"/></g><g transform="translate(-86,-22) scale(1,1)"><path fill="none" stroke="#000000" d="M 368 675 L 388 675 L 388 685 L 368 685 L 368 675 Z Z" stroke-miterlimit="10"/></g><g transform="translate(-86,-22) scale(1,1)"><g><path fill="none" stroke="none"/><text fill="#000000" stroke="none" font-family="Arial" font-size="13px" font-style="normal" font-weight="bold" text-decoration="none" x="392.5" y="666">Special Moves</text></g></g><g transform="translate(-86,-22) scale(1,1)"><path fill="#C0C0C0" stroke="none" d="M 438.7099609375 146.5 C 438.7099609375 140.1487248 443.8586857375 135 450.2099609375 135 C 456.5612361375 135 461.7099609375 140.1487248 461.7099609375 146.5 C 461.7099609375 152.8512752 456.5612361375 158 450.2099609375 158 C 443.8586857375 158 438.7099609375 152.8512752 438.7099609375 146.5 Z" opacity="0.2"/></g><g transform="translate(-86,-22) scale(1,1)"><path fill="#00ff00" stroke="none" d="M 431.7099609375 139.5 C 431.7099609375 133.1487248 436.8586857375 128 443.2099609375 128 C 449.5612361375 128 454.7099609375 133.1487248 454.7099609375 139.5 C 454.7099609375 145.8512752 449.5612361375 151 443.2099609375 151 C 436.8586857375 151 431.7099609375 145.8512752 431.7099609375 139.5 Z"/></g><g transform="translate(-86,-22) scale(1,1)"><path fill="none" stroke="#000000" d="M 431.7099609375 139.5 C 431.7099609375 133.1487248 436.8586857375 128 443.2099609375 128 C 449.5612361375 128 454.7099609375 133.1487248 454.7099609375 139.5 C 454.7099609375 145.8512752 449.5612361375 151 443.2099609375 151 C 436.8586857375 151 431.7099609375 145.8512752 431.7099609375 139.5 Z" stroke-miterlimit="10"/></g><g transform="translate(-86,-22) scale(1,1)"><g><path fill="none" stroke="none"/><text fill="#000000" stroke="none" font-family="Arial" font-size="13px" font-style="normal" font-weight="bold" text-decoration="none" x="443.2099609375" y="164"></text></g></g><g transform="translate(-86,-22) scale(1,1)"><path fill="none" stroke="#000000" d="M 440 77 L 442.0833333333333 128" stroke-miterlimit="10"/></g><g transform="translate(-86,-22) scale(1,1)"><path fill="none" stroke="#000000" d="M 454.48410503732384 147.6044265809118 A 11.5 11.5 0 0 1 431.51589496267616 146.3955734190882" stroke-miterlimit="10"/></g><g transform="translate(-86,-22) scale(1,1)"><g><path fill="none" stroke="none"/><text fill="#ffffff" stroke="none" font-family="Arial" font-size="13px" font-style="normal" font-weight="bold" text-decoration="none" x="443.2099609375" y="172"></text></g></g><g transform="translate(-86,-22) scale(1,1)"><path fill="none" stroke="#000000" d="M 440 191 L 442.36842105263156 159" stroke-miterlimit="10"/></g><g transform="translate(-86,-22) scale(1,1)"><path fill="none" stroke="#000000" d="M 183 263 L 232 229" stroke-miterlimit="10" stroke-dasharray="3"/></g><g transform="translate(-86,-22) scale(1,1)"><path fill="none" stroke="#000000" d="M 226.05023553423305 238.25204316904635 L 232 229 L 221.2506987351301 231.33506366445678" stroke-miterlimit="10"/></g><g transform="translate(-86,-22) scale(1,1)"><path fill="none" stroke="#000000" d="M 615 214 L 494 214" stroke-miterlimit="10" stroke-dasharray="3"/></g><g transform="translate(-86,-22) scale(1,1)"><path fill="none" stroke="#000000" d="M 504.16267485762415 209.790482243984 L 494 214 L 504.16267485762415 218.209517756016" stroke-miterlimit="10"/></g><g transform="translate(-86,-22) scale(1,1)"><path fill="none" stroke="#000000" d="M 631 276 L 494 232" stroke-miterlimit="10" stroke-dasharray="3"/></g><g transform="translate(-86,-22) scale(1,1)"><path fill="none" stroke="#000000" d="M 504.96309537177046 231.09970012247896 L 494 232 L 502.38868722867034 239.1154709316772" stroke-miterlimit="10"/></g><g transform="translate(-86,-22) scale(1,1)"><path fill="none" stroke="#000000" d="M 295 336 L 205 305" stroke-miterlimit="10" stroke-dasharray="3"/></g><g transform="translate(-86,-22) scale(1,1)"><path fill="none" stroke="#000000" d="M 215.9795528603946 304.3296128090417 L 205 305 L 213.23775161072837 312.289680953234" stroke-miterlimit="10"/></g><g transform="translate(-86,-22) scale(1,1)"><rect fill="#C0C0C0" stroke="none" x="233" y="463" width="102.09716796875" height="44" opacity="0.2"/></g><g transform="translate(-86,-22) scale(1,1)"><rect fill="#00ff00" stroke="none" x="226" y="456" width="102.09716796875" height="44"/></g><g transform="translate(-86,-22) scale(1,1)"><path fill="none" stroke="#000000" d="M 226 456 L 328.09716796875 456 L 328.09716796875 500 L 226 500 L 226 456 Z Z" stroke-miterlimit="10"/></g><g transform="translate(-86,-22) scale(1,1)"><rect fill="#00ff00" stroke="none" x="216" y="463" width="20" height="10"/></g><g transform="translate(-86,-22) scale(1,1)"><path fill="none" stroke="#000000" d="M 216 463 L 236 463 L 236 473 L 216 473 L 216 463 Z Z" stroke-miterlimit="10"/></g><g transform="translate(-86,-22) scale(1,1)"><rect fill="#00ff00" stroke="none" x="216" y="483" width="20" height="10"/></g><g transform="translate(-86,-22) scale(1,1)"><path fill="none" stroke="#000000" d="M 216 483 L 236 483 L 236 493 L 216 493 L 216 483 Z Z" stroke-miterlimit="10"/></g><g transform="translate(-86,-22) scale(1,1)"><g><path fill="none" stroke="none"/><text fill="#000000" stroke="none" font-family="Arial" font-size="13px" font-style="normal" font-weight="bold" text-decoration="none" x="240.5" y="474">SpwanPieces</text></g></g><g transform="translate(-86,-22) scale(1,1)"><path fill="#C0C0C0" stroke="none" d="M 158.7099609375 474.5 C 158.7099609375 468.1487248 163.8586857375 463 170.2099609375 463 C 176.5612361375 463 181.7099609375 468.1487248 181.7099609375 474.5 C 181.7099609375 480.8512752 176.5612361375 486 170.2099609375 486 C 163.8586857375 486 158.7099609375 480.8512752 158.7099609375 474.5 Z" opacity="0.2"/></g><g transform="translate(-86,-22) scale(1,1)"><path fill="none" stroke="#000000" d="M 166.63661930919363 456.0901420724191 A 11.5 11.5 0 0 1 159.36338069080637 477.9098579275809" stroke-miterlimit="10"/></g><g transform="translate(-86,-22) scale(1,1)"><path fill="#ffffff" stroke="none" d="M 154.7099609375 467.5 C 154.7099609375 462.8055792 158.5155401375 459 163.2099609375 459 C 167.9043817375 459 171.7099609375 462.8055792 171.7099609375 467.5 C 171.7099609375 472.1944208 167.9043817375 476 163.2099609375 476 C 158.5155401375 476 154.7099609375 472.1944208 154.7099609375 467.5 Z"/></g><g transform="translate(-86,-22) scale(1,1)"><path fill="none" stroke="#000000" d="M 154.7099609375 467.5 C 154.7099609375 462.8055792 158.5155401375 459 163.2099609375 459 C 167.9043817375 459 171.7099609375 462.8055792 171.7099609375 467.5 C 171.7099609375 472.1944208 167.9043817375 476 163.2099609375 476 C 158.5155401375 476 154.7099609375 472.1944208 154.7099609375 467.5 Z" stroke-miterlimit="10"/></g><g transform="translate(-86,-22) scale(1,1)"><g><path fill="none" stroke="none"/><text fill="#000000" stroke="none" font-family="Arial" font-size="13px" font-style="normal" font-weight="bold" text-decoration="none" x="163.2099609375" y="492"></text></g></g><g transform="translate(-86,-22) scale(1,1)"><path fill="none" stroke="#000000" d="M 160 429 L 161.16666666666666 456" stroke-miterlimit="10"/></g><g transform="translate(-86,-22) scale(1,1)"><path fill="none" stroke="#000000" d="M 215 479 L 174.7099609375 470.9033203125" stroke-miterlimit="10"/></g><g transform="translate(-86,-22) scale(1,1)"><path fill="none" stroke="#000000" d="M 288 455 L 341 381" stroke-miterlimit="10" stroke-dasharray="3"/></g><g transform="translate(-86,-22) scale(1,1)"><path fill="none" stroke="#000000" d="M 338.5048063658342 391.7132632156602 L 341 381 L 331.6602105924781 386.81105272933763" stroke-miterlimit="10"/></g><g transform="translate(-86,-22) scale(1,1)"><rect fill="#C0C0C0" stroke="none" x="529" y="551" width="163.955078125" height="44" opacity="0.2"/></g><g transform="translate(-86,-22) scale(1,1)"><rect fill="#00ff00" stroke="none" x="522" y="544" width="163.955078125" height="44"/></g><g transform="translate(-86,-22) scale(1,1)"><path fill="none" stroke="#000000" d="M 522 544 L 685.955078125 544 L 685.955078125 588 L 522 588 L 522 544 Z Z" stroke-miterlimit="10"/></g><g transform="translate(-86,-22) scale(1,1)"><rect fill="#00ff00" stroke="none" x="512" y="551" width="20" height="10"/></g><g transform="translate(-86,-22) scale(1,1)"><path fill="none" stroke="#000000" d="M 512 551 L 532 551 L 532 561 L 512 561 L 512 551 Z Z" stroke-miterlimit="10"/></g><g transform="translate(-86,-22) scale(1,1)"><rect fill="#00ff00" stroke="none" x="512" y="571" width="20" height="10"/></g><g transform="translate(-86,-22) scale(1,1)"><path fill="none" stroke="#000000" d="M 512 571 L 532 571 L 532 581 L 512 581 L 512 571 Z Z" stroke-miterlimit="10"/></g><g transform="translate(-86,-22) scale(1,1)"><g><path fill="none" stroke="none"/><text fill="#000000" stroke="none" font-family="Arial" font-size="13px" font-style="normal" font-weight="bold" text-decoration="none" x="565.042236328125" y="562">highlight Tiles</text></g></g><g transform="translate(-86,-22) scale(1,1)"><rect fill="#C0C0C0" stroke="none" x="601" y="663" width="104.99169921875" height="44" opacity="0.2"/></g><g transform="translate(-86,-22) scale(1,1)"><rect fill="#00ff00" stroke="none" x="594" y="656" width="104.99169921875" height="44"/></g><g transform="translate(-86,-22) scale(1,1)"><path fill="none" stroke="#000000" d="M 594 656 L 698.99169921875 656 L 698.99169921875 700 L 594 700 L 594 656 Z Z" stroke-miterlimit="10"/></g><g transform="translate(-86,-22) scale(1,1)"><rect fill="#00ff00" stroke="none" x="584" y="663" width="20" height="10"/></g><g transform="translate(-86,-22) scale(1,1)"><path fill="none" stroke="#000000" d="M 584 663 L 604 663 L 604 673 L 584 673 L 584 663 Z Z" stroke-miterlimit="10"/></g><g transform="translate(-86,-22) scale(1,1)"><rect fill="#00ff00" stroke="none" x="584" y="683" width="20" height="10"/></g><g transform="translate(-86,-22) scale(1,1)"><path fill="none" stroke="#000000" d="M 584 683 L 604 683 L 604 693 L 584 693 L 584 683 Z Z" stroke-miterlimit="10"/></g><g transform="translate(-86,-22) scale(1,1)"><g><path fill="none" stroke="none"/><text fill="#000000" stroke="none" font-family="Arial" font-size="13px" font-style="normal" font-weight="bold" text-decoration="none" x="608.5" y="674">Destroy Piece</text></g></g><g transform="translate(-86,-22) scale(1,1)"><path fill="none" stroke="#000000" d="M 511 568 L 498 568 L 453 560" stroke-miterlimit="10" stroke-dasharray="3"/></g><g transform="translate(-86,-22) scale(1,1)"><path fill="none" stroke="#000000" d="M 463.7425945740232 557.6342735115472 L 453 560 L 462.2689827132472 565.923340228412" stroke-miterlimit="10"/></g><g transform="translate(-86,-22) scale(1,1)"><path fill="none" stroke="#000000" d="M 292 639 L 371 573" stroke-miterlimit="10" stroke-dasharray="3"/></g><g transform="translate(-86,-22) scale(1,1)"><path fill="none" stroke="#000000" d="M 365.89980267194625 582.7461780824543 L 371 573 L 360.5020272711885 576.2852044966988" stroke-miterlimit="10"/></g><g transform="translate(-86,-22) scale(1,1)"><path fill="none" stroke="#000000" d="M 421 647 L 404 573" stroke-miterlimit="10" stroke-dasharray="3"/></g><g transform="translate(-86,-22) scale(1,1)"><path fill="none" stroke="#000000" d="M 410.3780470484921 581.9621713801523 L 404 573 L 402.1727481616539 583.8471724757773" stroke-miterlimit="10"/></g><g transform="translate(-86,-22) scale(1,1)"><path fill="none" stroke="#000000" d="M 597 655 L 442 573" stroke-miterlimit="10" stroke-dasharray="3"/></g><g transform="translate(-86,-22) scale(1,1)"><path fill="none" stroke="#000000" d="M 452.95153717318334 574.0314230676028 L 442 573 L 449.01457995420037 581.4732324449486" stroke-miterlimit="10"/></g><g transform="translate(-86,-22) scale(1,1)"><path fill="none" stroke="#000000" d="M 519 392 L 421 371" stroke-miterlimit="10" stroke-dasharray="3"/></g><g transform="translate(-86,-22) scale(1,1)"><path fill="none" stroke="#000000" d="M 431.81910442868315 369.013299378052 L 421 371 L 430.0550715898542 377.2454526259203" stroke-miterlimit="10"/></g><g transform="translate(-86,-22) scale(1,1)"><rect fill="#C0C0C0" stroke="none" x="497" y="303" width="98.44091796875" height="44" opacity="0.2"/></g><g transform="translate(-86,-22) scale(1,1)"><rect fill="#00ff00" stroke="none" x="490" y="296" width="98.44091796875" height="44"/></g><g transform="translate(-86,-22) scale(1,1)"><path fill="none" stroke="#000000" d="M 490 296 L 588.44091796875 296 L 588.44091796875 340 L 490 340 L 490 296 Z Z" stroke-miterlimit="10"/></g><g transform="translate(-86,-22) scale(1,1)"><rect fill="#00ff00" stroke="none" x="480" y="303" width="20" height="10"/></g><g transform="translate(-86,-22) scale(1,1)"><path fill="none" stroke="#000000" d="M 480 303 L 500 303 L 500 313 L 480 313 L 480 303 Z Z" stroke-miterlimit="10"/></g><g transform="translate(-86,-22) scale(1,1)"><rect fill="#00ff00" stroke="none" x="480" y="323" width="20" height="10"/></g><g transform="translate(-86,-22) scale(1,1)"><path fill="none" stroke="#000000" d="M 480 323 L 500 323 L 500 333 L 480 333 L 480 323 Z Z" stroke-miterlimit="10"/></g><g transform="translate(-86,-22) scale(1,1)"><g><path fill="none" stroke="none"/><text fill="#000000" stroke="none" font-family="Arial" font-size="13px" font-style="normal" font-weight="bold" text-decoration="none" x="515.69091796875" y="314">NetUtility</text></g></g><g transform="translate(-86,-22) scale(1,1)"><path fill="none" stroke="#000000" d="M 640 237 L 564 295" stroke-miterlimit="10" stroke-dasharray="3"/></g><g transform="translate(-86,-22) scale(1,1)"><path fill="none" stroke="#000000" d="M 569.5250289313135 285.4882149252546 L 564 295 L 574.6326331511251 292.18093769604224" stroke-miterlimit="10"/></g><g transform="translate(-86,-22) scale(1,1)"><path fill="none" stroke="#000000" d="M 631 303 L 589 309" stroke-miterlimit="10" stroke-dasharray="3"/></g><g transform="translate(-86,-22) scale(1,1)"><path fill="none" stroke="#000000" d="M 598.4652191193873 303.39557076751026 L 589 309 L 599.6558505397089 311.7299907097617" stroke-miterlimit="10"/></g><g transform="translate(-86,-22) scale(1,1)"><path fill="none" stroke="#000000" d="M 421 344 L 479 330" stroke-miterlimit="10" stroke-dasharray="3"/></g><g transform="translate(-86,-22) scale(1,1)"><path fill="none" stroke="#000000" d="M 470.1087680697704 336.476572763651 L 479 330 L 468.1333210890066 328.29257812905803" stroke-miterlimit="10"/></g><g transform="translate(-86,-22) scale(1,1)"><path fill="none" stroke="#000000" d="M 479 330 L 421 344" stroke-miterlimit="10" stroke-dasharray="3"/></g><g transform="translate(-86,-22) scale(1,1)"><path fill="none" stroke="#000000" d="M 429.8912319302296 337.523427236349 L 421 344 L 431.8666789109934 345.70742187094197" stroke-miterlimit="10"/></g><g transform="translate(-86,-22) scale(1,1)"><path fill="none" stroke="#000000" d="M 393 527 L 362 381" stroke-miterlimit="10" stroke-dasharray="3"/></g><g transform="translate(-86,-22) scale(1,1)"><path fill="none" stroke="#000000" d="M 368.2284925870291 390.0667458381342 L 362 381 L 359.99305187941883 391.81536681029803" stroke-miterlimit="10"/></g><g transform="translate(-86,-22) scale(1,1)"><path fill="none" stroke="#000000" d="M 362 381 L 393 527" stroke-miterlimit="10" stroke-dasharray="3"/></g><g transform="translate(-86,-22) scale(1,1)"><path fill="none" stroke="#000000" d="M 386.7715074129709 517.9332541618658 L 393 527 L 395.00694812058117 516.184633189702" stroke-miterlimit="10"/></g></g></svg>