<svg version="1.1" xmlns="http://www.w3.org/2000/svg" xmlns:xlink="http://www.w3.org/1999/xlink" width="853" height="1029"><defs/><g><g transform="translate(-22,-62) scale(1,1)"><path fill="#C0C0C0" stroke="none" d="M 255 88.5 C 255 83.2532944 259.2532944 79 264.5 79 C 269.7467056 79 274 83.2532944 274 88.5 C 274 93.7467056 269.7467056 98 264.5 98 C 259.2532944 98 255 93.7467056 255 88.5 Z" opacity="0.2"/></g><g transform="translate(-22,-62) scale(1,1)"><path fill="#000000" stroke="none" d="M 248 81.5 C 248 76.2532944 252.2532944 72 257.5 72 C 262.7467056 72 267 76.2532944 267 81.5 C 267 86.7467056 262.7467056 91 257.5 91 C 252.2532944 91 248 86.7467056 248 81.5 Z"/></g><g transform="translate(-22,-62) scale(1,1)"><path fill="#C0C0C0" stroke="none" d="M 233 151 L 298.58447265625 151 Q 308.58447265625 151 308.58447265625 161 L 308.58447265625 181 Q 308.58447265625 191 298.58447265625 191 L 233 191 Q 223 191 223 181 L 223 161 Q 223 151 233 151 Z" opacity="0.2"/></g><g transform="translate(-22,-62) scale(1,1)"><path fill="#d8e1f8" stroke="none" d="M 226 144 L 291.58447265625 144 Q 301.58447265625 144 301.58447265625 154 L 301.58447265625 174 Q 301.58447265625 184 291.58447265625 184 L 226 184 Q 216 184 216 174 L 216 154 Q 216 144 226 144 Z"/></g><g transform="translate(-22,-62) scale(1,1)"><path fill="none" stroke="#000000" d="M 226 144 L 291.58447265625 144 Q 301.58447265625 144 301.58447265625 154 L 301.58447265625 174 Q 301.58447265625 184 291.58447265625 184 L 226 184 Q 216 184 216 174 L 216 154 Q 216 144 226 144 Z" stroke-miterlimit="10"/></g><g transform="translate(-22,-62) scale(1,1)"><g><path fill="none" stroke="none"/><text fill="#000000" stroke="none" font-family="Arial" font-size="13px" font-style="normal" font-weight="bold" text-decoration="none" x="220.5" y="162">Main Screen</text></g></g><g transform="translate(-22,-62) scale(1,1)"><path fill="#C0C0C0" stroke="none" d="M 457 151 L 573.16259765625 151 Q 583.16259765625 151 583.16259765625 161 L 583.16259765625 181 Q 583.16259765625 191 573.16259765625 191 L 457 191 Q 447 191 447 181 L 447 161 Q 447 151 457 151 Z" opacity="0.2"/></g><g transform="translate(-22,-62) scale(1,1)"><path fill="#d8e1f8" stroke="none" d="M 450 144 L 566.16259765625 144 Q 576.16259765625 144 576.16259765625 154 L 576.16259765625 174 Q 576.16259765625 184 566.16259765625 184 L 450 184 Q 440 184 440 174 L 440 154 Q 440 144 450 144 Z"/></g><g transform="translate(-22,-62) scale(1,1)"><path fill="none" stroke="#000000" d="M 450 144 L 566.16259765625 144 Q 576.16259765625 144 576.16259765625 154 L 576.16259765625 174 Q 576.16259765625 184 566.16259765625 184 L 450 184 Q 440 184 440 174 L 440 154 Q 440 144 450 144 Z" stroke-miterlimit="10"/></g><g transform="translate(-22,-62) scale(1,1)"><g><path fill="none" stroke="none"/><text fill="#000000" stroke="none" font-family="Arial" font-size="13px" font-style="normal" font-weight="bold" text-decoration="none" x="444.5" y="162">Online Game Screen</text></g></g><g transform="translate(-22,-62) scale(1,1)"><path fill="#C0C0C0" stroke="none" d="M 225 431 L 285.98876953125 431 Q 295.98876953125 431 295.98876953125 441 L 295.98876953125 461 Q 295.98876953125 471 285.98876953125 471 L 225 471 Q 215 471 215 461 L 215 441 Q 215 431 225 431 Z" opacity="0.2"/></g><g transform="translate(-22,-62) scale(1,1)"><path fill="#d8e1f8" stroke="none" d="M 218 424 L 278.98876953125 424 Q 288.98876953125 424 288.98876953125 434 L 288.98876953125 454 Q 288.98876953125 464 278.98876953125 464 L 218 464 Q 208 464 208 454 L 208 434 Q 208 424 218 424 Z"/></g><g transform="translate(-22,-62) scale(1,1)"><path fill="none" stroke="#000000" d="M 218 424 L 278.98876953125 424 Q 288.98876953125 424 288.98876953125 434 L 288.98876953125 454 Q 288.98876953125 464 278.98876953125 464 L 218 464 Q 208 464 208 454 L 208 434 Q 208 424 218 424 Z" stroke-miterlimit="10"/></g><g transform="translate(-22,-62) scale(1,1)"><g><path fill="none" stroke="none"/><text fill="#000000" stroke="none" font-family="Arial" font-size="13px" font-style="normal" font-weight="bold" text-decoration="none" x="212.5" y="442">White Team</text></g></g><g transform="translate(-22,-62) scale(1,1)"><path fill="#C0C0C0" stroke="none" d="M 729 143 L 843.9248046875 143 Q 853.9248046875 143 853.9248046875 153 L 853.9248046875 173 Q 853.9248046875 183 843.9248046875 183 L 729 183 Q 719 183 719 173 L 719 153 Q 719 143 729 143 Z" opacity="0.2"/></g><g transform="translate(-22,-62) scale(1,1)"><path fill="#d8e1f8" stroke="none" d="M 722 136 L 836.9248046875 136 Q 846.9248046875 136 846.9248046875 146 L 846.9248046875 166 Q 846.9248046875 176 836.9248046875 176 L 722 176 Q 712 176 712 166 L 712 146 Q 712 136 722 136 Z"/></g><g transform="translate(-22,-62) scale(1,1)"><path fill="none" stroke="#000000" d="M 722 136 L 836.9248046875 136 Q 846.9248046875 136 846.9248046875 146 L 846.9248046875 166 Q 846.9248046875 176 836.9248046875 176 L 722 176 Q 712 176 712 166 L 712 146 Q 712 136 722 136 Z" stroke-miterlimit="10"/></g><g transform="translate(-22,-62) scale(1,1)"><g><path fill="none" stroke="none"/><text fill="#000000" stroke="none" font-family="Arial" font-size="13px" font-style="normal" font-weight="bold" text-decoration="none" x="716.5" y="154">Host Waiting Screen</text></g></g><g transform="translate(-22,-62) scale(1,1)"><path fill="#C0C0C0" stroke="none" d="M 615 171.5 L 635.5 151 L 655 171.5 L 635.5 191 L 615 171.5" opacity="0.2"/></g><g transform="translate(-22,-62) scale(1,1)"><path fill="#ffffff" stroke="none" d="M 608 164 L 628 144 L 648 164 L 628 184 L 608 164"/></g><g transform="translate(-22,-62) scale(1,1)"><path fill="none" stroke="#000000" d="M 608 164 L 628 144 L 648 164 L 628 184 L 608 164 L 608 164" stroke-miterlimit="10"/></g><g transform="translate(-22,-62) scale(1,1)"><path fill="none" stroke="#000000" d="M 257 92 L 258 143" stroke-miterlimit="10"/></g><g transform="translate(-22,-62) scale(1,1)"><path fill="none" stroke="#000000" d="M 253.59206138268908 132.92180188992006 L 258 143 L 262.00947893842437 132.7567544868664" stroke-miterlimit="10"/></g><g transform="translate(-22,-62) scale(1,1)"><path fill="none" stroke="#000000" d="M 577 164 L 607 164" stroke-miterlimit="10"/></g><g transform="translate(-22,-62) scale(1,1)"><path fill="none" stroke="#000000" d="M 596.8373251423759 168.209517756016 L 607 164 L 596.8373251423758 159.790482243984" stroke-miterlimit="10"/></g><g transform="translate(-22,-62) scale(1,1)"><path fill="none" stroke="#000000" d="M 649 163 L 711 160" stroke-miterlimit="10"/></g><g transform="translate(-22,-62) scale(1,1)"><path fill="none" stroke="#000000" d="M 701.0526495984063 164.69576617687832 L 711 160 L 700.6457529696573 156.28656918273148" stroke-miterlimit="10"/></g><g transform="translate(-22,-62) scale(1,1)"><g><path fill="none" stroke="none"/><text fill="#000000" stroke="none" font-family="Arial" font-size="13px" font-style="normal" font-weight="normal" text-decoration="none" x="633.5" y="136">Click host</text></g></g><g transform="translate(-22,-62) scale(1,1)"><path fill="none" stroke="#000000" d="M 303 164 L 439 164" stroke-miterlimit="10"/></g><g transform="translate(-22,-62) scale(1,1)"><path fill="none" stroke="#000000" d="M 428.83732514237585 168.209517756016 L 439 164 L 428.83732514237585 159.790482243984" stroke-miterlimit="10"/></g><g transform="translate(-22,-62) scale(1,1)"><g><path fill="none" stroke="none"/><text fill="#000000" stroke="none" font-family="Arial" font-size="13px" font-style="normal" font-weight="normal" text-decoration="none" x="316.5" y="154">Click Online Game</text></g></g><g transform="translate(-22,-62) scale(1,1)"><path fill="none" stroke="#000000" d="M 617 143 L 600 112 L 312 112 L 280 143" stroke-miterlimit="10"/></g><g transform="translate(-22,-62) scale(1,1)"><path fill="none" stroke="#000000" d="M 284.37027953829914 132.90541448314374 L 280 143 L 290.2282041694487 138.95230442497555" stroke-miterlimit="10"/></g><g transform="translate(-22,-62) scale(1,1)"><g><path fill="none" stroke="none"/><text fill="#000000" stroke="none" font-family="Arial" font-size="13px" font-style="normal" font-weight="normal" text-decoration="none" x="366.55908203125" y="106"> [Click Back button]</text></g></g><g transform="translate(-22,-62) scale(1,1)"><path fill="#C0C0C0" stroke="none" d="M 759 251.5 L 783.5 231 L 807 251.5 L 783.5 271 L 759 251.5" opacity="0.2"/></g><g transform="translate(-22,-62) scale(1,1)"><path fill="#ffffff" stroke="none" d="M 752 244 L 776 224 L 800 244 L 776 264 L 752 244"/></g><g transform="translate(-22,-62) scale(1,1)"><path fill="none" stroke="#000000" d="M 752 244 L 776 224 L 800 244 L 776 264 L 752 244 L 752 244" stroke-miterlimit="10"/></g><g transform="translate(-22,-62) scale(1,1)"><path fill="none" stroke="#000000" d="M 778 177 L 777 223" stroke-miterlimit="10"/></g><g transform="translate(-22,-62) scale(1,1)"><path fill="none" stroke="#000000" d="M 773.0123521078249 212.74823604017186 L 777 223 L 781.429398949577 212.9312153193404" stroke-miterlimit="10"/></g><g transform="translate(-22,-62) scale(1,1)"><path fill="none" stroke="#000000" d="M 607 174 L 367 291" stroke-miterlimit="10"/></g><g transform="translate(-22,-62) scale(1,1)"><path fill="none" stroke="#000000" d="M 374.29036849579 282.7628568547346 L 367 291 L 377.9796087763433 290.3305292251004" stroke-miterlimit="10"/></g><g transform="translate(-22,-62) scale(1,1)"><g><path fill="none" stroke="none"/><text fill="#000000" stroke="none" font-family="Arial" font-size="13px" font-style="normal" font-weight="normal" text-decoration="none" x="417.5" y="250">Enter IP Host and connect</text></g></g><g transform="translate(-22,-62) scale(1,1)"><path fill="none" stroke="#000000" d="M 801 243 L 864 240 L 864 96 L 504 96 L 507 143" stroke-miterlimit="10"/></g><g transform="translate(-22,-62) scale(1,1)"><path fill="none" stroke="#000000" d="M 502.15166746995794 133.1261116231681 L 507 143 L 510.5536046184968 132.58981776262306" stroke-miterlimit="10"/></g><g transform="translate(-22,-62) scale(1,1)"><g><path fill="none" stroke="none"/><text fill="#000000" stroke="none" font-family="Arial" font-size="13px" font-style="normal" font-weight="normal" text-decoration="none" x="666.5" y="98">Click Back button</text></g></g><g transform="translate(-22,-62) scale(1,1)"><path fill="#C0C0C0" stroke="none" d="M 513 479 L 573.296875 479 Q 583.296875 479 583.296875 489 L 583.296875 509 Q 583.296875 519 573.296875 519 L 513 519 Q 503 519 503 509 L 503 489 Q 503 479 513 479 Z" opacity="0.2"/></g><g transform="translate(-22,-62) scale(1,1)"><path fill="#d8e1f8" stroke="none" d="M 506 472 L 566.296875 472 Q 576.296875 472 576.296875 482 L 576.296875 502 Q 576.296875 512 566.296875 512 L 506 512 Q 496 512 496 502 L 496 482 Q 496 472 506 472 Z"/></g><g transform="translate(-22,-62) scale(1,1)"><path fill="none" stroke="#000000" d="M 506 472 L 566.296875 472 Q 576.296875 472 576.296875 482 L 576.296875 502 Q 576.296875 512 566.296875 512 L 506 512 Q 496 512 496 502 L 496 482 Q 496 472 506 472 Z" stroke-miterlimit="10"/></g><g transform="translate(-22,-62) scale(1,1)"><g><path fill="none" stroke="none"/><text fill="#000000" stroke="none" font-family="Arial" font-size="13px" font-style="normal" font-weight="bold" text-decoration="none" x="500.5" y="490">Black Team</text></g></g><g transform="translate(-22,-62) scale(1,1)"><path fill="#C0C0C0" stroke="none" d="M 305 335 L 417.5380859375 335 Q 427.5380859375 335 427.5380859375 345 L 427.5380859375 365 Q 427.5380859375 375 417.5380859375 375 L 305 375 Q 295 375 295 365 L 295 345 Q 295 335 305 335 Z" opacity="0.2"/></g><g transform="translate(-22,-62) scale(1,1)"><path fill="#d8e1f8" stroke="none" d="M 298 328 L 410.5380859375 328 Q 420.5380859375 328 420.5380859375 338 L 420.5380859375 358 Q 420.5380859375 368 410.5380859375 368 L 298 368 Q 288 368 288 358 L 288 338 Q 288 328 298 328 Z"/></g><g transform="translate(-22,-62) scale(1,1)"><path fill="none" stroke="#000000" d="M 298 328 L 410.5380859375 328 Q 420.5380859375 328 420.5380859375 338 L 420.5380859375 358 Q 420.5380859375 368 410.5380859375 368 L 298 368 Q 288 368 288 358 L 288 338 Q 288 328 298 328 Z" stroke-miterlimit="10"/></g><g transform="translate(-22,-62) scale(1,1)"><g><path fill="none" stroke="none"/><text fill="#000000" stroke="none" font-family="Arial" font-size="13px" font-style="normal" font-weight="bold" text-decoration="none" x="335.489501953125" y="346">Board</text></g></g><g transform="translate(-22,-62) scale(1,1)"><path fill="#C0C0C0" stroke="none" d="M 313 543 L 429.16259765625 543 Q 439.16259765625 543 439.16259765625 553 L 439.16259765625 573 Q 439.16259765625 583 429.16259765625 583 L 313 583 Q 303 583 303 573 L 303 553 Q 303 543 313 543 Z" opacity="0.2"/></g><g transform="translate(-22,-62) scale(1,1)"><path fill="#d8e1f8" stroke="none" d="M 306 536 L 422.16259765625 536 Q 432.16259765625 536 432.16259765625 546 L 432.16259765625 566 Q 432.16259765625 576 422.16259765625 576 L 306 576 Q 296 576 296 566 L 296 546 Q 296 536 306 536 Z"/></g><g transform="translate(-22,-62) scale(1,1)"><path fill="none" stroke="#000000" d="M 306 536 L 422.16259765625 536 Q 432.16259765625 536 432.16259765625 546 L 432.16259765625 566 Q 432.16259765625 576 422.16259765625 576 L 306 576 Q 296 576 296 566 L 296 546 Q 296 536 306 536 Z" stroke-miterlimit="10"/></g><g transform="translate(-22,-62) scale(1,1)"><g><path fill="none" stroke="none"/><text fill="#000000" stroke="none" font-family="Arial" font-size="13px" font-style="normal" font-weight="bold" text-decoration="none" x="330.47998046875" y="554">MovePiece</text></g></g><g transform="translate(-22,-62) scale(1,1)"><path fill="#C0C0C0" stroke="none" d="M 351 304.5 L 362.5 295 L 373 304.5 L 362.5 313 L 351 304.5" opacity="0.2"/></g><g transform="translate(-22,-62) scale(1,1)"><path fill="#ffffff" stroke="none" d="M 344 297 L 355 288 L 366 297 L 355 306 L 344 297"/></g><g transform="translate(-22,-62) scale(1,1)"><path fill="none" stroke="#000000" d="M 344 297 L 355 288 L 366 297 L 355 306 L 344 297 L 344 297" stroke-miterlimit="10"/></g><g transform="translate(-22,-62) scale(1,1)"><path fill="none" stroke="#000000" d="M 355 307 L 354 327" stroke-miterlimit="10"/></g><g transform="translate(-22,-62) scale(1,1)"><path fill="none" stroke="#000000" d="M 350.3032340597966 316.63979143147435 L 354 327 L 358.71176546853417 317.06021800191127" stroke-miterlimit="10"/></g><g transform="translate(-22,-62) scale(1,1)"><path fill="none" stroke="#000000" d="M 331 369 L 271 423" stroke-miterlimit="10"/></g><g transform="translate(-22,-62) scale(1,1)"><path fill="none" stroke="#000000" d="M 275.7378378159721 413.07261903473307 L 271 423 L 281.36987564779844 419.33043884787344" stroke-miterlimit="10"/></g><g transform="translate(-22,-62) scale(1,1)"><g><path fill="none" stroke="none"/><text fill="#000000" stroke="none" font-family="Arial" font-size="13px" font-style="normal" font-weight="normal" text-decoration="none" x="299.5" y="411.5">turn</text></g></g><g transform="translate(-22,-62) scale(1,1)"><path fill="none" stroke="#000000" d="M 355 433 L 355 447" stroke-miterlimit="10"/></g><g transform="translate(-22,-62) scale(1,1)"><path fill="none" stroke="#000000" d="M 350.790482243984 436.83732514237585 L 355 447 L 359.209517756016 436.83732514237585" stroke-miterlimit="10"/></g><g transform="translate(-22,-62) scale(1,1)"><path fill="#C0C0C0" stroke="none" d="M 353 815 L 399.80810546875 815 Q 409.80810546875 815 409.80810546875 825 L 409.80810546875 845 Q 409.80810546875 855 399.80810546875 855 L 353 855 Q 343 855 343 845 L 343 825 Q 343 815 353 815 Z" opacity="0.2"/></g><g transform="translate(-22,-62) scale(1,1)"><path fill="#d8e1f8" stroke="none" d="M 346 808 L 392.80810546875 808 Q 402.80810546875 808 402.80810546875 818 L 402.80810546875 838 Q 402.80810546875 848 392.80810546875 848 L 346 848 Q 336 848 336 838 L 336 818 Q 336 808 346 808 Z"/></g><g transform="translate(-22,-62) scale(1,1)"><path fill="none" stroke="#000000" d="M 346 808 L 392.80810546875 808 Q 402.80810546875 808 402.80810546875 818 L 402.80810546875 838 Q 402.80810546875 848 392.80810546875 848 L 346 848 Q 336 848 336 838 L 336 818 Q 336 808 346 808 Z" stroke-miterlimit="10"/></g><g transform="translate(-22,-62) scale(1,1)"><g><path fill="none" stroke="none"/><text fill="#000000" stroke="none" font-family="Arial" font-size="13px" font-style="normal" font-weight="bold" text-decoration="none" x="340.5" y="826">Kill Piece</text></g></g><g transform="translate(-22,-62) scale(1,1)"><path fill="#C0C0C0" stroke="none" d="M 481 751 L 548.75537109375 751 Q 558.75537109375 751 558.75537109375 761 L 558.75537109375 781 Q 558.75537109375 791 548.75537109375 791 L 481 791 Q 471 791 471 781 L 471 761 Q 471 751 481 751 Z" opacity="0.2"/></g><g transform="translate(-22,-62) scale(1,1)"><path fill="#d8e1f8" stroke="none" d="M 474 744 L 541.75537109375 744 Q 551.75537109375 744 551.75537109375 754 L 551.75537109375 774 Q 551.75537109375 784 541.75537109375 784 L 474 784 Q 464 784 464 774 L 464 754 Q 464 744 474 744 Z"/></g><g transform="translate(-22,-62) scale(1,1)"><path fill="none" stroke="#000000" d="M 474 744 L 541.75537109375 744 Q 551.75537109375 744 551.75537109375 754 L 551.75537109375 774 Q 551.75537109375 784 541.75537109375 784 L 474 784 Q 464 784 464 774 L 464 754 Q 464 744 474 744 Z" stroke-miterlimit="10"/></g><g transform="translate(-22,-62) scale(1,1)"><g><path fill="none" stroke="none"/><text fill="#000000" stroke="none" font-family="Arial" font-size="13px" font-style="normal" font-weight="bold" text-decoration="none" x="468.5" y="762">SpecialMove</text></g></g><g transform="translate(-22,-62) scale(1,1)"><path fill="#C0C0C0" stroke="none" d="M 425 639 L 523.82080078125 639 Q 533.82080078125 639 533.82080078125 649 L 533.82080078125 669 Q 533.82080078125 679 523.82080078125 679 L 425 679 Q 415 679 415 669 L 415 649 Q 415 639 425 639 Z" opacity="0.2"/></g><g transform="translate(-22,-62) scale(1,1)"><path fill="#d8e1f8" stroke="none" d="M 418 632 L 516.82080078125 632 Q 526.82080078125 632 526.82080078125 642 L 526.82080078125 662 Q 526.82080078125 672 516.82080078125 672 L 418 672 Q 408 672 408 662 L 408 642 Q 408 632 418 632 Z"/></g><g transform="translate(-22,-62) scale(1,1)"><path fill="none" stroke="#000000" d="M 418 632 L 516.82080078125 632 Q 526.82080078125 632 526.82080078125 642 L 526.82080078125 662 Q 526.82080078125 672 516.82080078125 672 L 418 672 Q 408 672 408 662 L 408 642 Q 408 632 418 632 Z" stroke-miterlimit="10"/></g><g transform="translate(-22,-62) scale(1,1)"><g><path fill="none" stroke="none"/><text fill="#000000" stroke="none" font-family="Arial" font-size="13px" font-style="normal" font-weight="bold" text-decoration="none" x="412.5" y="650">Check Valid Move</text></g></g><g transform="translate(-22,-62) scale(1,1)"><path fill="#C0C0C0" stroke="none" d="M 241 639 L 357.16259765625 639 Q 367.16259765625 639 367.16259765625 649 L 367.16259765625 669 Q 367.16259765625 679 357.16259765625 679 L 241 679 Q 231 679 231 669 L 231 649 Q 231 639 241 639 Z" opacity="0.2"/></g><g transform="translate(-22,-62) scale(1,1)"><path fill="#d8e1f8" stroke="none" d="M 234 632 L 350.16259765625 632 Q 360.16259765625 632 360.16259765625 642 L 360.16259765625 662 Q 360.16259765625 672 350.16259765625 672 L 234 672 Q 224 672 224 662 L 224 642 Q 224 632 234 632 Z"/></g><g transform="translate(-22,-62) scale(1,1)"><path fill="none" stroke="#000000" d="M 234 632 L 350.16259765625 632 Q 360.16259765625 632 360.16259765625 642 L 360.16259765625 662 Q 360.16259765625 672 350.16259765625 672 L 234 672 Q 224 672 224 662 L 224 642 Q 224 632 234 632 Z" stroke-miterlimit="10"/></g><g transform="translate(-22,-62) scale(1,1)"><g><path fill="none" stroke="none"/><text fill="#000000" stroke="none" font-family="Arial" font-size="13px" font-style="normal" font-weight="bold" text-decoration="none" x="228.5" y="650">Check Prevent Move</text></g></g><g transform="translate(-22,-62) scale(1,1)"><path fill="#C0C0C0" stroke="none" d="M 49 695 L 88 695 Q 98 695 98 705 L 98 725 Q 98 735 88 735 L 49 735 Q 39 735 39 725 L 39 705 Q 39 695 49 695 Z" opacity="0.2"/></g><g transform="translate(-22,-62) scale(1,1)"><path fill="#d8e1f8" stroke="none" d="M 42 688 L 81 688 Q 91 688 91 698 L 91 718 Q 91 728 81 728 L 42 728 Q 32 728 32 718 L 32 698 Q 32 688 42 688 Z"/></g><g transform="translate(-22,-62) scale(1,1)"><path fill="none" stroke="#000000" d="M 42 688 L 81 688 Q 91 688 91 698 L 91 718 Q 91 728 81 728 L 42 728 Q 32 728 32 718 L 32 698 Q 32 688 42 688 Z" stroke-miterlimit="10"/></g><g transform="translate(-22,-62) scale(1,1)"><g><path fill="none" stroke="none"/><text fill="#000000" stroke="none" font-family="Arial" font-size="13px" font-style="normal" font-weight="bold" text-decoration="none" x="49.5791015625" y="706">Exit</text></g></g><g transform="translate(-22,-62) scale(1,1)"><path fill="#C0C0C0" stroke="none" d="M 137 703 L 180.9072265625 703 Q 190.9072265625 703 190.9072265625 713 L 190.9072265625 733 Q 190.9072265625 743 180.9072265625 743 L 137 743 Q 127 743 127 733 L 127 713 Q 127 703 137 703 Z" opacity="0.2"/></g><g transform="translate(-22,-62) scale(1,1)"><path fill="#d8e1f8" stroke="none" d="M 130 696 L 173.9072265625 696 Q 183.9072265625 696 183.9072265625 706 L 183.9072265625 726 Q 183.9072265625 736 173.9072265625 736 L 130 736 Q 120 736 120 726 L 120 706 Q 120 696 130 696 Z"/></g><g transform="translate(-22,-62) scale(1,1)"><path fill="none" stroke="#000000" d="M 130 696 L 173.9072265625 696 Q 183.9072265625 696 183.9072265625 706 L 183.9072265625 726 Q 183.9072265625 736 173.9072265625 736 L 130 736 Q 120 736 120 726 L 120 706 Q 120 696 130 696 Z" stroke-miterlimit="10"/></g><g transform="translate(-22,-62) scale(1,1)"><g><path fill="none" stroke="none"/><text fill="#000000" stroke="none" font-family="Arial" font-size="13px" font-style="normal" font-weight="bold" text-decoration="none" x="124.5" y="714">Rematch</text></g></g><g transform="translate(-22,-62) scale(1,1)"><path fill="#C0C0C0" stroke="none" d="M 121 767 L 231.24658203125 767 Q 241.24658203125 767 241.24658203125 777 L 241.24658203125 797 Q 241.24658203125 807 231.24658203125 807 L 121 807 Q 111 807 111 797 L 111 777 Q 111 767 121 767 Z" opacity="0.2"/></g><g transform="translate(-22,-62) scale(1,1)"><path fill="#d8e1f8" stroke="none" d="M 114 760 L 224.24658203125 760 Q 234.24658203125 760 234.24658203125 770 L 234.24658203125 790 Q 234.24658203125 800 224.24658203125 800 L 114 800 Q 104 800 104 790 L 104 770 Q 104 760 114 760 Z"/></g><g transform="translate(-22,-62) scale(1,1)"><path fill="none" stroke="#000000" d="M 114 760 L 224.24658203125 760 Q 234.24658203125 760 234.24658203125 770 L 234.24658203125 790 Q 234.24658203125 800 224.24658203125 800 L 114 800 Q 104 800 104 790 L 104 770 Q 104 760 114 760 Z" stroke-miterlimit="10"/></g><g transform="translate(-22,-62) scale(1,1)"><g><path fill="none" stroke="none"/><text fill="#000000" stroke="none" font-family="Arial" font-size="13px" font-style="normal" font-weight="bold" text-decoration="none" x="108.5" y="778">Win or Lose Screen</text></g></g><g transform="translate(-22,-62) scale(1,1)"><path fill="#C0C0C0" stroke="none" d="M 345 983 L 403.3671875 983 Q 413.3671875 983 413.3671875 993 L 413.3671875 1013 Q 413.3671875 1023 403.3671875 1023 L 345 1023 Q 335 1023 335 1013 L 335 993 Q 335 983 345 983 Z" opacity="0.2"/></g><g transform="translate(-22,-62) scale(1,1)"><path fill="#d8e1f8" stroke="none" d="M 338 976 L 396.3671875 976 Q 406.3671875 976 406.3671875 986 L 406.3671875 1006 Q 406.3671875 1016 396.3671875 1016 L 338 1016 Q 328 1016 328 1006 L 328 986 Q 328 976 338 976 Z"/></g><g transform="translate(-22,-62) scale(1,1)"><path fill="none" stroke="#000000" d="M 338 976 L 396.3671875 976 Q 406.3671875 976 406.3671875 986 L 406.3671875 1006 Q 406.3671875 1016 396.3671875 1016 L 338 1016 Q 328 1016 328 1006 L 328 986 Q 328 976 338 976 Z" stroke-miterlimit="10"/></g><g transform="translate(-22,-62) scale(1,1)"><g><path fill="none" stroke="none"/><text fill="#000000" stroke="none" font-family="Arial" font-size="13px" font-style="normal" font-weight="bold" text-decoration="none" x="337.33056640625" y="994">Next Turn</text></g></g><g transform="translate(-22,-62) scale(1,1)"><path fill="#C0C0C0" stroke="none" d="M 553 983 L 608.47265625 983 Q 618.47265625 983 618.47265625 993 L 618.47265625 1013 Q 618.47265625 1023 608.47265625 1023 L 553 1023 Q 543 1023 543 1013 L 543 993 Q 543 983 553 983 Z" opacity="0.2"/></g><g transform="translate(-22,-62) scale(1,1)"><path fill="#d8e1f8" stroke="none" d="M 546 976 L 601.47265625 976 Q 611.47265625 976 611.47265625 986 L 611.47265625 1006 Q 611.47265625 1016 601.47265625 1016 L 546 1016 Q 536 1016 536 1006 L 536 986 Q 536 976 546 976 Z"/></g><g transform="translate(-22,-62) scale(1,1)"><path fill="none" stroke="#000000" d="M 546 976 L 601.47265625 976 Q 611.47265625 976 611.47265625 986 L 611.47265625 1006 Q 611.47265625 1016 601.47265625 1016 L 546 1016 Q 536 1016 536 1006 L 536 986 Q 536 976 546 976 Z" stroke-miterlimit="10"/></g><g transform="translate(-22,-62) scale(1,1)"><g><path fill="none" stroke="none"/><text fill="#000000" stroke="none" font-family="Arial" font-size="13px" font-style="normal" font-weight="bold" text-decoration="none" x="540.5" y="994">EnPassant</text></g></g><g transform="translate(-22,-62) scale(1,1)"><path fill="#C0C0C0" stroke="none" d="M 521 871 L 561.28271484375 871 Q 571.28271484375 871 571.28271484375 881 L 571.28271484375 901 Q 571.28271484375 911 561.28271484375 911 L 521 911 Q 511 911 511 901 L 511 881 Q 511 871 521 871 Z" opacity="0.2"/></g><g transform="translate(-22,-62) scale(1,1)"><path fill="#d8e1f8" stroke="none" d="M 514 864 L 554.28271484375 864 Q 564.28271484375 864 564.28271484375 874 L 564.28271484375 894 Q 564.28271484375 904 554.28271484375 904 L 514 904 Q 504 904 504 894 L 504 874 Q 504 864 514 864 Z"/></g><g transform="translate(-22,-62) scale(1,1)"><path fill="none" stroke="#000000" d="M 514 864 L 554.28271484375 864 Q 564.28271484375 864 564.28271484375 874 L 564.28271484375 894 Q 564.28271484375 904 554.28271484375 904 L 514 904 Q 504 904 504 894 L 504 874 Q 504 864 514 864 Z" stroke-miterlimit="10"/></g><g transform="translate(-22,-62) scale(1,1)"><g><path fill="none" stroke="none"/><text fill="#000000" stroke="none" font-family="Arial" font-size="13px" font-style="normal" font-weight="bold" text-decoration="none" x="508.5" y="882">Castling</text></g></g><g transform="translate(-22,-62) scale(1,1)"><path fill="#C0C0C0" stroke="none" d="M 521 927 L 574.99365234375 927 Q 584.99365234375 927 584.99365234375 937 L 584.99365234375 957 Q 584.99365234375 967 574.99365234375 967 L 521 967 Q 511 967 511 957 L 511 937 Q 511 927 521 927 Z" opacity="0.2"/></g><g transform="translate(-22,-62) scale(1,1)"><path fill="#d8e1f8" stroke="none" d="M 514 920 L 567.99365234375 920 Q 577.99365234375 920 577.99365234375 930 L 577.99365234375 950 Q 577.99365234375 960 567.99365234375 960 L 514 960 Q 504 960 504 950 L 504 930 Q 504 920 514 920 Z"/></g><g transform="translate(-22,-62) scale(1,1)"><path fill="none" stroke="#000000" d="M 514 920 L 567.99365234375 920 Q 577.99365234375 920 577.99365234375 930 L 577.99365234375 950 Q 577.99365234375 960 567.99365234375 960 L 514 960 Q 504 960 504 950 L 504 930 Q 504 920 514 920 Z" stroke-miterlimit="10"/></g><g transform="translate(-22,-62) scale(1,1)"><g><path fill="none" stroke="none"/><text fill="#000000" stroke="none" font-family="Arial" font-size="13px" font-style="normal" font-weight="bold" text-decoration="none" x="508.5" y="938">Promotion</text></g></g><g transform="translate(-22,-62) scale(1,1)"><path fill="none" stroke="#000000" d="M 290 465 L 359 499" stroke-miterlimit="10"/></g><g transform="translate(-22,-62) scale(1,1)"><path fill="none" stroke="#000000" d="M 348.02332561844764 498.28402547435513 L 359 499 L 351.744589552168 490.73204866768737" stroke-miterlimit="10"/></g><g transform="translate(-22,-62) scale(1,1)"><path fill="#C0C0C0" stroke="none" d="M 226 607 L 524 607 Q 527 607 527 610 L 527 609 Q 527 612 524 612 L 226 612 Q 223 612 223 609 L 223 610 Q 223 607 226 607 Z" opacity="0.2"/></g><g transform="translate(-22,-62) scale(1,1)"><path fill="#000000" stroke="none" d="M 219 600 L 517 600 Q 520 600 520 603 L 520 603 Q 520 606 517 606 L 219 606 Q 216 606 216 603 L 216 603 Q 216 600 219 600 Z"/></g><g transform="translate(-22,-62) scale(1,1)"><path fill="none" stroke="#000000" d="M 366 577 L 368 599" stroke-miterlimit="10"/></g><g transform="translate(-22,-62) scale(1,1)"><path fill="none" stroke="#000000" d="M 362.88768451425597 589.2601729802722 L 368 599 L 371.27214478569897 588.4979493192318" stroke-miterlimit="10"/></g><g transform="translate(-22,-62) scale(1,1)"><path fill="#C0C0C0" stroke="none" d="M 226 727 L 540 727 Q 543 727 543 730 L 543 729 Q 543 732 540 732 L 226 732 Q 223 732 223 729 L 223 730 Q 223 727 226 727 Z" opacity="0.2"/></g><g transform="translate(-22,-62) scale(1,1)"><path fill="#000000" stroke="none" d="M 219 720 L 533 720 Q 536 720 536 723 L 536 723 Q 536 726 533 726 L 219 726 Q 216 726 216 723 L 216 723 Q 216 720 219 720 Z"/></g><g transform="translate(-22,-62) scale(1,1)"><path fill="none" stroke="#000000" d="M 317 673 L 372 719" stroke-miterlimit="10"/></g><g transform="translate(-22,-62) scale(1,1)"><path fill="none" stroke="#000000" d="M 361.50380916990537 715.7091067993267 L 372 719 L 366.90508518576877 709.2510593890553" stroke-miterlimit="10"/></g><g transform="translate(-22,-62) scale(1,1)"><path fill="none" stroke="#000000" d="M 440 673 L 380 719" stroke-miterlimit="10"/></g><g transform="translate(-22,-62) scale(1,1)"><path fill="none" stroke="#000000" d="M 385.503960028407 709.4760079795446 L 380 719 L 390.6263668010969 716.1574081178358" stroke-miterlimit="10"/></g><g transform="translate(-22,-62) scale(1,1)"><path fill="none" stroke="#000000" d="M 362 606 L 324 631" stroke-miterlimit="10"/></g><g transform="translate(-22,-62) scale(1,1)"><path fill="none" stroke="#000000" d="M 330.17645175538644 621.8977231577268 L 324 631 L 334.803692599314 628.9311292404966" stroke-miterlimit="10"/></g><g transform="translate(-22,-62) scale(1,1)"><path fill="none" stroke="#000000" d="M 376 606 L 425 631" stroke-miterlimit="10"/></g><g transform="translate(-22,-62) scale(1,1)"><path fill="none" stroke="#000000" d="M 414.0343757696681 630.1310435919116 L 425 631 L 417.8605777155036 622.631687778074" stroke-miterlimit="10"/></g><g transform="translate(-22,-62) scale(1,1)"><path fill="#C0C0C0" stroke="none" d="M 375 784.5 L 386.5 775 L 397 784.5 L 386.5 793 L 375 784.5" opacity="0.2"/></g><g transform="translate(-22,-62) scale(1,1)"><path fill="#ffffff" stroke="none" d="M 368 777 L 379 768 L 390 777 L 379 786 L 368 777"/></g><g transform="translate(-22,-62) scale(1,1)"><path fill="none" stroke="#000000" d="M 368 777 L 379 768 L 390 777 L 379 786 L 368 777 L 368 777" stroke-miterlimit="10"/></g><g transform="translate(-22,-62) scale(1,1)"><path fill="none" stroke="#000000" d="M 376 726 L 378 767" stroke-miterlimit="10"/></g><g transform="translate(-22,-62) scale(1,1)"><path fill="none" stroke="#000000" d="M 373.30033020138916 757.0544932867136 L 378 767 L 381.70936685536583 756.6442963767635" stroke-miterlimit="10"/></g><g transform="translate(-22,-62) scale(1,1)"><path fill="none" stroke="#000000" d="M 377 787 L 373 807" stroke-miterlimit="10"/></g><g transform="translate(-22,-62) scale(1,1)"><path fill="none" stroke="#000000" d="M 370.86529275021616 796.2091230681783 L 373 807 L 379.12083628127033 797.8602317743891" stroke-miterlimit="10"/></g><g transform="translate(-22,-62) scale(1,1)"><path fill="none" stroke="#000000" d="M 391 776 L 463 768" stroke-miterlimit="10"/></g><g transform="translate(-22,-62) scale(1,1)"><path fill="none" stroke="#000000" d="M 453.36434622806684 773.3060509220539 L 463 768 L 452.4346192883948 764.9385084650058" stroke-miterlimit="10"/></g><g transform="translate(-22,-62) scale(1,1)"><path fill="#C0C0C0" stroke="none" d="M 495 840.5 L 506.5 831 L 517 840.5 L 506.5 849 L 495 840.5" opacity="0.2"/></g><g transform="translate(-22,-62) scale(1,1)"><path fill="#ffffff" stroke="none" d="M 488 833 L 499 824 L 510 833 L 499 842 L 488 833"/></g><g transform="translate(-22,-62) scale(1,1)"><path fill="none" stroke="#000000" d="M 488 833 L 499 824 L 510 833 L 499 842 L 488 833 L 488 833" stroke-miterlimit="10"/></g><g transform="translate(-22,-62) scale(1,1)"><path fill="none" stroke="#000000" d="M 404 829 L 487 833" stroke-miterlimit="10"/></g><g transform="translate(-22,-62) scale(1,1)"><path fill="none" stroke="#000000" d="M 476.6464731004163 836.7154381625318 L 487 833 L 477.0517394003016 828.3061624399126" stroke-miterlimit="10"/></g><g transform="translate(-22,-62) scale(1,1)"><path fill="none" stroke="#000000" d="M 500 823 L 505 785" stroke-miterlimit="10"/></g><g transform="translate(-22,-62) scale(1,1)"><path fill="none" stroke="#000000" d="M 507.84777766639183 795.6249782288154 L 505 785 L 499.50068874366247 794.526677054772" stroke-miterlimit="10"/></g><g transform="translate(-22,-62) scale(1,1)"><g><path fill="none" stroke="none"/><text fill="#000000" stroke="none" font-family="Arial" font-size="13px" font-style="normal" font-weight="normal" text-decoration="none" x="454.5" y="811">if Special Move</text></g></g><g transform="translate(-22,-62) scale(1,1)"><path fill="none" stroke="#000000" d="M 367 777 L 235 779" stroke-miterlimit="10"/></g><g transform="translate(-22,-62) scale(1,1)"><path fill="none" stroke="#000000" d="M 245.09773529155186 774.6370030962939 L 235 779 L 245.22528179618948 783.0550724023766" stroke-miterlimit="10"/></g><g transform="translate(-22,-62) scale(1,1)"><g><path fill="none" stroke="none"/><text fill="#000000" stroke="none" font-family="Arial" font-size="13px" font-style="normal" font-weight="normal" text-decoration="none" x="194.5" y="763">Cannot Move And CheckMate</text></g></g><g transform="translate(-22,-62) scale(1,1)"><path fill="#C0C0C0" stroke="none" d="M 639 808.5 L 650.5 799 L 661 808.5 L 650.5 817 L 639 808.5" opacity="0.2"/></g><g transform="translate(-22,-62) scale(1,1)"><path fill="#ffffff" stroke="none" d="M 632 801 L 643 792 L 654 801 L 643 810 L 632 801"/></g><g transform="translate(-22,-62) scale(1,1)"><path fill="none" stroke="#000000" d="M 632 801 L 643 792 L 654 801 L 643 810 L 632 801 L 632 801" stroke-miterlimit="10"/></g><g transform="translate(-22,-62) scale(1,1)"><path fill="none" stroke="#000000" d="M 553 776 L 631 798" stroke-miterlimit="10"/></g><g transform="translate(-22,-62) scale(1,1)"><path fill="none" stroke="#000000" d="M 620.0762204914141 799.292687606423 L 631 798 L 622.3616532608348 791.1897896057498" stroke-miterlimit="10"/></g><g transform="translate(-22,-62) scale(1,1)"><path fill="none" stroke="#000000" d="M 639 811 L 581 975" stroke-miterlimit="10"/></g><g transform="translate(-22,-62) scale(1,1)"><path fill="none" stroke="#000000" d="M 580.419813511434 964.015311400022 L 581 975 L 588.3570939978491 966.8223984013152" stroke-miterlimit="10"/></g><g transform="translate(-22,-62) scale(1,1)"><path fill="none" stroke="#000000" d="M 636 811 L 556 919" stroke-miterlimit="10"/></g><g transform="translate(-22,-62) scale(1,1)"><path fill="none" stroke="#000000" d="M 558.6665157899503 908.3280885713034 L 556 919 L 565.4316923366684 913.3393304577613" stroke-miterlimit="10"/></g><g transform="translate(-22,-62) scale(1,1)"><path fill="none" stroke="#000000" d="M 631 810 L 562 863" stroke-miterlimit="10"/></g><g transform="translate(-22,-62) scale(1,1)"><path fill="none" stroke="#000000" d="M 567.4952706107504 853.4709916090591 L 562 863 L 572.6237695645345 860.1477166620989" stroke-miterlimit="10"/></g><g transform="translate(-22,-62) scale(1,1)"><path fill="#C0C0C0" stroke="none" d="M 407 920.5 L 418.5 911 L 429 920.5 L 418.5 929 L 407 920.5" opacity="0.2"/></g><g transform="translate(-22,-62) scale(1,1)"><path fill="#ffffff" stroke="none" d="M 400 913 L 411 904 L 422 913 L 411 922 L 400 913"/></g><g transform="translate(-22,-62) scale(1,1)"><path fill="none" stroke="#000000" d="M 400 913 L 411 904 L 422 913 L 411 922 L 400 913 L 400 913" stroke-miterlimit="10"/></g><g transform="translate(-22,-62) scale(1,1)"><path fill="none" stroke="#000000" d="M 503 891 L 423 910" stroke-miterlimit="10"/></g><g transform="translate(-22,-62) scale(1,1)"><path fill="none" stroke="#000000" d="M 431.9149343217002 903.5560923315295 L 423 910 L 433.86034132242236 911.7472797029914" stroke-miterlimit="10"/></g><g transform="translate(-22,-62) scale(1,1)"><path fill="none" stroke="#000000" d="M 503 932 L 423 916" stroke-miterlimit="10"/></g><g transform="translate(-22,-62) scale(1,1)"><path fill="none" stroke="#000000" d="M 433.79087693182163 913.8652927502162 L 423 916 L 432.1397682256108 922.1208362812703" stroke-miterlimit="10"/></g><g transform="translate(-22,-62) scale(1,1)"><path fill="none" stroke="#000000" d="M 535 977 L 423 919" stroke-miterlimit="10"/></g><g transform="translate(-22,-62) scale(1,1)"><path fill="none" stroke="#000000" d="M 433.9601630775834 919.9353209677851 L 423 919 L 430.08863383616284 927.4113774339764" stroke-miterlimit="10"/></g><g transform="translate(-22,-62) scale(1,1)"><g><path fill="none" stroke="none"/><text fill="#000000" stroke="none" font-family="Arial" font-size="13px" font-style="normal" font-weight="normal" text-decoration="none" x="342.5" y="915"> [Merge]</text></g></g><g transform="translate(-22,-62) scale(1,1)"><path fill="none" stroke="#000000" d="M 379 849 L 406 903" stroke-miterlimit="10"/></g><g transform="translate(-22,-62) scale(1,1)"><path fill="none" stroke="#000000" d="M 397.6900064950472 895.7927808450386 L 406 903 L 405.22022077900255 892.0276737030609" stroke-miterlimit="10"/></g><g transform="translate(-22,-62) scale(1,1)"><path fill="none" stroke="#000000" d="M 406 923 L 378 975" stroke-miterlimit="10"/></g><g transform="translate(-22,-62) scale(1,1)"><path fill="none" stroke="#000000" d="M 379.1117636227807 964.0563268667663 L 378 975 L 386.5244810803434 968.0477901131462" stroke-miterlimit="10"/></g><g transform="translate(-22,-62) scale(1,1)"><path fill="#C0C0C0" stroke="none" d="M 527 448.5 L 538.5 439 L 549 448.5 L 538.5 457 L 527 448.5" opacity="0.2"/></g><g transform="translate(-22,-62) scale(1,1)"><path fill="#ffffff" stroke="none" d="M 520 441 L 531 432 L 542 441 L 531 450 L 520 441"/></g><g transform="translate(-22,-62) scale(1,1)"><path fill="none" stroke="#000000" d="M 520 441 L 531 432 L 542 441 L 531 450 L 520 441 L 520 441" stroke-miterlimit="10"/></g><g transform="translate(-22,-62) scale(1,1)"><path fill="none" stroke="#000000" d="M 363 1017 L 352 1080 L 720 1080 L 720 440 L 543 441" stroke-miterlimit="10"/></g><g transform="translate(-22,-62) scale(1,1)"><path fill="none" stroke="#000000" d="M 553.138730462093 436.73313409901056 L 543 441 L 553.1862948753719 445.1520352493653" stroke-miterlimit="10"/></g><g transform="translate(-22,-62) scale(1,1)"><g><path fill="none" stroke="none"/><text fill="#000000" stroke="none" font-family="Arial" font-size="13px" font-style="normal" font-weight="normal" text-decoration="none" x="510.42724609375" y="834"> [Decision]</text></g></g><g transform="translate(-22,-62) scale(1,1)"><path fill="none" stroke="#000000" d="M 532 451 L 534 471" stroke-miterlimit="10"/></g><g transform="translate(-22,-62) scale(1,1)"><path fill="none" stroke="#000000" d="M 528.80014933638 461.30662323666047 L 534 471 L 537.1774027765504 460.46889789264344" stroke-miterlimit="10"/></g><g transform="translate(-22,-62) scale(1,1)"><path fill="none" stroke="#000000" d="M 519 442 L 367 456" stroke-miterlimit="10"/></g><g transform="translate(-22,-62) scale(1,1)"><path fill="none" stroke="#000000" d="M 376.73375574005166 450.87613435060877 L 367 456 L 377.50592483677735 459.25968454363067" stroke-miterlimit="10"/></g><g transform="translate(-22,-62) scale(1,1)"><path fill="#C0C0C0" stroke="none" d="M 351 464.5 L 362.5 455 L 373 464.5 L 362.5 473 L 351 464.5" opacity="0.2"/></g><g transform="translate(-22,-62) scale(1,1)"><path fill="#ffffff" stroke="none" d="M 344 457 L 355 448 L 366 457 L 355 466 L 344 457"/></g><g transform="translate(-22,-62) scale(1,1)"><path fill="none" stroke="#000000" d="M 344 457 L 355 448 L 366 457 L 355 466 L 344 457 L 344 457" stroke-miterlimit="10"/></g><g transform="translate(-22,-62) scale(1,1)"><path fill="none" stroke="#000000" d="M 343 456 L 290 449" stroke-miterlimit="10"/></g><g transform="translate(-22,-62) scale(1,1)"><path fill="none" stroke="#000000" d="M 300.6263668010969 446.15740811783576 L 290 449 L 299.5239920204554 454.503960028407" stroke-miterlimit="10"/></g><g transform="translate(-22,-62) scale(1,1)"><path fill="none" stroke="#000000" d="M 138 759 L 92 729" stroke-miterlimit="10"/></g><g transform="translate(-22,-62) scale(1,1)"><path fill="none" stroke="#000000" d="M 102.81188807472306 731.025605158875 L 92 729 L 98.21284023121963 738.0774785189136" stroke-miterlimit="10"/></g><g transform="translate(-22,-62) scale(1,1)"><path fill="none" stroke="#000000" d="M 163 759 L 157 737" stroke-miterlimit="10"/></g><g transform="translate(-22,-62) scale(1,1)"><path fill="none" stroke="#000000" d="M 163.73516708030883 745.6969836380393 L 157 737 L 155.61278620858468 747.9121784212368" stroke-miterlimit="10"/></g><g transform="translate(-22,-62) scale(1,1)"><path fill="none" stroke="#000000" d="M 151 695 L 160 328 L 343 299" stroke-miterlimit="10"/></g><g transform="translate(-22,-62) scale(1,1)"><path fill="none" stroke="#000000" d="M 333.6214376308469 304.7482665115586 L 343 299 L 332.3037167206003 296.4329931813815" stroke-miterlimit="10"/></g><g transform="translate(-22,-62) scale(1,1)"><g><path fill="none" stroke="none"/><text fill="#000000" stroke="none" font-family="Arial" font-size="13px" font-style="normal" font-weight="normal" text-decoration="none" x="653" y="815">Decision</text></g></g><g transform="translate(-22,-62) scale(1,1)"><path fill="none" stroke="#000000" d="M 488 843 L 422 903" stroke-miterlimit="10"/></g><g transform="translate(-22,-62) scale(1,1)"><path fill="none" stroke="#000000" d="M 426.68814230973317 893.0490542316979 L 422 903 L 432.3513984503659 899.2786359863939" stroke-miterlimit="10"/></g><g transform="translate(-22,-62) scale(1,1)"><g><path fill="none" stroke="none"/><text fill="#000000" stroke="none" font-family="Arial" font-size="13px" font-style="normal" font-weight="normal" text-decoration="none" x="341" y="479">Marge</text></g></g><g transform="translate(-22,-62) scale(1,1)"><g><path fill="none" stroke="none"/><text fill="#000000" stroke="none" font-family="Arial" font-size="13px" font-style="normal" font-weight="normal" text-decoration="none" x="493" y="423">Decision</text></g></g><g transform="translate(-22,-62) scale(1,1)"><path fill="#C0C0C0" stroke="none" d="M 63 507.5 C 63 500.59644 68.59644 495 75.5 495 C 82.40356 495 88 500.59644 88 507.5 C 88 514.40356 82.40356 520 75.5 520 C 68.59644 520 63 514.40356 63 507.5 Z" opacity="0.2"/></g><g transform="translate(-22,-62) scale(1,1)"><path fill="none" stroke="#000000" d="M 56 500.5 C 56 493.59644 61.59644 488 68.5 488 C 75.40356 488 81 493.59644 81 500.5 C 81 507.40356 75.40356 513 68.5 513 C 61.59644 513 56 507.40356 56 500.5 Z" stroke-miterlimit="10"/></g><g transform="translate(-22,-62) scale(1,1)"><path fill="#000000" stroke="none" d="M 61 500.5 C 61 496.357864 64.357864 493 68.5 493 C 72.642136 493 76 496.357864 76 500.5 C 76 504.642136 72.642136 508 68.5 508 C 64.357864 508 61 504.642136 61 500.5 Z"/></g><g transform="translate(-22,-62) scale(1,1)"><path fill="none" stroke="#000000" d="M 62 687 L 68 514" stroke-miterlimit="10"/></g><g transform="translate(-22,-62) scale(1,1)"><path fill="none" stroke="#000000" d="M 71.85473741176118 524.3024754057639 L 68 514 L 63.44076074112657 524.010661185973" stroke-miterlimit="10"/></g><g transform="translate(-22,-62) scale(1,1)"><g><path fill="none" stroke="none"/><text fill="#000000" stroke="none" font-family="Arial" font-size="13px" font-style="normal" font-weight="normal" text-decoration="none" x="277" y="599">frok</text></g></g><g transform="translate(-22,-62) scale(1,1)"><g><path fill="none" stroke="none"/><text fill="#000000" stroke="none" font-family="Arial" font-size="13px" font-style="normal" font-weight="normal" text-decoration="none" x="269" y="719">join</text></g></g><g transform="translate(-22,-62) scale(1,1)"><g><path fill="none" stroke="none"/><text fill="#000000" stroke="none" font-family="Arial" font-size="13px" font-style="normal" font-weight="normal" text-decoration="none" x="749" y="271">Decision</text></g></g><g transform="translate(-22,-62) scale(1,1)"><g><path fill="none" stroke="none"/><text fill="#000000" stroke="none" font-family="Arial" font-size="13px" font-style="normal" font-weight="normal" text-decoration="none" x="341" y="279">Marge</text></g></g><g transform="translate(-22,-62) scale(1,1)"><path fill="none" stroke="#000000" d="M 273 185 L 348 287" stroke-miterlimit="10"/></g><g transform="translate(-22,-62) scale(1,1)"><path fill="none" stroke="#000000" d="M 338.58832622013546 281.30610882950765 L 348 287 L 345.3711307059355 276.3187525899488" stroke-miterlimit="10"/></g><g transform="translate(-22,-62) scale(1,1)"><g><path fill="none" stroke="none"/><text fill="#000000" stroke="none" font-family="Arial" font-size="13px" font-style="normal" font-weight="normal" text-decoration="none" x="262.5" y="242"> [Cick local game]</text></g></g><g transform="translate(-22,-62) scale(1,1)"><g><path fill="none" stroke="none"/><text fill="#000000" stroke="none" font-family="Arial" font-size="13px" font-style="normal" font-weight="normal" text-decoration="none" x="605" y="167">Decision</text></g></g><g transform="translate(-22,-62) scale(1,1)"><path fill="none" stroke="#000000" d="M 751 247 L 367 295" stroke-miterlimit="10"/></g><g transform="translate(-22,-62) scale(1,1)"><path fill="none" stroke="#000000" d="M 376.56207101183867 289.56246398039013 L 367 295 L 377.60632384707066 297.9164866622462" stroke-miterlimit="10"/></g><g transform="translate(-22,-62) scale(1,1)"><path fill="#C0C0C0" stroke="none" d="M 351 427.5 L 362.5 415 L 373 427.5 L 362.5 439 L 351 427.5" opacity="0.2"/></g><g transform="translate(-22,-62) scale(1,1)"><path fill="#ffffff" stroke="none" d="M 344 420 L 355 408 L 366 420 L 355 432 L 344 420"/></g><g transform="translate(-22,-62) scale(1,1)"><path fill="none" stroke="#000000" d="M 344 420 L 355 408 L 366 420 L 355 432 L 344 420 L 344 420" stroke-miterlimit="10"/></g><g transform="translate(-22,-62) scale(1,1)"><path fill="none" stroke="#000000" d="M 354 369 L 355 407" stroke-miterlimit="10"/></g><g transform="translate(-22,-62) scale(1,1)"><path fill="none" stroke="#000000" d="M 350.5245928199676 396.9515806928197 L 355 407 L 358.9407146667412 396.7301038021151" stroke-miterlimit="10"/></g><g transform="translate(-22,-62) scale(1,1)"><g><path fill="none" stroke="none"/><text fill="#000000" stroke="none" font-family="Arial" font-size="13px" font-style="normal" font-weight="normal" text-decoration="none" x="302.5" y="395">If Local Game Or Host</text></g></g><g transform="translate(-22,-62) scale(1,1)"><path fill="none" stroke="#000000" d="M 495 495 L 383 504" stroke-miterlimit="10"/></g><g transform="translate(-22,-62) scale(1,1)"><path fill="none" stroke="#000000" d="M 392.7928433955968 498.9899882006809 L 383 504 L 393.4671992892475 507.3819726550012" stroke-miterlimit="10"/></g><g transform="translate(-22,-62) scale(1,1)"><g><path fill="none" stroke="none"/><text fill="#000000" stroke="none" font-family="Arial" font-size="13px" font-style="normal" font-weight="normal" text-decoration="none" x="365" y="415">Decision</text></g></g><g transform="translate(-22,-62) scale(1,1)"><path fill="#C0C0C0" stroke="none" d="M 367 512.5 L 378.5 503 L 389 512.5 L 378.5 521 L 367 512.5" opacity="0.2"/></g><g transform="translate(-22,-62) scale(1,1)"><path fill="#ffffff" stroke="none" d="M 360 505 L 371 496 L 382 505 L 371 514 L 360 505"/></g><g transform="translate(-22,-62) scale(1,1)"><path fill="none" stroke="#000000" d="M 360 505 L 371 496 L 382 505 L 371 514 L 360 505 L 360 505" stroke-miterlimit="10"/></g><g transform="translate(-22,-62) scale(1,1)"><g><path fill="none" stroke="none"/><text fill="#000000" stroke="none" font-family="Arial" font-size="13px" font-style="normal" font-weight="normal" text-decoration="none" x="405" y="495">Marge</text></g></g><g transform="translate(-22,-62) scale(1,1)"><path fill="none" stroke="#000000" d="M 370 515 L 367 535" stroke-miterlimit="10"/></g><g transform="translate(-22,-62) scale(1,1)"><path fill="none" stroke="#000000" d="M 364.344590654394 524.3253196203696 L 367 535 L 372.6704809283316 525.5742031614601" stroke-miterlimit="10"/></g></g></svg>